/* XPM */
static char *f501b12e8cf34f879ae80945915c62b2s3biiAUovOY7fp6O[] = {
/* columns rows colors chars-per-pixel */
"64 64 157 2 ",
"   c #552F17",
".  c #532F1A",
"X  c #4A3C12",
"o  c #563017",
"O  c #56321B",
"+  c #59351D",
"@  c #513C1B",
"#  c #5C391F",
"$  c #573521",
"%  c #593720",
"&  c #5C3A23",
"*  c #5C3E2B",
"=  c #613E24",
"-  c #613F28",
";  c #4D4413",
":  c #4F4915",
">  c #4F4318",
",  c #544314",
"<  c #594616",
"1  c #514915",
"2  c #5A4817",
"3  c #52441A",
"4  c #534B1B",
"5  c #5B491A",
"6  c #565415",
"7  c #5C5615",
"8  c #595916",
"9  c #565319",
"0  c #615916",
"q  c #645D1A",
"w  c #616117",
"e  c #666D17",
"r  c #686F16",
"t  c #656518",
"y  c #6A621E",
"u  c #676D18",
"i  c #696D19",
"p  c #6B7117",
"a  c #6D711A",
"s  c #72751B",
"d  c #75781E",
"f  c #574320",
"g  c #584321",
"h  c #5E402C",
"j  c #5B492A",
"k  c #5F4531",
"l  c #614026",
"z  c #64452B",
"x  c #69472D",
"c  c #674A2E",
"v  c #694A2E",
"b  c #634631",
"n  c #694730",
"m  c #654A35",
"M  c #6A4D32",
"N  c #654D39",
"B  c #6A4E3A",
"V  c #6D5133",
"C  c #6C513D",
"Z  c #715436",
"A  c #73553B",
"S  c #785D3F",
"D  c #747720",
"F  c #797C22",
"G  c #6B6533",
"H  c #696F38",
"J  c #797D3D",
"K  c #6B5542",
"L  c #6D5A45",
"P  c #6D5C48",
"I  c #715742",
"U  c #745A44",
"Y  c #795D42",
"T  c #745D4A",
"R  c #785D4A",
"E  c #7D6246",
"W  c #72614D",
"Q  c #7C634B",
"!  c #7A7E41",
"~  c #756552",
"^  c #7C6553",
"/  c #776856",
"(  c #7B6856",
")  c #7B6B59",
"_  c #73705D",
"`  c #7E705F",
"'  c #867E26",
"]  c #887F26",
"[  c #907431",
"{  c #907A3F",
"}  c #81664A",
"|  c #836A4D",
" . c #866D51",
".. c #886F53",
"X. c #816D5B",
"o. c #877053",
"O. c #897255",
"+. c #82705E",
"@. c #8D765A",
"#. c #8F795C",
"$. c #907B5D",
"%. c #857462",
"&. c #897767",
"*. c #867868",
"=. c #8B7B6B",
"-. c #937D61",
";. c #847F73",
":. c #7E8125",
">. c #7D8342",
",. c #8A8326",
"<. c #8C8629",
"1. c #918B2B",
"2. c #A48B36",
"3. c #AC853D",
"4. c #B38E3F",
"5. c #AA9635",
"6. c #BC9A3F",
"7. c #838542",
"8. c #888946",
"9. c #838849",
"0. c #898A48",
"q. c #BD9842",
"w. c #8D816F",
"e. c #968065",
"r. c #988367",
"t. c #998469",
"y. c #8E8170",
"u. c #838D79",
"i. c #928676",
"p. c #948877",
"a. c #928779",
"s. c #968B7C",
"d. c #988E7E",
"f. c #9C9B7E",
"g. c #A78E67",
"h. c #A08C69",
"j. c #A68E69",
"k. c #9B8F81",
"l. c #8D9682",
"z. c #8D9784",
"x. c #9B9083",
"c. c #9C9384",
"v. c #9E9C81",
"b. c #95938B",
"n. c #9E9488",
"m. c #9F9588",
"M. c #9C9C8F",
"N. c #9D9E93",
"B. c #A1978A",
"V. c #A1988B",
"C. c #ADA28E",
"Z. c #AEA391",
"A. c #9BA6A8",
"S. c #9CA7AB",
"D. c #9CA8AC",
"F. c #B1AEA4",
"G. c #B3B0A8",
/* pixels */
"s s s s s s s s s s s s s s s s s F :.F d s d F s s >.>.d s s s s s s s s s s s s s s s s s s s s s s s s s s s s s s s s s s J ",
"s s s s s s s s s s s s s s s s s s F F F d e d d d A.N.>.d s s s s s s s s s s s s s s s s s s s s s s s s s s s s s s s s s f.",
"s s s s s s s s s s s s s s s s s d a d F F i 7.8.F l.h.S.D s s s s s s s s s s s s s s s s s s s s s s s s s s s s s s s s s u ",
"s s s s s s s s s s s s s s s s s F F a d F 7.C.Z.0.i l.z.d s s s s s s s s s s s s s s s s s s s s s s s s s s s s s s s s s s ",
"s s s s s s s s s s s s s s s s s i d F e d f.j.g.v.d J J d s s s s s s s s s s s s s s s s s s s s s s s s s s s s s s s s s s ",
"s s s s s s s s s s s s s s s s s s i d i i u f.v.i 7.C.Z.7.d s s s s s s s s s s s s s s s s s s s s s s s s s s s s s s s s s ",
"s s s s s s s s s s s s s s s s s s s >.>.d s u J 7.f.j.g.v.d s s s s s s s s s s s s s s s s s s s s s s s s s s s s s s s s s ",
"s s s s s s s s s s s s s s s s s s s M.D.D s 7.C.G.i f.v.i s s s s s s s s s s s s s s s s s s s s s s s s s s s s s s s s s s ",
"s s s d d d s s s s s s s s s s s s s { l.d s F.j.v.d u u s s s s s s s s s s s s s s s s s s s s s s s s s s s s s s s s s s s ",
"s s d F :.F s s s s s s s s s s s s s u u s s f.v.i s s s s s s s s s s s s s s s s s s s s s s s s s s s s s s s s s s s s s s ",
"s s F F F s s s s s s s s s s s s s s s s s s u u s s s s s s s s s s s s s s s s s s s s s s s s s s s s s s s s s s s s s s s ",
"s s d d i s s s s s s s s s s s s s s s s s s s s s s s s s s s s s s s s s s s s s s s s s s s d d s s s s s s s s s s s s s s ",
"s s i i s s s s s s s s s s s s s s s s s s s s s s s s s s s s s s s s s s s s s s s s s s s s F :.d d s s s d d s s s s s s s ",
"s s s s s s s s s s s s s s s s s s s s s s s s s s s s s s s s s s s s s s s s s s s s s s s s s F F F s s d :.F s s s s s s s ",
"s s s s s s s s s s s s s s s s s s s s s s s s s s s s s s s s s s s s s s s s s s s s s s s s s i d d s d F :.s s s s s s s s ",
"s s s s s s s s s s s s s s s s s s s s s s s s s s s s s s s s s s s s s s s s s s s s s s s s s s i i s F F d s s s s s s s s ",
"s s s s s s s s s s s s s s s s s s s s s s s s s s s s s s s s s s s s s s s s s s s s s s s s s s s s s d d i s s s s s s s s ",
"s s s s s s s s s s s s s s s s s s 8 1 1 1 w s s s s s s s s s s s s s s s s s s s s s 8 1 : 1 w s s s s i i s s s s s s s s s ",
"s s s s s s s s s s s s s s s s s 8 j C B * X : : : : : w 8 : : : : : : : w 8 : : : : : @ z N C 3 w s s s s s s s s s s s s s s ",
"s s s s s s s s s s s s s s s s s 3 T ) ) m & = = = = x 3 g l = = = = = l 3 f l = = = = = U ( +.B 6 s s s s s s s s s s s s s s ",
"s s s s s s s s s s s s s s s s s 4 ) *.%.C M S S Y Y } M Y E S Y Y Y S E M S E S Y Y S M W %.*.U 6 s s s s s s s s s s s s s s ",
"s s s s s s s s s s s s s s s s s 4 %.i.y.U A } | | | o.S } o.| | | | | O.S E  .| | | | Z ( y.a.T 9 s s s s s s d d s s s s s s ",
"s s s s s s s s s s s s s s s s s 4 &.s.i.R A | O.O.O.#.E  .@.O.O.O.O.O.@.Y E O.o.O.O.O.A X.i.s.^ 9 s s s s s s d :.d s s s s s ",
"s s s s s s s s s s s s s s s s s 4 =.k.s.R A O.#.#.#.-.| ..#.#.#.#.#.#.#.Y } @.@.@.@.@.U X.s.x.^ 9 s s s s s s s :.:.d s s s s ",
"d s s s s d d s s s s s s s s s s 4 =.n.n.Q S @.-.-.-.e.| O.-.-.-.-.-.-.-.Y | $.$.$.$.$.U %.c.n.^ 9 s s s s s s s d F F a d d d ",
":.d s s d :.F s s s s s s s s s s 4 =.B.B.Q S @.e.e.e.t.| O.e.e.e.-.-.-.e.E  .e.-.-.-.-.Y &.B.B.( 9 s s s s s s s i 7.7.a F F F ",
":.:.s d F F s s s s s s s s s s s 4 =.V.B.Q S @.e.e.e.r.| O.e.e.e.e.e.e.e.E  .e.-.e.e.e.Y &.n.B.( 9 s s s s s s s >.N.D.F F d s ",
"d d s F F e s s s s s s s s s s s 4 =.n.c.R A @.-.-.-.e.} O.-.-.-.-.-.-.e.E  .-.-.-.-.$.U %.x.n.^ 9 s s s s s s s A.h.z.F d i s ",
"i i s d d i s s s s s s s s s s s 3 &.x.d.U A O.$.$.$.-.} O.-.$.$.#.#.#.-.Y  .-.#.#.#.#.U +.s.c.^ 9 s s s s s s s l.z.i d i s s ",
"s s s i i s s s s s s s s s s s s 3 %.s.p.I Z O.$.$.$.-.E ..-.#.#.#.#.#.-.Y | -.#.#.#.#.S X.i.d.^ 4 t t t i s s s u u s s s s s ",
"s s s s s s s s s s s s s s s s s 3 %.p.y.C M | O.O.O.@.Y | @.O.O.O.O.O.@.S } @.O.O.O.O.A ( w.s.^ 5 0 0 0 w i s s s s s s s s s ",
"s s s s s s s s s s s s s s s s s 3 X.i.=.B v E | | |  .A E  .| | | | | O.Z Y  .| | | | C ^ =.i.Q 5 0 0 0 0 u s s s s s s s s s ",
"s s s s s s s s s s s s s s s s s 3 X.=.*.N v E | | | | M Y | E E E E E  .M S  .| | | | M Q *.y.R 5 0 0 0 0 u s s s s s s s s s ",
"s s s s s s s s s s s s s s s s s > B I I = v Y E E E } v M A M M M M M Y x Z E Y Y Y Y n m C I b < 0 0 0 0 u s s s s s s s s s ",
"s s s s s s s s s s s s s s s s s > N U U - & z z l z v # & & N R U U z = # & z l l l = & m U U b < 0 0 0 0 u s s s s s s s s s ",
"s s s s s s s s s s s s s s s s s > ^ y.=.N O + + + + + o o   U ^ I ( m O o + & % % & & o R =.y.I < 0 0 0 0 u s s s s s s s s s ",
"s s s s s s s s s s s s s s s s s > Q %.) b & c M M M M & & + C L & B z + o z N M M M M & K ) %.C < 0 0 0 0 u s s s s s s s s s ",
"s s s s s s s s s s s s s s s s s 3 W ) / z & M V Z Z A = l # N / z N * + o c Z V V V V & C / ` B < 0 0 0 0 u s s s s s s s s s ",
"s s s s s s s s s s s s s s s s s > T / ~ z & M V V V Z = l # m P B K * + o z V M M M M # N ~ ( m < 0 0 0 0 u s s s s s s s s s ",
"s s s s s s s s s s s s s s s s s > K ~ W h & v V M M Z = l = * h b b & = + z V M M M M # N W / b < q 0 0 q i s d s s s s s s s ",
"s s s s s s s s s s s s s s s s s X C W P & + c M M M Z = l c & + + + = c # z V M M M M + m P W h < y 0 0 u d d F s s s s s s s ",
"s s s s s s s s s s s s s s s s s X N P L & + z v v c V & l M c z z z v M # z V c c c c + b L T * , q q w a F F s s s s s s s s ",
"s s s s s s s s s s s s s s s s s X N P K & + z c c c V & l M M M M M M M # z V c c c c + b L T * 2 7 G H F F e s s 7.7.d s s s ",
"s s s s s s s s s s s s s s s s s X * m b % + l z z z V & & z z z z z z z + z v z z z z + & b m $ < G ;.b.9.D i s s C.G.D s s s ",
"s s s s s s s s s s s s s s s s s X b K K C h O O + + = + o + + + + + + +   & & + O O O b C C C & , _ $.h.z.! 7.d s { f.d s s s ",
"s s s s s s s s s s s s s s s s s X K ) ( ) z & m m N B B C C C C C C C C C C B B m m $ K ) ( ) h , 8 u.z.! C.G.D s u u s s s s ",
"s s s s s s s s s s s s s s s s s X k K K W h m T W W ~ ~ / ( ( ( ( ( / / / / / ~ ~ W * N P K K & , u u u F.j.v.d s s s s s s s ",
"s s s s s s s s s s s s s s s s s X O & & z + $ * * * * * * * * * * * * * * * * * * * O & * & & . 1 i s s f.v.i s s s s s s s s ",
"s s s s s s s s s s s s s s s s s 6 ; ; ; ; ; ; ; ; ; ; ; ; ; ; ; ; ; ; ; ; ; ; ; ; ; ; ; ; ; ; ; 8 s s s u u s s s s s s s s s ",
"s s s s s s s s s s s s s s s s s s s s s s s s s s s s s s s s s s s s s s s s s s s s s s s s s s s s s s s s s s s s s s s s ",
"s s s s s s s s s s s s s s s s s s s s s s s s s s s s s s s s s s s s s s s s s s s s s s s s s s s s s s s s s s s s s s s s ",
"s s s s s s s s s s s s s s s s s s s s s s s s s s s s s s s s s s s s s s s s s s s s s s s s s s s s s s s s s s s s s s s s ",
"s s s s s s s s s s s s s s s s s s s s s s s s s s s s s s s s s s s s s s s s s s s s s s s s s s s s s s s s s s s s s s s s ",
"s s s s s s s s s s s s s s s s s d s s s s s s s s s s s s s s s s s s s s s s s s s s s s s s s s s s s s s s s s s s s s s s ",
"s s s s s s s s s s s s s s s s s F d s s s s s s s s s s s s s s s s s s s s s s s s s s s d d s s s s s s s s s s s s s s s s ",
"s s s s s s s s s s s s s s s s s s F d s s s s s s s s s s s s s s s s s s s s s s s s s s d F d s s s s s s s s s s s s s s s ",
"s s s s s s s s s s s s s s s s s a F F s s s s s s s s s s s s s s s s s s s s s s s s s s p :.F d s s s d s s s s s s s s s s ",
"s s s s s s s s s s s s s s s s d a d d s s s s s s s s s s s s s s s s s s s s s s s s s s s F F F s d d d s s s s s s s s s s ",
"s s s s s s s s s s s s s s s s F F a p s s s s s s s s s s s s s s s s s s s s s s s s s s s r F F d 1.<.d s s s s s s s s s s ",
"s s s s s s s s s s s s s s s s d d s s s s s s s s s s s s s s s s s s s s s s s s s s s s s p d d <.6.6.,.s s s s s s s s s s ",
"s s s s s s s s s s s s s s s s p p s s s s s s s s s s s s s s s s s s s s s s s s s s s s s s p p 5.3.3.5.] ' s s s s s d s s ",
"s d s s s s s s s s s s s s s s s s s s s s s s s s s s s s s s s s s s s s s s s s s s s s s s s s u 5.5.i 4.q.d s s s s d d d ",
"d F s s d d d s s s s s s s s s s s s s s s s s s s s s s s s s s s s s s s s s s s s s s s s s s s s u u s [ 2.d s s s s s F F ",
"F d s d F :.F s s s s s s s s s s s 8 4 4 4 w s s s s s s s s s s s s s s d s s s s s s 8 4 4 4 w s s s s s u u s s s s s s d <."
};
