/* XPM */
static char *ae2fffd0f9a24ef2de5fc30b364ba350yKnSKvqFCN66Bq0q[] = {
/* columns rows colors chars-per-pixel */
"64 64 153 2 ",
"   c #4B2D12",
".  c #542D17",
"X  c #552E19",
"o  c #4A3312",
"O  c #4D3D14",
"+  c #523314",
"@  c #56321B",
"#  c #59351D",
"$  c #573A1B",
"%  c #5B3A1E",
"&  c #573421",
"*  c #593621",
"=  c #5D3B22",
"-  c #5E3D28",
";  c #603F24",
":  c #603E29",
">  c #575517",
",  c #5A5514",
"<  c #5B5C16",
"1  c #585618",
"2  c #615A16",
"3  c #645C19",
"4  c #626117",
"5  c #666D17",
"6  c #686F16",
"7  c #656619",
"8  c #69611E",
"9  c #676C18",
"0  c #696E19",
"q  c #6B7117",
"w  c #6D711A",
"e  c #72751B",
"r  c #75781E",
"t  c #5E4224",
"y  c #5C4927",
"u  c #5E422E",
"i  c #5E4430",
"p  c #614226",
"a  c #64452A",
"s  c #69462E",
"d  c #66492C",
"f  c #694B2E",
"g  c #6B502F",
"h  c #614632",
"j  c #684630",
"k  c #644A35",
"l  c #6B4D32",
"z  c #654E3B",
"x  c #6C4F3A",
"c  c #6E5334",
"v  c #66513D",
"b  c #6A523E",
"n  c #715536",
"m  c #735837",
"M  c #72553A",
"N  c #755A3B",
"B  c #785D3E",
"V  c #747720",
"C  c #797C22",
"Z  c #6E6C37",
"A  c #79603F",
"S  c #797D3D",
"D  c #6B5641",
"F  c #6E5A45",
"G  c #6D5D4B",
"H  c #725642",
"J  c #725A45",
"K  c #7A5E42",
"L  c #725D4A",
"P  c #7A5E48",
"I  c #6F604D",
"U  c #7C6242",
"Y  c #74624D",
"T  c #7B614C",
"R  c #747D40",
"E  c #7A7E41",
"W  c #756552",
"Q  c #796652",
"!  c #7B6956",
"~  c #7D6D5B",
"^  c #7F705F",
"/  c #7F7261",
"(  c #767866",
")  c #867E26",
"_  c #887F26",
"`  c #907431",
"'  c #907A3F",
"]  c #806546",
"[  c #816847",
"{  c #816748",
"}  c #836A4A",
"|  c #876F50",
" . c #886F50",
".. c #816D5A",
"X. c #8A7354",
"o. c #83715E",
"O. c #8E7758",
"+. c #8E795A",
"@. c #937D5D",
"#. c #837563",
"$. c #897765",
"%. c #857867",
"&. c #897966",
"*. c #867968",
"=. c #8C7C6A",
"-. c #907E6C",
";. c #7E8125",
":. c #7D8342",
">. c #8A8326",
",. c #8C8629",
"<. c #918B2B",
"1. c #A48B36",
"2. c #AC853D",
"3. c #B38E3F",
"4. c #AA9635",
"5. c #BC9A3F",
"6. c #838542",
"7. c #888946",
"8. c #838849",
"9. c #898A48",
"0. c #BD9842",
"q. c #8E806E",
"w. c #92816F",
"e. c #8F8271",
"r. c #8B8871",
"t. c #89887D",
"y. c #938472",
"u. c #928473",
"i. c #958877",
"p. c #968976",
"a. c #958978",
"s. c #988B79",
"d. c #998D7C",
"f. c #9C917F",
"g. c #9C9B7E",
"h. c #A78E67",
"j. c #A08C69",
"k. c #A68E68",
"l. c #998E80",
"z. c #8C9783",
"x. c #9F9383",
"c. c #9E9483",
"v. c #9E9C81",
"b. c #9B988F",
"n. c #8D989A",
"m. c #9D9D93",
"M. c #ADA28E",
"N. c #AEA391",
"B. c #9BA6A8",
"V. c #9CA7AB",
"C. c #9CA8AC",
"Z. c #B0AEA4",
"A. c #B3B0A8",
/* pixels */
"e e e e e e e e e e e e e e e e e C ;.C r e r C e e :.:.r e e e e e e e e e e e e e e e e e e e e e e e e e e e e e e e e e e S ",
"e e e e e e e e e e e e e e e e e e C C C r 5 r r r B.m.:.r e e e e e e e e e e e e e e e e e e e e e e e e e e e e e e e e e g.",
"e e e e e e e e e e e e e e e e e r w r C C 0 6.7.C z.j.V.V e e e e e e e e e e e e e e e e e e e e e e e e e e e e e e e e e 9 ",
"e e e e e e e e e e e e e e e e e C C w r C 6.M.N.9.0 z.z.r e e e e e e e e e e e e e e e e e e e e e e e e e e e e e e e e e e ",
"e e e e e e e e e e e e e e e e e 0 r C 5 r g.k.h.v.r S S r e e e e e e e e e e e e e e e e e e e e e e e e e e e e e e e e e e ",
"e e e e e e e e e e e e e e e e e e 0 r 0 0 9 g.v.0 6.M.N.6.r e e e e e e e e e e e e e e e e e e e e e e e e e e e e e e e e e ",
"e e e e e e e e e e e e e e e e e e e :.:.r e 9 S 6.g.k.h.v.r e e e e e e e e e e e e e e e e e e e e e e e e e e e e e e e e e ",
"e e e e e e e e e e e e e e e e w 7 7 t.n.V e 6.M.A.0 g.v.0 e e e e e e e e e e e e w 7 7 7 9 e e e e e e e e e e e e e e e e e ",
"e e e r r r e e e e e e e e e w 1 l l l k 7 7 b.@.r.7 < < 7 7 7 7 7 7 7 7 7 7 7 7 7 > s l l y 9 e e e e e e e e e e e e e e e e ",
"e e r C ;.C e e e e e e e e e < P f.i.$.s s s s s s s s s s s s s s s s s s s s s s s M i.a.w.y e e e e e e e e e e e e e e e e ",
"e e C C C e e e e e e e e e e < T c.s.&.l ] } X.X.X.O.+.+.X.X.X.| } } X.X.X.X.} [ [ K M a.d.u.y e e e e e e e e e e e e e e e e ",
"e e r r 0 e e e e e e e e e e < P x.x.-.f ] } X.X.O.+.+.} = s a a : s X.X.O.X. .} { B M x.x.w.y r r e e e e e e e e e e e e e e ",
"e e 0 0 e e e e e e e e e e e < : ..Q J # s f l l n n n s p =.! $...# n n n n l l s s j Q Q P o C ;.r r e e e r r e e e e e e e ",
"e e e e e e e e e e e e e e e < ; ! Y H . X X . . X X . . a a.=.T o.. . . . . . . . . = Y Q P o e C C C e e r ;.C e e e e e e e ",
"e e e e e e e e e e e e e e e < = ! Y b X = = ; = = = = % a i.a.a.#.X ; = = = = = % # = Y Y L o e 0 r r e r C ;.e e e e e e e e ",
"e e e e e e e e e e e e e e e < = Q L b X = = ; ; ; = = = = L L L b @ = = = = = % % # * Y Y J o e e 0 0 e C C r e e e e e e e e ",
"e e e e e e e e e e e e e e e < * W L b X ; p p p a a p p ; . . . @ p p p p = = = = % * L L J o e e e e e r r 0 e e e e e e e e ",
"e e e e e e e e e e e e e e e < * Y F z X ; p p p p p p p p p p p p p p p p = = = = # * F L D o e e e e e 0 0 e e e e e e e e e ",
"e e e e e e e e e e e e e e e < * Y F z X = p p p p p p p p p p p p p p p p ; = = = # & F F D o e e e e e e e e e e e e e e e e ",
"e e e e e e e e e e e e e e e < * L D k . p p a a a d d d d s s d d d d d d d d a p = # D F b o e e e e e e e e e e e e e e e e ",
"e e e e e e e e e e e e e e e < * L D k . p a a d d d d d d d d d d d d d d d d a p = # D F b o e e e e e e e e e e e e e e e e ",
"e e e e e e e e e e e e e e e < & L D k . p a d d s d d d s s s s f s f s s s s a p = # D D b o e e e e e e e e r r e e e e e e ",
"e e e e e e e e e e e e e e e < & F b h . p d f f f f l l l l l l l l l l l l l d a = # v D b o e e e e e e e e r ;.r e e e e e ",
"e e e e e e e e e e e e e e e < # F v h @ l n m n n m m m m m m m m m n n n n n c l a # v b z o e e e e e e e e e ;.;.r e e e e ",
"r e e e e r r e e e e e e e e < # D z h @ l m m m m m m m m m m m m m m m m m m n c a # z v k o e e e e e e e e e r C C w r r r ",
";.r e e r ;.C e e e e e e e e < # b z u @ l m m m m N N N N N N m m m m m m m m n c a # z z k o w w w w w w e e e 0 6.6.w C C C ",
";.;.e r C C e e e e e e e e e < # k u - @ c m m m N N N N N N N N N N m N N N m m n a . u i u + 2 2 2 2 2 3 w e e :.m.C.C C r e ",
"r r e C C 5 e e e e e e e e e < - k a : * c m m m m N N N N N N N N N N B B B N m m s . # # # + 2 2 2 2 2 2 3 e e B.j.z.C r 0 e ",
"0 0 e r r 0 e e e e e e e e e < k =.=.Q X # % = = = = ; p p p p p p p p p p p ; ; = # - =.=.! + 2 2 2 2 2 2 3 e e z.z.0 r 0 e e ",
"e e e 0 0 e e e e e e e e e e < * b b k . . . X X X X X @ @ @ @ @ @ @ @ @ @ @ @ X X X # D b z $ 2 2 2 2 2 2 3 e e 9 9 e e e e e ",
"e e e e e e e e e e e e e e e < # : = = = c c m m m m m N N N B B K B N N N m m m c s X a a p $ 2 2 2 2 2 2 3 e e e e e e e e e ",
"e e e e e e e e e e e e e e e < a o.Q F @ d d a d a a d d d d d d d d d d d d d d d p = Q ! Q $ 2 2 2 2 2 2 4 e e e e e e e e e ",
"e e e e e e e e e e e e e e e < a $.! J @ a a d a p a a a d d d d d d d d a a d d a p = ! ~ ! $ 2 2 2 2 2 3 e e e e e e e e e e ",
"e e e e e e e e e e e e e e e < j =.o.Y # p p p p p p p p p p p p p p p p p p p p p = - o.$.~ $ 2 2 2 2 2 4 e e e e e e e e e e ",
"e e e e e e e e e e e e e e e < l q.$.Q # = = = = = = = = = = = = = = = = = = = = = * p $.$.o.$ 2 2 2 2 3 e e e e e e e e e e e ",
"e e e e e e e e e e e e e e e < x u.$.! # = = = = = = = * * = = = = = = = = = = = = = a $.=.$.= 2 2 2 2 4 e e e e e e e e e e e ",
"e e e e e e e e e e e e e e e < b u.=...= = = = = = = = * * = = * * = = = = = = = = = j =.=.%.t 2 2 2 3 e e e e e e e e e e e e ",
"e e e e e e e e e e e e e e e < M i.q...= ; = = = = * * * * * * % * * * * * * * * * * k q.u.$.t 2 2 2 4 e e e e e e e e e e e e ",
"e e e e e e e e e e e e e e e < H a.u.o.= # # # # # # # # # # # # @ @ @ @ @ @ @ @ @ @ l e.u.=.t 2 2 3 e e e e e e e e e e e e e ",
"e e e e e e e e e e e e e e e < H a.u.o.= # # # # # # # # # # # @ @ @ @ @ @ @ @ @ @ @ l e.u.=.t 2 2 7 e e e e e r e e e e e e e ",
"e e e e e e e e e e e e e e e < H d.u.#.= # # # # # # # # @ @ # @ @ @ @ @ @ @ @ @ @ # x u.i.=.t 2 3 8 r r e r r C e e e e e e e ",
"e e e e e e e e e e e e e e e < J d.i.$.= # # @ @ @ @ # @ @ @ @ @ @ @ @ @ @ @ X @ @ # x u.a.=.p 2 2 7 C r r C C e e e e e e e e ",
"e e e e e e e e e e e e e e e < J x.a.$.= @ # # @ @ # # @ @ @ @ @ @ @ @ # @ @ @ @ @ # x a.s.u.p 8 8 < 6.R C C 5 e e 6.6.r e e e ",
"e e e e e e e e e e e e e e e < H x.d.=.a N } } [ [ N = [ [ [ [ [ [ [ B = [ [ [ [ [ K x d.l.=.t 3 3 Z m.m.8.V 0 e e M.A.V e e e ",
"e e e e e e e e e e e e e e e < : *.~ L # c N N N N n = U m m m m m B m = U N m m N n : ~ #.~ $ , 2 ( j.j.z.E 6.r e ' g.r e e e ",
"e e e e e e e e e e e e e e e < - %.~ L # l N N N N n % A m m m m m N n = U N m m N c - ~ ^ ! $ 2 , , z.z.E M.A.V e 9 9 e e e e ",
"e e e e e e e e e e e e e e e < - #.! J # l N m m N n % A m m m m m m n = U m m m m c = Q ! Q $ 2 2 3 9 9 Z.k.v.r e e e e e e e ",
"e e e e e e e e e e e e e e e < = ~ W F # d n n n n c % m c c c c c n n % N c c c c f - W W L $ 2 2 3 e e g.v.0 e e e e e e e e ",
"e e e e e e e e e e e e e e e < = W Y b @ d c c c c c # m c c c c c n c % N c c c c s * Y Y F $ 2 2 3 e e 9 9 e e e e e e e e e ",
"e e e e e e e e e e e e e e e < * Y L b @ a c c c c l # n c c c c c n c % N c c c c d # F F D + 2 2 3 e e e e e e e e e e e e e ",
"e e e e e e e e e e e e e e e < * Y F z @ p l f f c l # c f f f f l c f # n c c c g a # F F D + 2 2 3 e e e e e e e e e e e e e ",
"e e e e e e e e e e e e e e e < * J b k @ p f f f l l # c d d d d d f d # c f f f f a # b D b + 2 2 4 e e e e e e e e e e e e e ",
"e e e e e e e e e e e e e e e < . a - - = = t = t a s @ a p p p p p p p @ d p p t t t = = - * + 2 3 e e e e e e e e e e e e e e ",
"e e e e e e e e e e e e e e e < - #./ #.W . # # # # # # * * * * * * # # # # # # # @ - #./ #.Y + 2 4 e e e e e e e e e e e e e e ",
"e e e e e e e e e e e e e e e < & G G I F * ! ! ~ ~ ^ #.%.%.*.*.*.%.#.#.#.#./ ~ ~ F * W G G v + 3 e e e e e e e e e e e e e e e ",
"e e e e e e e e e e e e e e e < . k h z b # z k z z z z z z z z v v v z z z v z z h * D h h u + 7 e e e e e e e e e e e e e e e ",
"e e e e e e e e e e e e e e e <                                                               O C r e e e r e e e e e e e e e e ",
"e e e e e e e e e e e e e e e e r w r r e e e e e e e e e e e e e r e e e e e e e e e e e e e C C C e r r r e e e e e e e e e e ",
"e e e e e e e e e e e e e e e e C C w q e e e e e e e e e e e e e e e e e e e e e e e e e e e 6 C C r <.,.r e e e e e e e e e e ",
"e e e e e e e e e e e e e e e e r r e e e e e e e e e e e e e e e e e e e e e e e e e e e e e q r r ,.5.5.>.e e e e e e e e e e ",
"e e e e e e e e e e e e e e e e q q e e e e e e e e e e e e e e e e e e e e e e e e e e e e e e q q 4.2.2.4._ ) e e e e e r e e ",
"e r e e e e e e e e e e e e e e e e e e e e e e e e e e e e e e e e e e e e e e e e e e e e e e e e 9 4.4.0 3.0.r e e e e r r r ",
"r C e e r r r e e e e e e e e e e e e e e e e e e e e e e e e e e e e e e e e e e e e e e e e e e e e 9 9 e ` 1.r e e e e e C C ",
"C r e r C ;.C e e e e e e e e e e e e e e e e e e e e e e e e e e e e e e r e e e e e e e e e e e e e e e e 9 9 e e e e e e r ,."
};
