/* XPM */
static char *_5df66c2ab4c49bbe7590e8eef415e00eCWQjcASgXFn0ij0[] = {
/* columns rows colors chars-per-pixel */
"64 64 228 2 ",
"   c #040301",
".  c #090604",
"X  c #040904",
"o  c #0A0A05",
"O  c #080809",
"+  c #0D0B0A",
"@  c #150905",
"#  c #0A130C",
"$  c #12120D",
"%  c #0C1510",
"&  c #141312",
"*  c #131C14",
"=  c #1B1915",
"-  c #1C1D1B",
";  c #220F09",
":  c #24130A",
">  c #251E18",
",  c #19251C",
"<  c #23231D",
"1  c #282419",
"2  c #3A291E",
"3  c #231F20",
"4  c #1F2721",
"5  c #252523",
"6  c #282725",
"7  c #242B24",
"8  c #2B2C25",
"9  c #2D2B2B",
"0  c #352C22",
"q  c #322E2B",
"w  c #2E3025",
"e  c #2E332A",
"r  c #393327",
"t  c #33342C",
"y  c #34392D",
"u  c #332E32",
"i  c #353B33",
"p  c #393935",
"a  c #3B3B34",
"s  c #50231E",
"d  c #472921",
"f  c #572D2C",
"g  c #473429",
"h  c #523C2F",
"j  c #443C32",
"k  c #463D37",
"l  c #593A32",
"z  c #66322F",
"x  c #6B3B36",
"c  c #7C3C3C",
"v  c #3D4239",
"b  c #666D17",
"n  c #676D18",
"m  c #696F18",
"M  c #6B7117",
"N  c #6C711A",
"B  c #72751B",
"V  c #75781E",
"C  c #474537",
"Z  c #44493C",
"A  c #574539",
"S  c #55453B",
"D  c #64493D",
"F  c #747720",
"G  c #767A22",
"H  c #797C22",
"J  c #7C7E2B",
"K  c #797D3D",
"L  c #773F40",
"P  c #464744",
"I  c #4A4642",
"U  c #454C42",
"Y  c #4A4C45",
"T  c #4C4B4A",
"R  c #534E45",
"E  c #5C4D43",
"W  c #4B5343",
"Q  c #495747",
"!  c #4D534B",
"~  c #585446",
"^  c #53534C",
"/  c #535551",
"(  c #595551",
")  c #555D53",
"_  c #5C5A55",
"`  c #5C5C5B",
"'  c #664D45",
"]  c #685448",
"[  c #76534C",
"{  c #645D56",
"}  c #5B6255",
"|  c #5B635A",
" . c #787E41",
".. c #64635C",
"X. c #686759",
"o. c #766559",
"O. c #73715B",
"+. c #5E5C61",
"@. c #656563",
"#. c #6A6663",
"$. c #646B63",
"%. c #6A6C66",
"&. c #6C6C6C",
"*. c #7C6D63",
"=. c #716E6B",
"-. c #6C7164",
";. c #6D746D",
":. c #73726C",
">. c #78776B",
",. c #757471",
"<. c #7B7670",
"1. c #747A71",
"2. c #7B7B74",
"3. c #7D7D7A",
"4. c #823137",
"5. c #867E26",
"6. c #90783A",
"7. c #813F41",
"8. c #89494B",
"9. c #96454D",
"0. c #995257",
"q. c #806A5F",
"w. c #867066",
"e. c #867C73",
"r. c #947E71",
"t. c #AB6064",
"y. c #7E8125",
"u. c #7D802E",
"i. c #7D8342",
"p. c #7B8279",
"a. c #8B8528",
"s. c #918B2B",
"d. c #828435",
"f. c #848739",
"g. c #A78739",
"h. c #B48F3F",
"j. c #AA9635",
"k. c #BC9A3F",
"l. c #C3A53F",
"z. c #828542",
"x. c #898B46",
"c. c #8F9057",
"v. c #97995A",
"b. c #BA9749",
"n. c #898A62",
"m. c #959766",
"M. c #83837D",
"N. c #888878",
"B. c #968578",
"V. c #9C9B7E",
"C. c #A78E67",
"Z. c #A38D69",
"A. c #A18B7E",
"S. c #9FA163",
"D. c #A0A26C",
"F. c #A8A979",
"G. c #858483",
"H. c #888985",
"J. c #8C8B8B",
"K. c #968D86",
"L. c #8C9683",
"P. c #8E908D",
"I. c #9A9887",
"U. c #94938C",
"Y. c #949494",
"T. c #989796",
"R. c #9D9B95",
"E. c #9C9C9B",
"W. c #A18B85",
"Q. c #A5968A",
"!. c #A49B91",
"~. c #A19E9B",
"^. c #B59A93",
"/. c #ABA38E",
"(. c #B9BB8F",
"). c #AAAB93",
"_. c #A5A299",
"`. c #B2A596",
"'. c #9CA7AA",
"]. c #A5A4A4",
"[. c #ACA8A8",
"{. c #ACABAB",
"}. c #B2AEA7",
"|. c #B3B2AC",
" X c #B9B5AE",
".X c #ADB5B8",
"XX c #B4B4B4",
"oX c #B9B6B6",
"OX c #BBBAB5",
"+X c #BCBBBA",
"@X c #C1BF98",
"#X c #C6B5AB",
"$X c #C4BEB7",
"%X c #C2C29B",
"&X c #CBC5AA",
"*X c #C3C0BD",
"=X c #CAC8B8",
"-X c #D1D1BA",
";X c #C1BFC2",
":X c #C5C4C3",
">X c #C9C6C6",
",X c #CBCACB",
"<X c #D2CECE",
"1X c #CFD0C3",
"2X c #D7D3CC",
"3X c #D5D3D3",
"4X c #DAD6D4",
"5X c #DBD9D6",
"6X c #D7D8D8",
"7X c #DCDBDB",
"8X c #E2DFD5",
"9X c #DBE2DA",
"0X c #E7E4D1",
"qX c #E3E1DE",
"wX c #F4E8DC",
"eX c #DEDFE1",
"rX c #E2DDE1",
"tX c #E4E4E3",
"yX c #E8E7E5",
"uX c #EAE9E6",
"iX c #ECECEC",
"pX c #F2EFED",
"aX c #F3F1EF",
"sX c #EFEEF1",
"dX c #EFF0F2",
"fX c #F4F3F3",
"gX c #F9F9F9",
"hX c #FCFBFC",
/* pixels */
"B B B B B B B B B B B B B B B B B H y.H V B V H B B i.i.V B B B V B B V V B B B B V B B B B B B B B B B B B B B B B B B B B B K ",
"B B B B B B B B B B B B B B B B B B H H H V b V V V '.R.i.V m.T @._ F.V c._ / @.F.B B B B B B B B B B B B B B B B B B B B B B V.",
"B B B B B B B B B B B B B B B B B V N V H H m z.x.H L.Z..X3.:XiX7X4XH.T T G.T.3.` P N.v.B B B B B B B B B B B B B B B B B B B n ",
"B B B B B B B B B B B B B B B B B H H N V H z././.x.=X+XH.{.tXfXtX,XJ.` T / M.E.&.@.G.{.-XB B B B B B B B B B B B B B B B B B B ",
"B B B B B B B B B B B B B B B B B m V H b V V.C.C.I.|.&.XXtXfXiX:X].XXJ.` T 3.].{.5X5X3.J.1XB B B B B B B B B B B B B B B B B B ",
"B B B B B B B B B B B B B B B B B B m V m m n V.I.m.H.,XgXiXiXiXfXfX,X].].` %.T.+X7X,X&.T.iXV V B B B B B B B B B B B B B B B B ",
"B B B B B B B B B B B B B B B B B B B i.i.V B n K H.Y.tXtXiXfXgXfXfX:XE.{.H.G.E.OX5X5X3.~.uXV B B B B B B B B B B B B B B B B B ",
"B B B B B B B B B B B B B B B B B B B R.'.F B z./.H.T.tXiXiXdXgXfX<X:XXX{.{.XX{.{.3X7X,.T.iXV B B B B B B B B B B B B B B B B B ",
"B B B V V V B B B B B B B B B B B B B 6.L.V B }.C.G.J.4XiXhXhXsX:X].tX6X].].{.].:X5X:X%.T.uXB B B B B B B B B B B B B B B B B B ",
"B B V H y.H B B B B B B B B B B B B B n n B B V./.Y.].3XgXfXiXeX,X3X5X7X,XXXXX+X<XuX7X~.Y.OXB B B B B B B B B B B B B B B B B B ",
"B B H H H B B B B B B B B B B B B B B B B B B n #.}.5XqXpXtXiXfXhXhXtXtXiX,X:X5XqXpXpXpXR.:.$XB B B B B B B B B B B B B B B B B ",
"B B V V m B B B B B B B B B B B B B B B B B B G ( OXqX5X5XfXfXfXfX5XgXfXiX{.OXtXiXuX7XiXR.#.*XV V V B B B B B B B B B B B B B B ",
"B B m m B B B B B B B B B B B B B B B B V B B V X.<.~.>X4XuXtXfX5XXXtXtX5XXX:X5XpXfXuXqX~.2.<XB H y.V V B B B V V B B B B B B B ",
"B B B B B B B B B B B B B B B B B B B B B B B V { a ^ M.4XpXtX5X:X+X4XiX4XXX:XqXgXfXaXyX_.=.*XB B H H H B B V y.H B B B B B B B ",
"B B B B B B B B B B B B B B B B B B B B B B B H #.I.U...|.tX7XXX>XfXiXtX5XfXuX,XiXtX[.{ a { 2XB B m V V B V H y.B B B B B B B B ",
"B B B B B B B B B B B B B B B B B B B B B B B J I }.U.I T.3X4X<XiXfXeX3X,XiXfXiXtX{.3.3..._ *XB B B m m B H H V B B B B B B B B ",
"B B B B B B B B B B B B B B B B B B B B B B B u.#.U.K._ e.3XfXhXsX,X6X,X{.tXuX6XtXP.v |.T...+XB B B B B B V V m B B B B B B B B ",
"B B B B B B B B B B B B B B B B B B B B B B B V &XK.t I {.7XhXhXiXiX+X[.XX7XiX7X6XH.! a G.uX0XB B B B B B m m B B B B B B B B B ",
"B B B B B B B B B B B B B B B B B B B B B B B B B V #.T ].qXfXiX7X7X+X{.>XdXsX5X7XM.a ,.$Xv.B B B B B B B B B B B B B B B B B B ",
"B B B B B B B B B B B B B B B B B B B B B B B B B B }._ 3.,XtX7X7X3X;X,XdXgXuX3X|.:.=.<Xd.B B B B B B B B B B B B B B B B B B B ",
"B B B B B B B B B B B B B B B B B B B B B B B B B B B F.@.=.4XuX>X+X].>XpXfXpX7X#.H.4Xx.B B B B B B B B B B B B B B B B B B B B ",
"B B B B B B B B B B B B B B B B B B B B B B B B B B B B m.T.T.:X{.:.OX_.H.<X+XH.J.3Xx.V B B B B B B B B B B B B V V B B B B B B ",
"B B B B B B B B B B B B B B B B B B B B B B B B B B B B B m.a U.M.^ ~.M.( ~.#.q R.V V V B B B B B B B B B B B B V y.V B B B B B ",
"B B B B B B B B B B B B B B B B B B B B B B B B B B B X.~ t o 8 :.~.^ :.U._ < + < j O.D.B B B B B B B B B B B B B y.y.V B B B B ",
"V B B B B V V B B B B B B B B B B B B B B B B B B B c.%.! 8 * $ a ^ t y _ 8 = = t Y :.E.d.B B B B B B B B B B B B V H H N V V V ",
"y.V B B V y.H B B B B B B B B B B B B B B B B B B x./ G.M.^ i $ X X o o   . 5 e ` U.Y.a ;.v.B B B B B B B B B B B m z.z.N H H H ",
"y.y.B V H H B B B B B B B B B B B B B B B B B B B m.v ! H.1.i t < 1 < 1 8 w < v p.H.;.i p.9XB B B B B B B B B B B i.R.'.J H V B ",
"V V B H H b B B B B B B B B B B B B B B B B B V d.2.` Y 1.$.v U X.>.2.>.-.1.U e 1.1.$.;.%.p.V B B B B B B B B B B '.Z.L.J V m B ",
"m m B V V m B B B B B B B B B B B B B B B B B V i ;.p.) ;.| y %.I.I.!._._._.;.y } ) ) H.%./ T.B B B B B B B B B B L.L.m V m B B ",
"B B B m m B B B B B B B B B B B B B B B B V B Y ! } -.1.) Z Z C j S C j Y v v ! U $.;.| ! / U ).B B B B B B B B B n n B B B B B ",
"B B B B B B B B B B B B B B B B B B B B B V x.Y ;.;.-.} | ! U X.*.e.e.>.<.:.| W ) | $.-.1.%.t U.B B B B B B B B B B B B B B B B ",
"B B B B B B B B B B B B B B B B B B B B V B d.| $.3.) Z N.-.! K.!.K.W.W.Q.I.-.W p.} Z ..:.%...|.B B B B B B B B B B B B B B B B ",
"B B B B B B B B B B B B B B B B B B B B B B B Y.i 7 7 y N.>.~ N.w.l s d g S W Q L.X.C r q R }.(.B B B B B B B B B B B B B B B B ",
"B B B B B B B B B B B B B B B B B B B B B B B J e , e y X.>.>.w.[ x c 8.[ D C Z X.R 1 : @ q >XB B B B B B B B B B B B B B B B B ",
"B B B B B B B B B B B B B B B B B B B B B B B J < . < 1 0 X.B.] x 8.0.t.0.D j C C r 0 ; @ r  XB B B B B B B B B B B B B B B B B ",
"B B B B B B B B B B B B B B B B B B B B B B B J > @ > 0 2 X.Q.o.z 4.4.4.c z h S g > @ @ ; k $XB B B B B B B B B B B B B B B B B ",
"B B B B B B B B B B B B B B B B B B B B V V B G g 1 @ @ 1 ' r.] [ 0.9.9.7.x S S 2 2 d ' E E =XB B B B B B B B B B B B B B B B B ",
"B B B B B B B B B B B B B B B B B B B B V B B G ] g d 2 : E Q.[ x 8.0.8.L x l h g g [ ^.q.E $XB B B B B B B B B B B B B B B B B ",
"B B B B B B B B B B B B B B B B B B B 5.5.B B V ] B.r.] g S *.*.S f f f l ' ] S r o.Q.#Xq.h $XB B B B B B B B B B B B B B B B B ",
"B B B B B B B B B B B B B B B B B B 5.h.b.5.B a.] r.w.D g S o.o.{ S E ' S E R C r o.K.o.q.`.2XB B V V B B B B B V B B B B B B B ",
"B B B B B B B B B B B B B B B B B B g.g.g.g.a.b.' r.A.o.g j E C ^ _ X.{ ~ R Z C C ~ e.*.`.wXB B B H y.V V B V V H B B B B B B B ",
"B B B B B B B B B B B B B B B B B B n g.g.m l.b.o.B.$X=X*.j S ^ U Z Z W W Z C C t 0 ~ #X0XB B V V V H H V V G H B B B B B B B B ",
"B B B B B B B B B B B B B B B B B B B n n B j.j.#Xe.o.*.j 1 t y y e e e t t y a t 1 r =XB B B V y.y.N z. .H H b B B z.z.V B B B ",
"B B B B B B B B B B B B B B B B B B B B B B n n B `.X.{ C a y t y a v i i i y w 8 o <  XB B B B H H z.R.R.x.F m B B /.|.F B B B ",
"B B B B B B B B B B B B B B B B B B B B B B B B B B @X=X=.y Z %.>.,.1.1.2.1...^ Z * t +XB B B B m V L.Z.Z.L. .z.V B 6.V.V B B B ",
"B B B B B B B B B B B B B B B B B B B B B B B B B B B B f.e i v ^ T U Q ! U a y e % 7 XXB B B B B m n L.L. ./.|.F B n n B B B B ",
"B B B B B B B B B B B B B B B B B B B B B B B B B B B B m.7 7 * < - , , , , 5 8 7 % 8 :XB B B B B B B n n }.C.I.V B B B B B B B ",
"B B B B B B B B B B B B B B B B B B B B B B B B B B B B n.O   O X X X # * 4 7 4 * X 5 OXB B B B B B B B B V.I.m B B B B B B B B ",
"B B B B B B B B B B B B B B B B B B B B B B B B B B B B n.O O O   o X # & - < , & O - XXB B B B B B B B B n n B B B B B B B B B ",
"B B B B B B B B B B B B B B B B B B B B B B B B B B B B n.& 9 u 9 t $ . & - - & + 5 ` :XB B B B B B B B B B B B B B B B B B B B ",
"B B B B B B B B B B B B B B B B B B B B B B B B B B B B n.T T.{.Y.G.a & & - , & + ,.7Xd.B B B B B B B B B B B B B B B B B B B B ",
"B B B B B B B B B B B B B B B B B B B B B B B B B B B B n.+.>XrX:XE.a t ` 2.3.%.u &.=XB B B B B B B B B B B B B B B B B B B B B ",
"B B B B B B B B B B B B B B B B B B B B B B B B B B B B n.k G.T.G.#.q T J.{.oXXXP 3.qXB B B B B B B B B B B B B B B B B B B B B ",
"B B B B B B B B B B B B B B B B B V B B B B B B V V B B c.. O     .   T {.7XiXtX/ G.1XB B B B B B B B B B B B B B B B B B B B B ",
"B B B B B B B B B B B B B B B B B H V B B B B B V V B B 8   + $   + . - a T ^ I 5 t ,.B B B V V B B B B B B B B B B B B B B B B ",
"B B B B B B B B B B B B B B B B B B H V B B B B V V V 8 . + $ . & > + . = k T P 5 . 8  XB B V H V B B B B B B B B B B B B B B B ",
"B B B B B B B B B B B B B B B B B N H H B B B B B B B - $ = + $ 5 t =   8 _.yX4X_ o 8 *XB B M y.H V B B B V B B B B B B B B B B ",
"B B B B B B B B B B B B B B B B V N V V B B B B B B B > . +   + .   + $ $ t a a 5 . 9 OXB B B H H H B V V V B B B B B B B B B B ",
"B B B B B B B B B B B B B B B B H H N M B B B B B B V ` T T I T Z a & .       O . + t OXB B B b G H V s.a.B B B B B B B B B B B ",
"B B B B B B B B B B B B B B B B V V B B B B B B B B B S.8X-X&X%X%X%X=.$ + . + o . . 5 OXB B B M V V a.k.k.a.B B B B B B B B B B ",
"B B B B B B B B B B B B B B B B M M B B B B B B B B B B B B B B B B J   . . + . + o 6 +XV V B B M M j.g.g.j.5.5.B B B B B V B B ",
"B V B B B B B B B B B B B B B B B B B B B B B B B B B B B B B B B B J ^ & .   o +   9 *XV V B B B B n j.j.m h.b.V B B B B V V V ",
"V H B B V V V B B B B B B B B B B B B B B B B B B B B B B B B B B B B d.3     + o   9 oXB B B B B B B n n B 6.g.V B B B B B H H ",
"H V B V H y.H B B B B B B B B B B B B B B B B B B B B B B B B B B B B B c.[.]._.).).).F.B B B B B B B B B B n n B B B B B B V a."
};
