/* XPM */
static char *_eab29e95c21453383c28a1ce7630da6d4Vz5JyPD6rRUiu3[] = {
/* columns rows colors chars-per-pixel */
"64 64 240 2 ",
"   c #030201",
".  c #0B0401",
"X  c #0B0A05",
"o  c #060C08",
"O  c #0C0C0B",
"+  c #170B01",
"@  c #110C0A",
"#  c #0E160C",
"$  c #1B1507",
"%  c #13120D",
"&  c #0E0F14",
"*  c #131312",
"=  c #171814",
"-  c #1A1914",
";  c #1C1C1A",
":  c #2A0E0A",
">  c #291908",
",  c #221C18",
"<  c #1D231E",
"1  c #23221E",
"2  c #2A261A",
"3  c #362B19",
"4  c #36281A",
"5  c #1A1E20",
"6  c #1F2422",
"7  c #232423",
"8  c #242B24",
"9  c #2B2B25",
"0  c #252929",
"q  c #2B2B2B",
"w  c #382D2A",
"e  c #2A332A",
"r  c #2B332B",
"t  c #31342E",
"y  c #39382B",
"u  c #2D3433",
"i  c #343433",
"p  c #343C34",
"a  c #3A3D35",
"s  c #333C3A",
"d  c #3B3C3B",
"f  c #483728",
"g  c #4D342C",
"h  c #51392D",
"j  c #453D35",
"k  c #3D433B",
"l  c #3E4539",
"z  c #666D17",
"x  c #676D18",
"c  c #696F18",
"v  c #6B7117",
"b  c #6C711A",
"n  c #72751B",
"m  c #75781E",
"M  c #42433E",
"N  c #484538",
"B  c #454A3E",
"V  c #554738",
"C  c #5C4B3A",
"Z  c #53543D",
"A  c #624A39",
"S  c #6C533E",
"D  c #747720",
"F  c #767922",
"G  c #797C22",
"H  c #7B7E2A",
"J  c #7A7E3D",
"K  c #3C4443",
"L  c #444543",
"P  c #444B43",
"I  c #494C43",
"U  c #46494B",
"Y  c #4B4B4B",
"T  c #574C45",
"R  c #4A5346",
"E  c #4D544B",
"W  c #53544C",
"Q  c #57584B",
"!  c #5C5C4B",
"~  c #4F4E50",
"^  c #505152",
"/  c #535353",
"(  c #5B5453",
")  c #545A53",
"_  c #595C53",
"`  c #57585A",
"'  c #5B5C5A",
"]  c #675A4A",
"[  c #725449",
"{  c #665C53",
"}  c #795E54",
"|  c #5C6358",
" . c #5C635A",
".. c #65664D",
"X. c #787E41",
"o. c #646455",
"O. c #63655C",
"+. c #6C675A",
"@. c #656B5C",
"#. c #7A6958",
"$. c #797957",
"%. c #5E5F61",
"&. c #5F6365",
"*. c #636462",
"=. c #676767",
"-. c #646A63",
";. c #6B6C63",
":. c #6C6C6B",
">. c #756D66",
",. c #6B7368",
"<. c #777668",
"1. c #73736C",
"2. c #756F71",
"3. c #6E7575",
"4. c #747474",
"5. c #737B72",
"6. c #7A7A75",
"7. c #7B7C7B",
"8. c #877F26",
"9. c #90783A",
"0. c #86705D",
"q. c #88736A",
"w. c #88786A",
"e. c #92786A",
"r. c #877B79",
"t. c #7E8125",
"y. c #7E802E",
"u. c #7F8230",
"i. c #7D8342",
"p. c #7D8479",
"a. c #8C8628",
"s. c #918B2B",
"d. c #848739",
"f. c #A9873B",
"g. c #AA9635",
"h. c #B9963F",
"j. c #828543",
"k. c #8A8C44",
"l. c #87894B",
"z. c #8F914B",
"x. c #85865D",
"c. c #989A59",
"v. c #BD9842",
"b. c #A0A05D",
"n. c #8D8567",
"m. c #989967",
"M. c #888678",
"N. c #948577",
"B. c #929377",
"V. c #9C9C7D",
"C. c #A38D69",
"Z. c #A89075",
"A. c #A9947B",
"S. c #A3A56C",
"D. c #A5A678",
"F. c #ABAC7C",
"G. c #7E8283",
"H. c #848584",
"J. c #898481",
"K. c #868B83",
"L. c #8A8C84",
"P. c #8C8C8B",
"I. c #978C87",
"U. c #8D9682",
"Y. c #8E958A",
"T. c #979789",
"R. c #8E9392",
"E. c #979695",
"W. c #9C9C94",
"Q. c #9B9C9B",
"!. c #A59888",
"~. c #B49786",
"^. c #A49B98",
"/. c #9FA088",
"(. c #9CA399",
"). c #A9A48B",
"_. c #B8B98B",
"`. c #A9A599",
"'. c #B7A996",
"]. c #BEB093",
"[. c #9E9FA1",
"{. c #9CA7AA",
"}. c #A4A4A5",
"|. c #AAA9A4",
" X c #ADAAAB",
".X c #B1ABA7",
"XX c #B6B7A9",
"oX c #B2B1AC",
"OX c #AEB1B1",
"+X c #B4B4B3",
"@X c #B8B9B6",
"#X c #BBBBBA",
"$X c #C3A594",
"%X c #CCAFA1",
"&X c #C8B9A8",
"*X c #D6BDAB",
"=X c #C2BEBD",
"-X c #BBC6B6",
";X c #C2C29C",
":X c #C7C4A9",
">X c #D7C3AA",
",X c #CAC6B6",
"<X c #D4D3B9",
"1X c #E4CCB4",
"2X c #E9D4BA",
"3X c #F1D5BF",
"4X c #C5C4C3",
"5X c #CAC6C6",
"6X c #CCCCCA",
"7X c #CFD0CB",
"8X c #D8D6C7",
"9X c #D9D8D8",
"0X c #E7D8C7",
"qX c #F2D9C5",
"wX c #E2DEDE",
"eX c #DFE1DE",
"rX c #E7E3CC",
"tX c #F4E4CD",
"yX c #E6E5D7",
"uX c #FEEBD3",
"iX c #F6EAD8",
"pX c #EAF1DF",
"aX c #FBF2DC",
"sX c #DEDFE1",
"dX c #E4E3E3",
"fX c #E8EAE6",
"gX c #EBECEC",
"hX c #F9EAE4",
"jX c #EDF1EC",
"kX c #FFFAE7",
"lX c #F5F3EE",
"zX c #FEF4EC",
"xX c #EDEEF0",
"cX c #EFF2F2",
"vX c #F3F5F2",
"bX c #FAF5F2",
"nX c #F6F9F6",
"mX c #FDFBF4",
"MX c #F6F7F9",
"NX c #FDFDFC",
/* pixels */
"n n n n n n n n n n n n n n n n n G t.G m n m G n n i.i.m n n n n n n n n n n n n n n n n n n n n n n n n n n n n n n n n n n J ",
"n n n n n n n n n n n n n n n n n n G G G m z m m m {.W.i.m H u.G d.z.k.y.n n n n n n n n n n n n n n n n n n n n n n n n n n V.",
"n n n n n n n n n n n n n n n n n m b m G G c j.k.G U.C.OX; 7 U ` ` Y =.9X<Xm n n n n n n n n n n n n n n n n n n n n n n n n x ",
"n n n n n n n n n n n n n n n n n G G b m G j.).).l.W L i d 7 H.sXgXNXdX=.L 7._.n n n n n n n n n n n n n n n n n n n n n n n n ",
"n n n n n n n n n n n n n n n n n c m G z m V.C.C.+X%./ U Y %.}.vXMXdXwX=.4.G.+Xu.n n n n n n n n n n n n n n n n n n n n n n n ",
"n n n n n n n n n n n n n n n n n n c m c c x V.L &.xXE.*.7.gXMXgXyX#X X X4XE.U E.D.n n n n n n n n n n n n n n n n n n n n n n ",
"n n n n n n n n n n n n n n n n n n n i.i.m d./ 9X4X}./ [.9XMXdXgXvXNXgXNX5XQ.~ OXNXn n n n n n n n n n n n n n n n n n n n n n ",
"n n n n n n n n n n n n n n n n n n n W.{.D /.i fX9X[./ }.MXcXfXgXMXMXvX9X=X^./ 2.oXd.n n m n n n n n n n n n n n n n n n n n n ",
"n n n m m m n n n n n n n n n n n n n 9.U.m ).&.9X4XQ.` Q.cXsXvXgXNXfX6XoX.XI.( w ( bXn n n n n n n n n n n n n n n n n n n n n ",
"n n m G t.G n n n n n n n n n n n n n x x H 4.dXOX[.R.d }.NXcXNXvXdX+XoXmX.Xj +.T ( lXn n n n n n n n n n n n n n n n n n n n n ",
"n n G G G n n n n n n n n n n n n n n n n x.4.6X XE.L.4.P.}.NXNXjXfX9X7XyXT.N T j ( mXn n n n n n n n n n n n n n n n n n n n n ",
"n n m m c n n n n n n n n n n n n n n n n x.=.#XE.@X+XR.Y / NXgX6XNXjX8XoXw.] V w ] hXn n n n n m m n n n n n n n n n n n n n n ",
"n n c c n n n n n n n n n n n n n n n n n $.H.dX X}.oXP.1./ 9XyXNXNXE._ B M.0XqXq.V mXn n n n n G t.m m n n n m m n n n n n n n ",
"n n n n n n n n n n n n n n n n n n n n n o.:.7X@X+XQ.1.M Y lXyX5XeXK.B T.:XtXuXe.C aXn n n n n n G G G n n m t.G n n n n n n n ",
"n n n n n n n n n n n n n n n n n n n n n $.( 5XwX5X7.d 9 *.6X4X}.Q.1.O.rXrX1X>X0.] aXn n n n n n c m m n m G t.n n n n n n n n ",
"n n n n n n n n n n n n n n n n n n n n n $.4.dXfX=X XY }.@Xd 4.H.d t Q <X0X&XA Z.tXrXn n n n n n n c c n G G m n n n n n n n n ",
"n n n n n n n n n n n n n n n n n n n n n o.7.fX4X#XoXa W.,Xr U -.p.| o.<XyX&X+ w.kXm m n n n n n n n n n m m c n n n n n n n n ",
"n n n n n n n n n n n n n n n n n n n n n x.7.9XE.6X7XM 6.#Xi t ) yXL.! yX8X&XC !.0Xn m n n n n n n n n n c c n n n n n n n n n ",
"n n n n n n n n n n n n n n n n n n n n n $.*.7X7X8X`.W.>.j { j a pXU...8XaXrXiXN.T <Xn n n n n n n n n n n n n n n n n n n n n ",
"n n n n n n n n n n n n n n n n n n n n n V.1.6.4X=X.X>.V f q.+.T.rX,X).rXtXrXkX!.V hXn n n n n n n n n n n n n n n n n n n n n ",
"n n n n n n n n n n n n n n n n n n n n n H }.a .X^.I.V f T %X&XtXaXtXtXkX0XiX0XN.{ bXm m n n n n n n n n n n n n n n n n n n n ",
"n n n n n n n n n n n n n n n n n n n n n n E.t |.>.j ^.0.h 0XqX2X2XtXuXtXaX8Xf <.lX<Xm m n n n n n n n n n n n m m n n n n n n ",
"n n n n n n n n n n n n n n n n n n n n n n }.q ' N w { h C N.~.1X3XuXqXaX'.e.N.,XrXn m m n n n n n n n n n n n m t.m n n n n n ",
"n n n n n n n n n n n n n n n n n n n n n n Y.8 t M N f 4 C f S A.$X$X*X*X#.0.zX<Xn m m n n n n n n n n n n n n n t.t.m n n n n ",
"m n n n n m m n n n n n n n n n n n n n n k.) P.oX|.`.B.M.<.> f [ + g A : '.zXiXn n n n n n n n n n n n n n n n n m G G b m m m ",
"t.m n n m t.G n n n n n n n n n n n n n n o.p | -.;.p.<.+.+.] C f + > f ] >..X_.n n n n n n n n n n n n n n n n n c j.j.b G G G ",
"t.t.n m G G n n n n n n n n n n n n n n n x.p r l l R @.| @.M.! 2 . . , M.j W vXn n n n n n n n n n n n n n n n n i.W.{.G G m n ",
"m m n G G z n n n n n n n n n n n n n d.k 5.p.p.(.5.r p.@.Q Y._ 9   ; 8 ;.a / nXn n n n n n n n n n n n n n n n n {.C.U.G m c n ",
"c c n m m c n n n n n n n n n n n n d.;.@.W.K.(.-X,.l | R l ) k 8 < r 8 P r R vXn n n n n n n n n n n n n n n n n U.U.c m c n n ",
"n n n c c n n n n n n n n n n n n n $.| +XT.K.Y.T.M.| # r r 0 u s r r p r # E fXn n n n n n n n n n n n n n n n n x x n n n n n ",
"n n n n n n n n n n n n n n n n n n $.a | | <.@.Q ,.p.8 | 3.K &.,.P ,.,.8 E ;.2 M.d.n n n n n n n n n n n n n n n n n n n n n n ",
"n n n n n n n n n n n n n n n n n n ).7.k P p B B P E ' :.3.K -.R.r 5.Y.- y I X L.;Xn n n n n n n n n n n n n n n n n n n n n n ",
"n n n n n n n n n n n n n n n n n n S.7.5 u 6 8 < 8 p -.-.| k 6.(.M 6.L.y 9 a L }.z.n n n n n n n n n n n n n n n n n n n n n n ",
"n n n n n n n n n n n n n n n n n n ! & 0 0 6 7   o o 8 l I k 1.R.k k a 9 2 _ mX;Xm n n n n n n n n n n n n n n n n n n n n n n ",
"n n n n n n n n n n n n n n n n n n ! = ; 7 % 1   o = 8 P -.l | M.M _ ;.2 $ T zXn n n n n n n n n n n n n n n n n n n n n n n n ",
"n n n n n n n n n n n n n n n n n n $.; = - 9 X % % = r ' 5.a ' H.a @.M.j 2 f ,Xn n n n n n n n n n n n n n n n n n n n n n n n ",
"n n n n n n n n n n n n n n n n n n $.  . +   . X X y B p k l -.,.B y y 2 4 f 4 I.H n n n n n n n n n n n n n n n n n n n n n n ",
"n n n n n n n n n n n n n n n n n n x.+.`.!.!.N.$ y @.B 5.p.K ,.5.M 6.M.4 f h q.e.e.d.n n n n n n n n n n n n n n n n n n n n n ",
"n n n n n n n n n n n n n n n n n n x.'.kX0XuX1X] ..+.y ;.K.k | 1.M +.M.4 h S *X} h hXn n n n n n n n n n n n n n n n n n n n n ",
"n n n n n n n n n n n n n n n n n n m.e.aX3X1X2XuX&XV 4 9 l a -.1.I N y 4 0.'.~.[ } hXn n n n n n m m n n n n n m n n n n n n n ",
"n n n n n n n n n n n n n n n n n n C.!.uX2X1XA.C.C V N @.5.k | M.k ! +.> #.$X%X[ g hXn n n m n n G t.m m n m m G n n n n n n n ",
"n n n n n n n n n n n n n n n n n n $.N.uX2X>XA.S h 4 w.;._ Y ) O.M +.>.4 ] Z.e.e.e.hXm m m n m m m G G m m G G n n n n n n n n ",
"n n n n n n n n n n n n n n n n n n $.n.uX1X2X2XuX'.> 2 y k E d M W N N 4 4 4 4 e.mXc.m n n n m t.t.b j.X.G G z n n j.j.m n n n ",
"n n n n n n n n n n n n n n n n n n c.!.] uXuX*XV f 4 o.>.| ' ' M.M W <.2 >.,X&XiXc.n n n n n n G G j.W.W.l.D c n n ).oXD n n n ",
"n n n n n n n n n n n n n n n n n n n '.#.].>XA.+ + y M.K.4.d 3.Q.a O.L.1 T.mXk.n n n n n n n n c m U.C.C.U.X.j.m n 9.V.m n n n ",
"n n n n n n n n n n n n n n n n m m n m rX] > .   $ a -.H.4.s *.G.d ' 1.1 W.lXk.n n n n n n n n n c x U.U.X.).oXD n x x n n n n ",
"n n n n n n n n n n n n n n n n m m m n n F.M.+ , - t l / K s U U L Y I 9 E K.8Xn n n n n n n n n n n c x .XC.T.m n n n n n n n ",
"n n n n n n n n n n n n n n n n m m m n n n ;.. - 7 8 7 0 0 5 0 * 7 ; < 8   8 jXn n n n n n n n n n n n n V.T.c n n n n n n n n ",
"n n n n n n n n n n n n n n n n n n n n n ..  1 7 = 7 7 0 * ; * o X X   X   L vXm n n n n n n n n n n n n x x n n n n n n n n n ",
"n n n n n n n n n n n n n n n n n n n n n ..= = ; 9 7 = ; * = X =   o X X   L jXm m n n n n n n n n n n n n n n n n n n n n n n ",
"n n n n n n n n n n n n n n n n n n n n n ..O ; 0 ; 1 7 o ; % O   X ;   7   d NXn m n n n n n n n n n n n n n n n n n n n n n n ",
"n n n n n n n n n n n n n n n n n n n u.= * * q q 1 ; 1 ; = o   ;   * o   O r NXn n n n n n n n n n n n n n n n n n n n n n n n ",
"n n n n n n n n n n n n n n n n m m n m.  7 o ; 0 * ; ;   ; @X:.      ; :.P.E.L D.D n n n n n n n n n n n n n n n n n n n n n n ",
"n n n n n n n n n n n n n n n n n m n <.i ; i = ; ; O * M L.NXm.*.O 6 ~  XgX+Xo Y }.m.V.F.m n n n n n n n n n n n n n n n n n n ",
"n n n n n n n n n n n n n n n n n G l.` H.o o o O =     L.NXc.n F.O / Q.dXsX+X* O   O   ( lXm m n n n n n n n n n n n n n n n n ",
"n n n n n n n n n n n n n n n n n F }.}.}.4.Y O   Y +XQ.5XF.n n m Z / E.@XP.Y   ; * O . , r.XXH m n n n n n n n n n n n n n n n ",
"n n n n n n n n n n n n n n n n d.o }.P.4.}.Y   / }.lXH c.F n n n @./ O.=.I   = @ @ , w w @ E.b.G m n n n m n n n n n n n n n n ",
"n n n n n n n n n n n n n n n l.  * O = o }.*.7 NX<Xd.n n n n n n d.:.X X   7 - X 1   1.W.  I.<XG G n m m m n n n n n n n n n n ",
"n n n n n n n n n n n n n n n Z   ; 7 0 = d i 9 ; m.F n n n n n n n m.  X %   X . , T.W %   M.yXF G m s.a.n n n n n n n n n n n ",
"n n n n n n n n n n n n n n n m.i o O q q ; * O * M |.n n n n n n n V.W %   X % . @ 1.O.( W ^.yXm m a.h.h.a.n n n n n n n n n n ",
"n n n n n n n n n n n n n n n H `.o ; O ; = o X     i 8Xn n n n n n k.,X; X @ .   % X J.bXbXlXk.v v g.f.f.g.8.8.n n n n n m n n ",
"n m n n n n n n n n n n n n n n n ).O = * o L @X4XP.t yXn n n n n n n n Z   X   . 1 |.fXH m n n n n x g.g.c h.v.m n n n n m m m ",
"m G n n m m m n n n n n n n n n n n B.M   @ k (.Q.R.oXmXn n n n n n n n B.4.4.*.:.r.bXn m m n n n n n x x n 9.f.m n n n n n G G ",
"G m n m G t.G n n n n n n n n n n n n B.          -.vXn n n n n n n n n F :XS.F.]._.c.n m m n n n n n n n n x x n n n n n n m a."
};
