/* XPM */
static char *_9fd413f63374442accbc7a6fb0521ffBn8fbbKhajPHzAgS[] = {
/* columns rows colors chars-per-pixel */
"64 64 156 2 ",
"   c None",
".  c #111111",
"X  c #191919",
"o  c gray10",
"O  c #1B1B1B",
"+  c #241415",
"@  c #251415",
"#  c #2F1B1F",
"$  c #381219",
"%  c #3D1D1A",
"&  c #1C1F32",
"*  c #381F20",
"=  c #381F21",
"-  c #391F21",
";  c #3A1F21",
":  c gray15",
">  c #272727",
",  c #282727",
"<  c #292827",
"1  c #2F2F2F",
"2  c #3A2022",
"3  c #3B2022",
"4  c #3C2123",
"5  c #392327",
"6  c #3C2224",
"7  c #3B2927",
"8  c #3C2F3C",
"9  c #353535",
"0  c #363535",
"q  c #3C3C3C",
"w  c gray24",
"e  c #411C23",
"r  c #441E23",
"t  c #441F24",
"y  c #561C27",
"u  c #571C27",
"i  c #581C27",
"p  c #581D27",
"a  c #581D28",
"s  c #591D28",
"d  c #581E28",
"f  c #681D28",
"g  c #691D28",
"h  c #691E29",
"j  c #6A1E2A",
"k  c #771D2A",
"l  c #781D2A",
"z  c #781F2A",
"x  c #452323",
"c  c #462424",
"v  c #4F2725",
"b  c #462028",
"n  c #462128",
"m  c #502725",
"M  c #502726",
"N  c #572D22",
"B  c #502826",
"V  c #5A2F23",
"C  c #5C2B28",
"Z  c #5C2C28",
"A  c #5D2C28",
"S  c #5E2C28",
"D  c #49322C",
"F  c #66212A",
"G  c #65222A",
"H  c #682C2C",
"J  c #692C2C",
"K  c #683B2F",
"L  c #6D2931",
"P  c #6F2931",
"I  c #683B30",
"U  c #693B30",
"Y  c #7B3F31",
"T  c #78462F",
"R  c #6D4338",
"E  c #794D3B",
"W  c #14324F",
"Q  c #2A2F4E",
"!  c #4D3845",
"~  c #394161",
"^  c gray29",
"/  c gray33",
"(  c #555555",
")  c #565656",
"_  c gray35",
"`  c #5A5A5A",
"'  c #6A4349",
"]  c #675657",
"[  c #785259",
"{  c #7E6F70",
"}  c gray45",
"|  c gray46",
" . c #871E2B",
".. c #881E2B",
"X. c #891E2B",
"o. c #891F2B",
"O. c #9D202D",
"+. c #AE222E",
"@. c #AF222E",
"#. c #C32430",
"$. c #C42430",
"%. c #894735",
"&. c #894736",
"*. c #894836",
"=. c #8A4937",
"-. c #88553D",
";. c #9A513D",
":. c #9C553D",
">. c #9D563D",
",. c #8F5A51",
"<. c #BF5340",
"1. c #916242",
"2. c #936443",
"3. c #936444",
"4. c #AA6648",
"5. c #BD6E49",
"6. c #BE6E4A",
"7. c #B06C50",
"8. c #B36E51",
"9. c #AA775F",
"0. c #9B7F64",
"q. c #C56F53",
"w. c #CB7E54",
"e. c #D88C5E",
"r. c #CE8A74",
"t. c #E29A67",
"y. c #E49A68",
"u. c #E69C69",
"i. c #E69C6A",
"p. c #E9AA7B",
"a. c #ECAD7C",
"s. c #927C80",
"d. c #937D81",
"f. c #947F83",
"g. c #5B8CA5",
"h. c #868584",
"j. c #A58D87",
"k. c #A68F88",
"l. c gray71",
"z. c #D4A483",
"x. c #D4A189",
"c. c #ECB789",
"v. c #EFB88A",
"b. c #F0B98C",
"n. c #F0BA8C",
"m. c #EFBF9F",
"M. c #CBBAAB",
"N. c #F4C79D",
"B. c #F6CA9F",
"V. c #CECDCD",
"C. c #F5DBC9",
"Z. c #F9EADC",
"A. c #E2E2E2",
"S. c #E4E3E3",
"D. c #E4E4E4",
"F. c gray99",
/* pixels */
"                                                                                                                                ",
"                                                                                                                                ",
"                                                                                                                                ",
"                                                                                                                                ",
"                                                                                                                                ",
"                                                                                                                                ",
"                                                                                                                                ",
"                                                                                                                                ",
"                                                                                                                                ",
"                                                                                                                                ",
"                                                                                                                                ",
"                                                                                                                                ",
"                                                                                                                                ",
"                                                                                                                                ",
"                                                                                                                                ",
"                                                                                                                                ",
"                                                                                                                                ",
"                                                                                                                                ",
"                                                                                                                                ",
"                                                                                                                                ",
"                                                                  - - m S x                                                     ",
"                                                              - - - - - m S C                                                   ",
"                                                            - - - - c c c S S -                                                 ",
"                                                          - - - c c S S S S S x                                                 ",
"                                                        - - - - m m m S S S m S -                                               ",
"                                                      8 @ - - - - - - S m S - S x                                               ",
"                                                    Q ~   - - - - - - m # B I m v                                               ",
"                                                    & ! K @ - - - I 3 { W E w.- @ @                                             ",
"                                                      V <.  r - 3 5.6 Z.g.a.p.@                                                 ",
"                                                        #.O.f t ] x.4 n.B.B.c.                                                  ",
"                                                      @.$.#.O.f k.A.] m.n.v.1.                                                  ",
"                                                    F P @.$.#.o.*.j.f.S.z.8.                                                    ",
"                                                  > > 0 P @.#.o.>.&.a d.d.u                                                     ",
"                                                  ` } > 0 l @.l 5.&.u u u u u                                                   ",
"                                                  l.F.` 5 u k i ;.>.J u u n ' i.y.                                              ",
"                                                  | D.V.[ u u u a 5.&.u n ^ h.e.i.t.                                            ",
"                                                    | C.M.,.u u f -.*.J O ) h.9.2.1.                                            ",
"                                                      i.n.N.f f  .< *.N     ) )                                                 ",
"                                                    a 8.q.r.o.o. ., R                                                           ",
"                                                  u u i o.o.o.o.P 1 q                                                           ",
"                                                  $ u u k o.o.o.q q q q                                                         ",
"                                                    $ u u k k F q q q q                                                         ",
"                                                      e e e e > 0 q q q q                                                       ",
"                                              - -   O O O O O > > q q q q                                                       ",
"                                            I - - O O O O O O O > 0 q q q                                                       ",
"                                            5.@ @ . O O O O .   O > 0 0 >                                                       ",
"                                            T       . . . .       O > >                                                         ",
"                                                                    7 D                                                         ",
"                                                                    S &.                                                        ",
"                                                                    % Y 4.                                                      ",
"                                                                      % 3.0.                                                    ",
"                                                                                                                                ",
"                                                                                                                                ",
"                                                                                                                                ",
"                                                                                                                                ",
"                                                                                                                                ",
"                                                                                                                                ",
"                                                                                                                                ",
"                                                                                                                                ",
"                                                                                                                                ",
"                                                                                                                                ",
"                                                                                                                                ",
"                                                                                                                                ",
"                                                                                                                                "
};
