/* XPM */
static char *_1f1b19255b34c58fcae03e22e85f1459u4pPRzdkloINzCS[] = {
/* columns rows colors chars-per-pixel */
"64 64 94 2 ",
"   c None",
".  c gray3",
"X  c gray6",
"o  c #111111",
"O  c #131313",
"+  c #161616",
"@  c #1C121C",
"#  c #1B1B1B",
"$  c gray11",
"%  c #1E1E1E",
"&  c #201112",
"*  c #241819",
"=  c #281A1B",
"-  c #2C191F",
";  c #311016",
":  c #341916",
">  c #391F21",
",  c #222222",
"<  c gray15",
"1  c #272727",
"2  c #312324",
"3  c #3C2227",
"4  c #252A3D",
"5  c #31283A",
"6  c #313131",
"7  c gray20",
"8  c gray24",
"9  c #4D1118",
"0  c #47181E",
"q  c #461E24",
"w  c #551920",
"e  c #571C27",
"r  c #6D1D29",
"t  c #761C23",
"y  c #731D29",
"u  c #422127",
"i  c #492524",
"p  c #4D2625",
"a  c #522329",
"s  c #5E2229",
"d  c #5D2C28",
"f  c #5F2F35",
"g  c #6E2F2E",
"h  c #66362D",
"j  c #73352F",
"k  c #643B30",
"l  c #793237",
"z  c #6A4736",
"x  c #744233",
"c  c #2A2F4E",
"v  c #353C5C",
"b  c #543A43",
"n  c gray29",
"m  c #505050",
"M  c #6F6162",
"N  c #6F747B",
"B  c #767676",
"V  c #7E7273",
"C  c #891E2B",
"Z  c #893130",
"A  c #8A3531",
"S  c #A3212D",
"D  c #854136",
"F  c #8A4836",
"G  c #844C38",
"H  c #80573B",
"J  c #A1593F",
"K  c #855641",
"L  c #A85E41",
"P  c #9A6549",
"I  c #BF6F4A",
"U  c #9D786E",
"Y  c #886B77",
"T  c #A46C7A",
"R  c #A1847C",
"E  c #B08F79",
"W  c #E69C69",
"Q  c #66808D",
"!  c #71ABD0",
"~  c #808586",
"^  c gray52",
"/  c #908283",
"(  c #A89C9D",
")  c #A0A0A0",
"_  c #B4B4B4",
"`  c #D0A78A",
"'  c #CAA993",
"]  c #EDB081",
"[  c #EFB687",
"{  c #F6CA9F",
"}  c #F4D3BD",
"|  c #8EBDD9",
" . c #D5D5D5",
".. c gray87",
/* pixels */
"                                                                                                                                ",
"                                                                                                                                ",
"                                                                                                                                ",
"                                                                                                                                ",
"                                                                                                                                ",
"                                                                                                                                ",
"                                                                                                                                ",
"                                                                                                                                ",
"                                                                                                                                ",
"                                                                                                                                ",
"                                                                                                                                ",
"                                                                                                                                ",
"                                                                                                                                ",
"                                                                                                                                ",
"                                                                                                                                ",
"                                                                                                                                ",
"                                                                                                                                ",
"                                                                                                                                ",
"                                                                                                                                ",
"                                                            > > > > &                                                           ",
"                                                        > > i d p > > &                                                         ",
"                                              v 4     > i d d p > > > > &                                                       ",
"                                              c b h > i d d p > > > > > > &                                                     ",
"                                                J G > i d d d d p > > > > &                                                     ",
"                                                  h i d d d d d d d p > > > > &                                                 ",
"                                                  i d d p > i d d d d d p > q ;                                                 ",
"                                                  5 > > > > i d d p > > > q e ;                                                 ",
"                                                  t * > > x G > i p > > > > 2 m n                                               ",
"                                                S t * > - @ k I G > > > = $ m ^ n                                               ",
"                                                0 S t * / | Q W ~ ! ( > q u m E H                                               ",
"                                                < l t * K ] { { { [ P = $ +   W W H                                             ",
"                                                o a w * M ' W W W ` V = $ +   W W H                                             ",
"                                                ..B a y g U _ _ _ R A y ;       W H                                             ",
"                                                 .) < 3 e D I L F j r T N                                                       ",
"                                                } W H   e e D I L A y Y N                                                       ",
"                                                  [ H   e r s z I L F j ;                                                       ",
"                                                        r C s < a Z F j e ;                                                     ",
"                                                      e r C s < a C C y e ;                                                     ",
"                                                    e r C s < < a C C C y ;                                                     ",
"                                                    r C C s < < 6 f C C y ;                                                     ",
"                                                      C s < < 6 8 8 f C 9                                                       ",
"                                                        o < $ < 8 8 8 8 ,                                                       ",
"                                                          . o $ 6 8 8 6 +                                                       ",
"                                                              o < < < < +                                                       ",
"                                                                  < < +                                                         ",
"                                                                  # X                                                           ",
"                                                                  d :                                                           ",
"                                                                  W H                                                           ",
"                                                                                                                                ",
"                                                                                                                                ",
"                                                                                                                                ",
"                                                                                                                                ",
"                                                                                                                                ",
"                                                                                                                                ",
"                                                                                                                                ",
"                                                                                                                                ",
"                                                                                                                                ",
"                                                                                                                                ",
"                                                                                                                                ",
"                                                                                                                                ",
"                                                                                                                                ",
"                                                                                                                                ",
"                                                                                                                                ",
"                                                                                                                                "
};
