/* XPM */
static char *b5ee556c117b42b4f14897eff54ed6e8CfzvsmT3Vxrc8Naw[] = {
/* columns rows colors chars-per-pixel */
"64 64 80 1 ",
"  c None",
". c black",
"X c #111111",
"o c #131313",
"O c #191019",
"+ c #1C121C",
"@ c #28131E",
"# c #28181F",
"$ c #1E1522",
"% c #201925",
"& c #361E20",
"* c #391F21",
"= c #232323",
"- c #272727",
"; c #2D242D",
": c #3D2022",
"> c #3A242A",
", c #322B29",
"< c #373737",
"1 c gray23",
"2 c gray24",
"3 c #4D1923",
"4 c #571C27",
"5 c #581E27",
"6 c #5D1C27",
"7 c #791B26",
"8 c #7C1D28",
"9 c #7E1F2B",
"0 c #522723",
"q c #562927",
"w c #592B27",
"e c #572C2C",
"r c #5D2C28",
"t c #473032",
"y c #622F2A",
"u c #64303C",
"i c #7A4030",
"p c #7F4539",
"a c #2A2F4E",
"s c #3B2E4B",
"d c #35324B",
"f c #363C5A",
"g c #424C6E",
"h c #4B5676",
"j c #57607E",
"k c #831E2B",
"l c #891E2B",
"z c #901F2C",
"x c #80222D",
"c c #BD232F",
"v c #C42430",
"b c #854534",
"n c #8A4836",
"m c #904C38",
"M c #963743",
"N c #AE684A",
"B c #B96B48",
"V c #85797B",
"C c #CC8A5D",
"Z c #8B92A8",
"A c #9192A9",
"S c #9893A9",
"D c #92A1B9",
"F c #98A6BD",
"G c #A0A0A0",
"H c #A9A3A4",
"J c #B4B4B4",
"K c #BCBCBC",
"L c #DAB38D",
"P c #F4C599",
"I c #F6CA9F",
"U c #BABBC8",
"Y c #C0BBC9",
"T c #C1CAD9",
"R c #C7CFDD",
"E c #ECE5E7",
"W c #F3F4F7",
"Q c #FEF9F4",
"! c #F9FAFB",
"~ c white",
/* pixels */
"                                                                ",
"                                                                ",
"                                                                ",
"                                                                ",
"                                                                ",
"                                                                ",
"                                                                ",
"                                                                ",
"                                                                ",
"                                                                ",
"                                                                ",
"                                                                ",
"                                                                ",
"                                                                ",
"                                                                ",
"                                                                ",
"                                                                ",
"                                                                ",
"                              rrrr                              ",
"                            *:rrrrrr                            ",
"                           *:wrrrrrrr                           ",
"                          **w*rrwwwrrr                          ",
"                         &&*&*rw***rrr                          ",
"                        OO+&+*r*&&*wrr                          ",
"                          +++&w&+%>&qye                         ",
"                         OO+++t;;gg$#md                         ",
"                           O+;KKKjhapBi                         ",
"                            @HEEE!Dfap                          ",
"                           zl666uTDDfaN                         ",
"                          vvlllMRDDDSaa                         ",
"                        9cvvllM~TDDAcssV                        ",
"                        <9cclM~WFDZklvc9                        ",
"                        K<9lM~!FRZ44kc9=                        ",
"                        QJ=M~!RRU44437=                         ",
"                       IPG ~!RRU4444                            ",
"                       LC  ~RRY66644                            ",
"                          4EUYllll64                            ",
"                          446llllll44                           ",
"                          56lllllll64                           ",
"                          09llllllll3                           ",
"                           X99lllllx                            ",
"                           XXX99xxx1                            ",
"                            .XX-221-                            ",
"                              .-11--                            ",
"                               ----=                            ",
"                               =---                             ",
"                                --=                             ",
"                                ,,                              ",
"                                nn                              ",
"                                bb                              ",
"                                00                              ",
"                                                                ",
"                                                                ",
"                                                                ",
"                                                                ",
"                                                                ",
"                                                                ",
"                                                                ",
"                                                                ",
"                                                                ",
"                                                                ",
"                                                                ",
"                                                                ",
"                                                                "
};
