/* XPM */
static char *_4a771c1744c454481532395de5ce40dLSfn4xyejyPXvJJm[] = {
/* columns rows colors chars-per-pixel */
"64 64 241 2 ",
"   c #030202",
".  c #0A0403",
"X  c #070807",
"o  c #0A0A04",
"O  c #0C0C0B",
"+  c #130501",
"@  c #1B0705",
"#  c #140902",
"$  c #1B0C01",
"%  c #110D0D",
"&  c #0D120D",
"*  c #1C1306",
"=  c #13130D",
"-  c #120F10",
";  c #0F1513",
":  c #141413",
">  c #1B1514",
",  c #161B15",
"<  c #1B1C16",
"1  c #1D1B1C",
"2  c #230B05",
"3  c #2E150D",
"4  c #271809",
"5  c #261914",
"6  c #211D1E",
"7  c #331814",
"8  c #15201C",
"9  c #1D211D",
"0  c #24231D",
"q  c #292618",
"w  c #2C251E",
"e  c #342314",
"r  c #382818",
"t  c #39351C",
"y  c #1D1E20",
"u  c #2A1F24",
"i  c #1F2423",
"p  c #242323",
"a  c #2A2624",
"s  c #252A24",
"d  c #2B2C24",
"f  c #2A2729",
"g  c #2C2B2B",
"h  c #342B26",
"j  c #3C2D24",
"k  c #2B3627",
"l  c #2D332A",
"z  c #33342D",
"x  c #3A362A",
"c  c #353533",
"v  c #383734",
"b  c #3B3B34",
"n  c #3C3C3B",
"m  c #432B1B",
"M  c #43341D",
"N  c #462B29",
"B  c #47352A",
"V  c #463B35",
"C  c #573D30",
"Z  c #3B443A",
"A  c #666D17",
"S  c #676D18",
"D  c #696F18",
"F  c #6C711A",
"G  c #72751B",
"H  c #75781E",
"J  c #45423B",
"K  c #4A473A",
"L  c #4D443A",
"P  c #564739",
"I  c #56523E",
"U  c #65493C",
"Y  c #62563E",
"T  c #767922",
"R  c #777B25",
"E  c #797C22",
"W  c #7A7E3D",
"Q  c #454544",
"!  c #454A43",
"~  c #4A4B44",
"^  c #484948",
"/  c #584A42",
"(  c #524D4C",
")  c #4A5247",
"_  c #54534C",
"`  c #5A564A",
"'  c #554F51",
"]  c #545452",
"[  c #5B5553",
"{  c #565B57",
"}  c #5B5B54",
"|  c #6C5249",
" . c #6A5A4D",
".. c #72584A",
"X. c #635C55",
"o. c #5E6656",
"O. c #5D645B",
"+. c #787E41",
"@. c #62635C",
"#. c #6A6759",
"$. c #726F57",
"%. c #786758",
"&. c #5D6363",
"*. c #646663",
"=. c #6C6B62",
"-. c #6E6D6C",
";. c #746965",
":. c #6B7266",
">. c #66716B",
",. c #777669",
"<. c #687170",
"1. c #747472",
"2. c #777973",
"3. c #797A77",
"4. c #7D7C7B",
"5. c #867E26",
"6. c #90783A",
"7. c #805F5A",
"8. c #836559",
"9. c #89775B",
"0. c #856B65",
"q. c #867969",
"w. c #997A68",
"e. c #827C75",
"r. c #8D7F74",
"t. c #957D76",
"y. c #7E8125",
"u. c #7D8241",
"i. c #7F8068",
"p. c #788379",
"a. c #8C8628",
"s. c #918B2B",
"d. c #848638",
"f. c #A78839",
"g. c #B48F3F",
"h. c #AA9635",
"j. c #BC9A3F",
"k. c #828543",
"l. c #898B45",
"z. c #8F924B",
"x. c #959755",
"c. c #BD9842",
"v. c #9A816B",
"b. c #90916C",
"n. c #88827A",
"m. c #988A7A",
"M. c #9B997D",
"N. c #A38D69",
"B. c #A8896A",
"V. c #A48874",
"C. c #B09577",
"Z. c #9FA166",
"A. c #A2A36A",
"S. c #A8A975",
"D. c #AEB07D",
"F. c #848484",
"G. c #848885",
"H. c #8B8986",
"J. c #8C8B8B",
"K. c #938C84",
"L. c #8D9783",
"P. c #8A9688",
"I. c #8B918C",
"U. c #979688",
"Y. c #8B9494",
"T. c #939494",
"R. c #9C9C94",
"E. c #9B9998",
"W. c #A99A8C",
"Q. c #B2948A",
"!. c #A79A95",
"~. c #A29D9D",
"^. c #9EA295",
"/. c #ACA48A",
"(. c #B4AD8D",
"). c #A9A499",
"_. c #B5A999",
"`. c #B7B79C",
"'. c #9E9EA0",
"]. c #A19FA0",
"[. c #9CA7AA",
"{. c #A5A4A3",
"}. c #A7A8A7",
"|. c #ABAAA5",
" X c #ABABAA",
".X c #B3ADA8",
"XX c #B5B2A9",
"oX c #AFB8B3",
"OX c #B3B4B3",
"+X c #B9B5B4",
"@X c #BAB9B4",
"#X c #B9BBB8",
"$X c #CEAD93",
"%X c #E0BB9E",
"&X c #CEB2AD",
"*X c #C4B9AA",
"=X c #D7B7A5",
"-X c #C4BCB7",
";X c #E0BEA5",
":X c #CCCDAF",
">X c #C9C6B9",
",X c #D8CABB",
"<X c #D6D4B9",
"1X c #E9C7AD",
"2X c #E2C8B5",
"3X c #ECD5BC",
"4X c #FAD6BB",
"5X c #BCC2C1",
"6X c #C5C4C3",
"7X c #CBC9C6",
"8X c #D5CAC6",
"9X c #D8D5C6",
"0X c #CAD3D2",
"qX c #D4D4D3",
"wX c #DCDAD4",
"eX c #DDDCDB",
"rX c #ECDCC3",
"tX c #E4DACB",
"yX c #F9DCC3",
"uX c #E4DEDA",
"iX c #DEE0DF",
"pX c #EBE5CB",
"aX c #F8E5CB",
"sX c #E9E6DA",
"dX c #F3ECD3",
"fX c #F3E9D9",
"gX c #FDF5DD",
"hX c #E1DFE0",
"jX c #DFE4E0",
"kX c #E3E4E3",
"lX c #E6E9E7",
"zX c #ECEBE5",
"xX c #EDEBEA",
"cX c #F5EEE5",
"vX c #F9F5EA",
"bX c #FCF3EC",
"nX c #ECF1F1",
"mX c #F3F4F2",
"MX c #F8F7F5",
"NX c #FCFAF4",
"BX c #FEFDFB",
/* pixels */
"G G G G G G G G G G G G G G G G G E y.E H G H E G G u.u.H d.] Q } *.@.*.F.xXG G G G G G G G G G G G G G G G G G G G G G G G G W ",
"G G G G G G G G G G G G G G G G G G E E E H A H H H [.R.k.,.i c -.2.J.J.3.6XR x.H G G G G G G G G G G G G G G G G G G G G G G M.",
"G G G G G G G G G G G G G G G G G H F H E E D k.l.E U.p n n n Q OXBXxXBXkX] ^ -.qXG G G G G G G G G G G G G G G G G G G G G G S ",
"G G G G G G G G G G G G G G G G G E E F H E k./.).:.T.kXT.{ &.OXzXBXqX{.#XT.}.{.*.@Xd.G G G G G G G G G G G G G G G G G G G G G ",
"G G G G G G G G G G G G G G G G G D H E A H M.N.XX1.E.qXI.3.G.kXNXxXxX6XOX6X@X~.Q -XMXG G H G G G G G G G G G G G G G G G G G G ",
"G G G G G G G G G G G G G G G G G G D H D D S -.v kX#XI.{  XMXMXkXeXmXmXBXNX#XJ.[ +Xx.G G G G G G G G G G G G G G G G G G G G G ",
"G G G G G G G G G G G G G G G G G G G u.u.H H 1.n kXeX{.] #XnXjXkXBXxXlXwX).6XT.[ ~ -.<XG G G G G G G G G G G G G G G G G G G G ",
"G G G G G G G G G G G G G G G G G G G R.[.T l.E.J.5X XI.] 6XmXmXlXBXBX7X>X6X~.1.( a _ BXG G G G G G G G G G G G G G G G G G G G ",
"G G G H H H G G G G G G G G G G G G G 6.L.H $.G.iXOXE.H.] ).kXsXBXeX0XOX.XNX,.X.X.J } bXG G G G G G G G G G G G G G G G G G G G ",
"G G H E y.E G G G G G G G G G G G G G S S G ) G.OX{. X}.E.} z BXkXkXMXBXzX@X,.x h w ` bXG G G G G G G G G G G G G G G G G G G G ",
"G G E E E G G G G G G G G G G G G G G H G G } J.7X}. X{.H.] V eXmXnXMX0X@Xe.K.q.e.L ` NXG G G G G G G G G G G G G G G G G G G G ",
"G G H H D G G G G G G G G G G G G G H G H G #.T.eXOX~.+XH.J J 6XlXlXlX3.J ~ *XfXfX#.L NXG G G G H H G G G G G G G G G G G G G G ",
"G G D D G G G G G G G G G G G G G G G G G G $.G.OXeX|.4.( h V kX0X X5X*.=.>XpX,XfX#./ bXH G G G E y.H H G G G H H G G G G G G G ",
"G G G G G G G G G G G G G G G G G G G G G G @.J.eXeX-XK.z ,.K.n.Y.Y.<.! } tXtX,Xn.m.).bXG G G G G E E E G G H y.E G G G G G G G ",
"G G G G G G G G G G G G G G G G G G G G H H } E.uXeX6X~.[ 8XtXv &.Y.! b [ >XtX_.e *XbXbXG G G G G D H H G H E y.G G G G G G G G ",
"G G G G G G G G G G G G G G G G G G G G G G ] '.xX~.8X8Xw !.NXV l &.oX:.:.9XfX_.$ *XbXcXd.G G G G G D D G E E H G G G G G G G G ",
"G G G G G G G G G G G G G G G G G G G G G G Q F.qX-X7X-X#.r.n.P x b zX,.` 9XdX<Xm.W._.bXG G G G G G G G G H H D G G G G G G G G ",
"G G G G G G G G G G G G G G G G G G G G G G #.4.{.uX-XU.K.P 4 %.L =.fXm.m.dXpXdXgX#./ cXG G G G G G G G G D D G G G G G G G G G ",
"G G G G G G G G G G G G G G G G G G G G G G :X1.V ).-X_.j B P m.>XtXgXdXdXdXdXdXvX .K vXG G G G G G G G G G G G G G G G G G G G ",
"G G G G G G G G G G G G G G G G G G G G G G `.4.n |.K.,. .P B Q.rXrXrXgXaXaXgX<X_.K.K.zXG G G G G G G G G G G G G G G G G G G G ",
"G G G G G G G G G G G G G G G G G G G G G G x.2.z U.` j /...C 2X2X2XrXrXrXrXaX`.q XXNXvXG G G G G G G G G G G G G G G G G G G G ",
"G G G G G G G G G G G G G G G G G G G G G G A.:., k q q j 2 3 U V.(.3XaX3XgX .I cXvXcXT G G G G G G G G G G G G H H G G G G G G ",
"G G G G G G G G G G G G G G G G G G G G G G z.*.{ ,.:.}  . ...m U v.(.v.m.q.m..XNXzXG G G G G G G G G G G G G G H y.H G G G G G ",
"G G G G G G G G G G G G G G G G G G G H G G z ) P.p.P.|.,.q.q.B C U e P  .e *XsXvXNXG G G G G G G G G G G G G G G y.y.H G G G G ",
"H G G G G H H G G G G G G G G G G G G H d.G J l & k Z o.o.K X.n./ $ $ q.,.U.h ~ MXG G G G G G G G G G G G G G G G H E E F H H H ",
"y.H G G H y.E G G G G G G G G G G H H G A.Z.@.) { *.) ! :.@.@.2./ h . K #.,.z [ BXG G G G G G G G G G G G G G G G D k.k.F E E E ",
"y.y.G H E E G G G G G G G G G G G G G G i.g G.I.G.oXO.s 1.:.) 2.v v o < v [ d O.MXG G G G G G G G G G G G G G G G u.R.[.R E H G ",
"H H G E E A G G G G G G G G G G G G G $.F. X].^.|.R.1._ l s k s c p p z 0 z = ] BXG G G G G G G G G G G G G G G G [.N.L.R H D G ",
"D D G H H D G G G G G G G G G G G G G 1 Z I.1.2.1.e.e.;.z ~ { Z { ) ! ] ! l K @.2.>XT G G G G G G G G G G G G G G L.L.D H D G G ",
"G G G D D G G G G G G G G G G G G G G o.O._ J _ ` X.;.;.w @.3.! >.p.Z 2.1.z } ) < {.mXG G G G G G G G G G G G G G S S G G G G G ",
"G G G G G G G G G G G G G G G G G G G :XO., b b j N h N > 6 < c p.P.Z R.U.z w b < |.BXG G G G G G G G G G G G G G G G G G G G G ",
"G G G G G G G G G G G G G G G G G G G G `.U.0 5 j 7 B / + > l g 3.p.) @.=.x q I K.wXNXG G G G G G G G G G G G G G G G G G G G G ",
"G G G G G G G G G G G G G G G G G G G G l.sXx . 2 7 N N 3 5 u 1 Q { ~ J I t e Y 9XbXfXR G G G G G G G G G G G G G G G G G G G G ",
"G G G G G G G G G G G G G G G G G G G G G sX$ $ 2 2 @ 2 5 5 u g y 9 Z ,.q.4 r M e _.bXx.A.G G G G G G G G G G G G G G G G G G G ",
"G G G G G G G G G G G G G G G G G G G G R tX* # + 7 2 @ % % : p p 9 5 I Y 9.9...m q._.S.G G H G G G G G G G G G G G G G G G G G ",
"G G G G G G G G G G G G G G G G G G G G l.-XB $ 2 B 4   . & , ; s 6 4 r %.3X$XV...r P cXG G G G G G G G G G G G G G G G G G G G ",
"G G G G G G G G G G G G G G G G G G G G ,.j W.P @ 7 5 * = = , O > # . (.yXC.B.$XyX..U bXG G G G G G G G G G G G G G G G G G G G ",
"G G G G G G G G G G G G G G G G G G G G r.N Q...r j x d o   & <   V m.rX4X1X%X%X4XQ.8.t.z.G G G G G G G G G G G G G G G G G G G ",
"G G G G G G G G G G G G G G G G G G G 5.t.N Q.7.U B L L w = o o # j ,X3XyX4XaX4X1X=XV.r ,XH G G G G G G G G G G G G G G G G G G ",
"G G G G G G G G G G G G G G G G G G 5.g.0.3 &X8.C e B ` ~ w o # + 5 W.aXaXyXaX4XyX$Xv.C -XH G G G H H G G G G G H G G G G G G G ",
"G G G G G G G G G G G G G G G G G G f.f.&XQ.| | / B V L J b w h % . %.0.v.1X;X$X=Xw.%.!.uXH G G G E y.H H G H H E G G G G G G G ",
"G G G G G G G G G G G G G G G G G G S f.f.sX0.P N j L _ _ [ _ X.v V e e m 8.w.w.V...0.bXd.G G H H H E E H H E E G G G G G G G G ",
"G G G G G G G G G G G G G G G G G G G S S T cX;.+ h #.4.n.n.2.2.{.e.5 + 2 C m 3 3 _.NX:XG G G H y.y.F k.+.E E A G G k.k.H G G G ",
"G G G G G G G G G G G G G G G G G G G G G x.D [ . a Q ~ ! ! ! ~ Q J a x r # m.8X-XfXd.G G G G G E E k.R.R.k.T D G G /..XT G G G ",
"G G G G G G G G G G G G G G G G G G G G G G G *.O < p 9 9 9 8 i f c 6 l a . !.(.G G G G G G G G D H L.N.N.L.+.k.H G 6.M.H G G G ",
"G G G G G G G G G G G G G G G G G G G G G G G ,.  X o X ; : ; 8 & O X     > > V 9XG G G G G G G G D S L.L.+./..XT G S S G G G G ",
"G G G G G G G G G G G G G G G G G G H G G G R p   X     O X       X 1 1 p f   J BXG G G G G G G G G G D S .XN.U.H G G G G G G G ",
"G G G G G G G G G G G G G G G G G G G G G G ;   - > X   X     X   O g 1 f g O v E.H G G G G G G G G G G G M.U.D G G G G G G G G ",
"G G G G G G G G G G G G G G G G G G G G G G c : > > %   X   O & 1 > f O p p p : X {.x.G G G G G G G G G G S S G G G G G G G G G ",
"G G G G G G G G G G G G G G G G G G G G A.b.: : % % o O       o 1   6 p 1 f f 1   T.sXG G G G G G G G G G G G G G G G G G G G G ",
"G G G G G G G G G G G G G G G G G G G G ] X 1 % > : O =   n } , : O 1 1 : f f f O  XmXG G G G G G G G G G G G G G G G G G G G G ",
"G G G G G G G G G G G G G G G G G G R d.@.  % X   % =   : @XzXo O : 6 1 p 1 g 1    XA.G G G G G G G G G G G G G G G G G G G G G ",
"G G G G G G G G G G G G G G G G G H :X{ : O 1   > 0   : |.kXH `.n   6 1 1 1 1 f -.( 3.S.H H H G G G G G G G G G G G G G G G G G ",
"G G G G G G G G G G G G G G G G G Z.3.X X   O       ~ H.xXH G G /.] X % 1 1 v *.}.p p J.F.R.).z.G G G G G G G G G G G G G G G G ",
"G G G G G G G G G G G G G G G G G b.O : %   X X : X T.NXd.G G G G (.: O : : 1.J.].n   - O      XT G G G G G G G G G G G G G G G ",
"G G G G G G G G G G G G G G G G d.p X :   X 1   p {.sXR G G G G G G U.g O ] F.}.lX@.. p f % . ( H.D.G G G G G G G G G G G G G G ",
"G G G G G G G G G G G G G G G G d O O : :       0 E.S.G G G G G G G H ^ O T.}.#XE.( p g 6 6 (   ^ xXG G G H G G G G G G G G G G ",
"G G G G G G G G G G G G G G G G Q   X O X X   : 1   J.H G G G G G G G $.X F.hX X% p f g   6 +X' X.BXG H H H G G G G G G G G G G ",
"G G G G G G G G G G G G G G G G >X{ X X O X :     X 6 ( D.G G G G G G `.OXf g v 6 z a   ~. Xf O Q bXH s.a.G G G G G G G G G G G ",
"G G G G G G G G G G G G G G G G H J.^ O   : X f c n > b kXG G G G G G G G ,   : g 1 1 X J.~.[ ^ F.NXa.j.j.a.G G G G G G G G G G ",
"G G G G G G G G G G G G G G G G F <XqX1   :   1.+X+X[ Q xXG G G G G G G G , : : : O p 1   6 BXMXxX9Xh.f.f.h.5.5.G G G G G H G G ",
"G H G G G G G G G G G G G G G G H l.Z.#XQ   X   6 = n.6XbXG G G G G G G G 0 : O O :     E.7XxXG G G S h.h.D g.c.H G G G G H H H ",
"H E G G H H H G G G G G G G G G G G G H _.{ *.1.1._ qX<XG G G G G G G G G d , :   Q 4.-.qXG G G G G G S S G 6.f.H G G G G G E E ",
"E H G H E y.E G G G G G G G G G G G G H G z.<X:XNXNXsXG G G G G G G G G G 9     X }.MXmXBXG G G G G G G G G S S G G G G G G H a."
};
