/* XPM */
static char *_fce2c9435a540a7fd55f22bc84df295zYlR5aTY3oJqRi8B[] = {
/* columns rows colors chars-per-pixel */
"64 64 229 2 ",
"   c #040403",
".  c #0C0502",
"X  c #0A0A04",
"o  c #05060A",
"O  c #070908",
"+  c #0A0A0B",
"@  c #150C08",
"#  c #1B130B",
"$  c #19140C",
"%  c #0A0D12",
"&  c #0E1213",
"*  c #131415",
"=  c #191917",
"-  c #1B1B1B",
";  c #200A00",
":  c #24160A",
">  c #231D15",
",  c #221D19",
"<  c #1C221D",
"1  c #2E2C16",
"2  c #24231D",
"3  c #292618",
"4  c #382819",
"5  c #1B1D20",
"6  c #1D2123",
"7  c #222424",
"8  c #252826",
"9  c #2C2B25",
"0  c #2B2C2A",
"q  c #342C22",
"w  c #312C29",
"e  c #3E3924",
"r  c #33322C",
"t  c #393528",
"y  c #2B3632",
"u  c #383A36",
"i  c #3E3C34",
"p  c #492C1B",
"a  c #4B3125",
"s  c #443B2A",
"d  c #433C33",
"f  c #433D39",
"g  c #3C4537",
"h  c #3D423A",
"j  c #666D17",
"k  c #676D18",
"l  c #696F19",
"z  c #6B7117",
"x  c #6C711A",
"c  c #72751B",
"v  c #75781E",
"b  c #43423E",
"n  c #494538",
"m  c #434B3D",
"M  c #564937",
"N  c #514F38",
"B  c #634836",
"V  c #777B24",
"C  c #797C22",
"Z  c #7A7E3D",
"A  c #3E3E40",
"S  c #3F4A46",
"D  c #444B45",
"F  c #494846",
"G  c #4C4A44",
"H  c #524C43",
"J  c #524D48",
"K  c #4B5244",
"L  c #485449",
"P  c #4B524C",
"I  c #575548",
"U  c #53524C",
"Y  c #5C5B4C",
"T  c #4C5851",
"R  c #535454",
"E  c #555C53",
"W  c #5B5D53",
"Q  c #5A5A59",
"!  c #645646",
"~  c #705F4D",
"^  c #625C56",
"/  c #665E5A",
"(  c #596459",
")  c #5B645C",
"_  c #68634A",
"`  c #7B674A",
"'  c #787E41",
"]  c #656255",
"[  c #63645B",
"{  c #69685C",
"}  c #776656",
"|  c #77785C",
" . c #5E5E60",
".. c #5C6762",
"X. c #656563",
"o. c #696B67",
"O. c #6A6D64",
"+. c #726B64",
"@. c #746D68",
"#. c #6C7269",
"$. c #73736D",
"%. c #787668",
"&. c #7B736C",
"*. c #6F7072",
"=. c #747474",
"-. c #777875",
";. c #7B7A75",
":. c #7C7C7B",
">. c #867E26",
",. c #90783A",
"<. c #825E4A",
"1. c #87664B",
"2. c #8C7257",
"3. c #95745B",
"4. c #857666",
"5. c #9A7762",
"6. c #837B75",
"7. c #867D78",
"8. c #A67C63",
"9. c #7E8125",
"0. c #7D802D",
"q. c #7F8230",
"w. c #7D8241",
"e. c #7C8174",
"r. c #79837C",
"t. c #8C8528",
"y. c #918B2B",
"u. c #86883B",
"i. c #A8873A",
"p. c #AA9635",
"a. c #B8943F",
"s. c #C3A53F",
"d. c #828543",
"f. c #898C46",
"g. c #8E9149",
"h. c #8E9054",
"j. c #969858",
"k. c #B29649",
"l. c #8D8C6B",
"z. c #92936C",
"x. c #82817C",
"c. c #8A8979",
"v. c #97897B",
"b. c #999779",
"n. c #A48C6B",
"m. c #A78676",
"M. c #B88C75",
"N. c #B19479",
"B. c #9FA067",
"V. c #A7AA77",
"C. c #ACAD78",
"Z. c #C29377",
"A. c #7E7D82",
"S. c #7E8180",
"D. c #838282",
"F. c #878987",
"G. c #948C87",
"H. c #8C9583",
"J. c #8B9389",
"K. c #9A9687",
"L. c #95938D",
"P. c #949393",
"I. c #969A91",
"U. c #9C9C93",
"Y. c #9D9C9B",
"T. c #A99A89",
"R. c #B39C89",
"E. c #A69D96",
"W. c #9DA49A",
"Q. c #A8A289",
"!. c #B2B08A",
"~. c #A6A49C",
"^. c #B7A89A",
"/. c #BBB999",
"(. c #9B9CA0",
"). c #9CA7AA",
"_. c #A3A3A2",
"`. c #AAA8A4",
"'. c #ABABAA",
"]. c #B2ACA4",
"[. c #B5ACA7",
"{. c #AEB4AF",
"}. c #BCB4A5",
"|. c #B1B1AB",
" X c #B4B3B2",
".X c #BAB8B3",
"XX c #BCBCBA",
"oX c #C79E8A",
"OX c #CFB299",
"+X c #E5BA9D",
"@X c #C7B8A8",
"#X c #D5BDA3",
"$X c #C6BFB5",
"%X c #BCC0B3",
"&X c #C8C5A7",
"*X c #D7C3A6",
"=X c #C6C4BB",
"-X c #D5CDBD",
";X c #E4C6A8",
":X c #E6CDB4",
">X c #BEBEC0",
",X c #C1BFC2",
"<X c #C5C3C3",
"1X c #CAC5C4",
"2X c #CCCBC5",
"3X c #CCCBCB",
"4X c #D1CCC8",
"5X c #CBD0C8",
"6X c #D7D5C8",
"7X c #DCD6CB",
"8X c #CCCDD0",
"9X c #D5D4D4",
"0X c #DAD8D5",
"qX c #DCDBDB",
"wX c #E6DACA",
"eX c #E2DCD8",
"rX c #DFE5DF",
"tX c #FAE3CA",
"yX c #E7E2DA",
"uX c #FCEAD2",
"iX c #F5EAD9",
"pX c #DFDFE1",
"aX c #E5E6E4",
"sX c #ECEAE5",
"dX c #E7E9E8",
"fX c #EBEBEB",
"gX c #F1EFEC",
"hX c #F3F4F3",
"jX c #F7FAF8",
/* pixels */
"c c c c c c c c c c c c c c c c c C 9.C v c v C c c w.w.v c c c c c v c c c c c c c v v c c c c c c c c c c c c c c c c c c c Z ",
"c c c c c c c c c c c c c c c c c c C C C v j v v v ).'.K.b.Q.q.v j.z.z.Q.V c c c c c c c c c c c c c c c c c c c c c c c c c b.",
"c c c c c c c c c c c c c c c c c v x v C C l d.f.g.`. XXX X~.:.J R A.S.=.-.b.j.c c c c c c c c c c c c c c c c c c c c c c c k ",
"c c c c c c c c c c c c c c c c c C C x v C d.Q.^.D.<XhXhXaXXXQ F R S.Y.=.R *._.V.c c c c c c c c c c c c c c c c c c c c c c c ",
"c c c c c c c c c c c c c c c c c l v C j v b.N.Y.3XhXjX9XXX XI.o.R Q P._. X8X XD.g.c c c c c c c c c c c c c c c c c c c c c c ",
"c c c c c c c c c c c c c c c c c c l v l l l Y.3XhXfXaXfXqX%X_.J.o.Q P.XXpXfX(.o.8Xc c c c c c c c c c c c c c c c c c c c c c ",
"c c c c c c c c c c c c c c c c c c c w.w.v :.<XjXhXaXfXjXhXqX X'.J.-.P. X0XpXY.=.9Xc c c c c c c c c c c c c c c c c c c c c c ",
"c c c c c c c c c c c c c c c c c c c U.).V =.3XjXfXjXhXhX9X1X X'.'._._. X9X0X'.o.8Xc c c c c c c c c c c c c c c c c c c c c c ",
"c c c v v v c c c c c c c c c c c c c ,.H.v -.<XfXhXjXhX9X<X1X0X.XY.E._.<XqXqX`.=.9Xc c c c c c c c c c c c c c c c c c c c c c ",
"c c v C 9.C c c c c c c c c c c c c c k k c P.,XfXhXhXhXqX1X4XeX|.L.7.`.1XfXdX`.D.>Xc c c c c c c c c c c c c c c c c c c c c c ",
"c c C C C c c c c c c c c c c c c v c c v D.8XqXaXdXdXdXfXsX0X].G.&.+.E..X9XhXdXXX7._.V c c c c c c c c c c c c c c c c c c c c ",
"c c v v l c c c c c c c c c c c c v c v z.6.eXqXqXrXfXjXgX2X].G.^ &.K.&.G.=XyXaX<X=.P.&Xc c c c v v c c c c c c c c c c c c c c ",
"c c l l c c c c c c c c c c c c c c c c v.+._.<X5XqXqXrX6X~.G.&.+.E.$X] $..X0XeX1X;.P.&Xc c c c C 9.v v c c c v v c c c c c c c ",
"c c c c c c c c c c c c c c c c c c c c z.F / ;.'.5X{.W.U.K.7.] }.4X].] +.].yXsX.Xo.L.!.c c c c c C C C c c v 9.C c c c c c c c ",
"c c c c c c c c c c c c c c c c c c c c z.@.L.o.r..XW.x.[ ] 6.E.=X^.] n I x.[.I.X.X.Y.C.c c c c c l v v c v C 9.c c c c c c c c ",
"c c c c c c c c c c c c c c c c c c c c l.&..XW ) W.r.( m O.~.wX7Xc.n Y Y H 6.6.^ J L.C.c c c c c c l l c C C v c c c c c c c c ",
"c c c c c c c c c c c c c c c c c c c c l.;.].^ [ J.o.L E |.0X7X6XW.W `.J.h d 7.[.+.U.&Xc c c c c c c c c v v l c c c c c c c c ",
"c c c c c c c c c c c c c c c c c c c c B.`.+.H G =.I.F.#.5XyX7X7X~.%.%XI.r J { 6.[.eXu.c c c c c c c c c l l c c c c c c c c c ",
"c c c c c c c c c c c c c c c c c c c c c V &.G b x..X|.;.%X7XwX6XQ.%.=X~.U G / L.eXv c c c c c c c c c c c c c c c c c c c c c ",
"c c c c c c c c c c c c c c c c c c c c c c j.+.^ L.5X.XH.-XiXiXiX}.b.7X.X6./ G.yXV c c c c c c c c c c c c c c c c c c c c c c ",
"c c c c c c c c c c c c c c c c c c c c c c c V K.+.%X6X=XiXuXuXuX:X@X6X^.+.~.7XC c c c c c c c c c c c c c c c c c c c c c c c ",
"c c c c c c c c c c c c c c c c c c c c c c c c 0.d 6.&XiXuXtXuXuXuXwXQ.%.H K.v c c c c c c c c c c c c c c c c v v c c c c c c ",
"c c c c c c c c c c c c c c c c c c c c c c c v d d n } @X*X;X;X*X#XR.N t d I c.v c c c c c c c c c c c c c c c v 9.v c c c c c ",
"c c c c c c c c c c c c c c c c c c c c c c v 6.@.H e e _ ` 1.1.2.` M e e W ;.+.@.0.c c c c c c c c c c c c c c c 9.9.v c c c c ",
"v c c c c v v c c c c c c c c c c c c c c c ^ &.c.{ e N } ` 3.1.2.2.M e N O.L.^ G =Xc c c c c c c c c c c c c c c v C C x v v v ",
"9.v c c v 9.C c c c c c c c c c c c c c c c U G @.c.N _ /.*X;X;X#X*Xb.n n %.%.W U |.c c c c c c c c c c c c c c c l d.d.x C C C ",
"9.9.c v C C c c c c c c c c c c c c c c v l.&.I Y e.n 1 _ b.#X:XOX4.s 1 N ;.( O.x.#.V.c c c c c c c c c c c c c c w.U.).V C v c ",
"v v c C C j c c c c c c c c c c c c c c E U x.O.{ Y m 3 > ! 4.4.~ s > t m ( [ O.;.J ) !.c c c c c c c c c c c c c ).n.H.V v l c ",
"l l c v v l c c c c c c c c c v c c c h.E E [ $.O.D m g 3 $ # ; : 3 g K m E #.-.[ [ G o.u.c c c c c c c c c c c c H.H.l v l c c ",
"c c c l l c c c c c c c c c c c c c c h #.e.O.( E #.L T ( 9 > q 3 t ( K T ) E { &.;.U ) 6Xc c c c c c c c c c c c k k c c c c c ",
"c c c c c c c c c c c c c c c c c c c e.E [ { g ( J.T T r.R f G F [ r.L ) r.K G { ] m W 6Xc c c c c c c c c c c c c c c c c c c ",
"c c c c c c c c c c c c c c c c c c c q.L 2 r 8 T r.( ( r.E R @.R o.-.P ) ;.h 9 q 3 = G 8Xc c c c c c c c c c c c c c c c c c c ",
"c c c c c c c c c c c c c c c c c c c c | X = 9 i P P P P D [ F.E D R D U U t : $ > $ b 0Xc c c c c c c c c c c c c c c c c c c ",
"c c c c c c c c c c c c c c c c c c c c Y @ > > 7 r b P U b O.H...D R D n i > : : @ > ^ 7Xc c c c c c c c c c c c c c c c c c c ",
"c c c c c c c c c c c c c c c c c c c c G = > # 3 d n ] { n ] H.E E o.P i q 3 4 e e d &.7Xc c c c c c c c c c c c c c c c c c c ",
"c c c c c c c c c c c c c c c c c c c c I X 2 # I ^.v.} ! M ^ c.E D E G d n %.v.R.^.7.+.6Xc c c c c c c c c c c c c c c c c c c ",
"c c c c c c c c c c c c c c c c c c c c {   q H T.wXR.` B M ! 4.Y L ] n s M ^.@X^.-X^.} wXc c c c c c c c c c c c c c c c c c c ",
"c c c c c c c c c c c c c c c c c c c c c.r n @XtX#X5.1.<.B } 4.I O.e.I s M v.4.! ^.T.} 6Xc c c c c c c c c c c c c c c c c c c ",
"c c c c c c c c c c c c c c c c c c c >.j.I.Y @XtX:X;X+XOXN.m.} K m I n s s M B } @XT.} wXc c c c c c c c c c c c c c c c c c c ",
"c c c c c c c c c c c c c c c c c c >.a.a.>.Q.T.OX+X+X+X+XoXm.~ I E { Y n e 4 ! m.T.v.T.wXc c c c v v c c c c c v c c c c c c c ",
"c c c c c c c c c c c c c c c c c c i.i.i.i.t.T.3.M.M.Z.M.m.5.M n ( e.{ H q n 4.^.v.[.iXv c c c c C 9.v v c v v C c c c c c c c ",
"c c c c c c c c c c c c c c c c c c k i.i.l s.i.R.1.8.M.M.<.B 4 t g m u i t t I 7.@XyXc c c c v v v C C v v C C c c c c c c c c ",
"c c c c c c c c c c c c c c c c c c c k k c p.p.l p <.3.<.p a M u D ( G h 2 2 ^ ].eXc c c c c v 9.9.x d.' C C j c c d.d.v c c c ",
"c c c c c c c c c c c c c c c c c c c c c c k k c ; a a p : p / L ..F.-.P < = ;.sXc c c c c c c C C d.U.U.d.V l c c Q.|.V c c c ",
"c c c c c c c c c c c c c c c c c c c c c v v c c @ # # : 3 q d y y S h u 7 - ;.V.c c c c c c c l v H.n.n.H.' d.v c ,.b.v c c c ",
"c c c c c c c c c c c c c c c c c c c c v v v c c @   . $ , > > 0 8 8 < 7 - * #./.c c c c c c c c l k H.H.' Q.|.V c k k c c c c ",
"c c c c c c c c c c c c c c c c c c c c c c c c c + o +       X & 6 8 < 6 * - S.C.c c c c c c c c c c j k ].n.K.v c c c c c c c ",
"c c c c c c c c c c c c c c c c c c c c c c c c c   o % O O X X 5 8 6 6 6 & & -.j.c c c c c c c c c c c c b.K.l c c c c c c c c ",
"c c c c c c c c c c c c c c c c c c c c c c c c c + o o O O + O * 5 6 - - * * -.!.c c c c c c c c c c c c k k c c c c c c c c c ",
"c c c c c c c c c c c c c c c c c c c c c c c c c O 7 0 8 7 - O * = 5 * & * A P.V.c c c c c c c c c c c c c c c c c c c c c c c ",
"c c c c c c c c c c c c c c c c c c c c c c c c v 7 $.F.D.=.F * * 7 0 7 - r _.aXV c c c c c c c c c c c c c c c c c c c c c c c ",
"c c c c c c c c c c c c c c c c c c c c c c c c v 8 P.<X.X~./ - P X. .Q D u <Xc c c c c c c c c c c c c c c c c c c c c c c c c ",
"c c c c c c c c c c c c c c c c c c c c c c c c v 7 6.|.Y.;.G 7 o._. X X-.D 3Xv c c c c c c c c c c c c c c c c c c c c c c c c ",
"c c c c c c c c c c c c c c c c c v c c c c c c c @ = w , $ $ 2 :.XX3X8XD.b .Xv c c c c c c c c c c c c c c c c c c c c c c c c ",
"c c c c c c c c c c c c c c c c c C v c c c c c h.@ . @   . . $ U $.;.x.Q 0 $.f.c c c c c c v v c c c c c c c c c c c c c c c c ",
"c c c c c c c c c c c c c c c c c c C v c c c h., w w 2   . . . & 0 b F 8 O - ;.g.c c c c c v C v c c c c c c c c c c c c c c c ",
"c c c c c c c c c c c c c c c c c x C C c c c %.G D.x.U . . .   2 Q  X|.;.* * :.j.c c c c c z 9.C v c c c v c c c c c c c c c c ",
"c c c c c c c c c c c c c c c c v x v v c c c l.r W U i X . @ , X.:.o.-.D.X.0 -.f.v c c c c c C C C c v v v c c c c c c c c c c ",
"c c c c c c c c c c c c c c c c C C x z c c c c.b F i f f f r 9 x.$.O + J D.u =.g.c c c c c c j C C v y.t.c c c c c c c c c c c ",
"c c c c c c c c c c c c c c c c v v c c c c c f.2X3X1X5X-X/.c.= - 2   O = 0 = -.g.c c c c c c z v v t.a.a.t.c c c c c c c c c c ",
"c c c c c c c c c c c c c c c c z z c c c c c c c c c c c c c - o   o     o = -.g.c c c c c c c z z p.i.i.p.>.>.c c c c c v c c ",
"c v c c c c c c c c c c c c c c c c c c c c c c c c c c c c c ] = + o   o o - -.h.c c c c c c c c c k p.p.l a.k.v c c c c v v v ",
"v C c c v v v c c c c c c c c c c c c c c c c c c c c c c c c u.D * + - 7 * 7 D.j.c c c c c c c c c c k k c ,.i.v c c c c c C C ",
"C v c v C 9.C c c c c c c c c c c c c c c c c c c c c c c c c c u.:.A.:.:.A.F. Xq.c c c c c c c c c c c c c k k c c c c c c v t."
};
