/* XPM */
static char *c6b24af1549d4d70e76a6293d5199f7cZKjJUp9aDWidZvso[] = {
/* columns rows colors chars-per-pixel */
"64 64 233 2 ",
"   c #040403",
".  c #0B0505",
"X  c #0B0A05",
"o  c #04040C",
"O  c #0B0B0A",
"+  c #140806",
"@  c #0F100A",
"#  c #11120E",
"$  c #19180B",
"%  c #0A0B11",
"&  c #100C12",
"*  c #141412",
"=  c #171713",
"-  c #1B1B16",
";  c #1C1B1B",
":  c #21170B",
">  c #31180F",
",  c #261513",
"<  c #1D2214",
"1  c #1D2119",
"2  c #282517",
"3  c #2C2415",
"4  c #22231D",
"5  c #342B1E",
"6  c #1D1D21",
"7  c #242423",
"8  c #262727",
"9  c #2B2B24",
"0  c #2C2C2A",
"q  c #312622",
"w  c #332C25",
"e  c #3B2C25",
"r  c #352E2A",
"t  c #2E3427",
"y  c #31322D",
"u  c #39372A",
"i  c #373432",
"p  c #3C3C34",
"a  c #3C3D3A",
"s  c #422818",
"d  c #4D372E",
"f  c #463A2C",
"g  c #563729",
"h  c #453B37",
"j  c #3C4233",
"k  c #3D483A",
"l  c #656C17",
"z  c #676D19",
"x  c #696E1A",
"c  c #6A7017",
"v  c #6C721A",
"b  c #72751B",
"n  c #75781F",
"m  c #79791E",
"M  c #4E4936",
"N  c #474539",
"B  c #43443C",
"V  c #554839",
"C  c #6B503C",
"Z  c #686E20",
"A  c #777A20",
"S  c #7A7C22",
"D  c #7A7824",
"F  c #737837",
"G  c #7B7E34",
"H  c #3F4042",
"J  c #454B42",
"K  c #484847",
"L  c #4C4B44",
"P  c #534C44",
"I  c #564E48",
"U  c #4A5748",
"Y  c #4D534C",
"T  c #525346",
"R  c #54534D",
"E  c #5A544D",
"W  c #545B4D",
"Q  c #5A5948",
"!  c #545554",
"~  c #575B57",
"^  c #5B5B53",
"/  c #664F41",
"(  c #6A5846",
")  c #655C4E",
"_  c #785C48",
"`  c #645C55",
"'  c #695D57",
"]  c #625C5A",
"[  c #5E6355",
"{  c #5C6656",
"}  c #73664F",
"|  c #686556",
" . c #63645C",
".. c #6B655D",
"X. c #65695C",
"o. c #726B5D",
"O. c #796A59",
"+. c #5E5F61",
"@. c #636364",
"#. c #6B6C63",
"$. c #696A68",
"%. c #736C63",
"&. c #786A64",
"*. c #6E7567",
"=. c #6D736B",
"-. c #73746B",
";. c #78776A",
":. c #7C756C",
">. c #677673",
",. c #747473",
"<. c #7A7775",
"1. c #767B72",
"2. c #7B7B74",
"3. c #7C7D7B",
"4. c #807D21",
"5. c #A57C3D",
"6. c #835F49",
"7. c #876A55",
"8. c #89725B",
"9. c #97705F",
"0. c #897766",
"q. c #977A68",
"w. c #847D75",
"e. c #7E8125",
"r. c #7E812F",
"t. c #7E8238",
"y. c #7D805B",
"u. c #7B8274",
"i. c #858226",
"p. c #818335",
"a. c #85873B",
"s. c #AB8B3B",
"d. c #B4983B",
"f. c #C1A53E",
"g. c #888A42",
"h. c #8F9153",
"j. c #AE8D4B",
"k. c #8E876D",
"l. c #9A9B64",
"z. c #83837B",
"x. c #898579",
"c. c #988876",
"v. c #959677",
"b. c #A48B65",
"n. c #A8866A",
"m. c #B68C76",
"M. c #B7927D",
"N. c #A8A875",
"B. c #C4A440",
"V. c #C1947C",
"C. c #CBB36E",
"Z. c #7F7E83",
"A. c #7E8182",
"S. c #838483",
"D. c #878786",
"F. c #8B8B83",
"G. c #8B8C8B",
"H. c #938C82",
"J. c #998E8A",
"K. c #989387",
"L. c #93928D",
"P. c #939C8C",
"I. c #8A8F90",
"U. c #959692",
"Y. c #9C9C94",
"T. c #9B9C9B",
"R. c #A69585",
"E. c #AA988C",
"W. c #9BA097",
"Q. c #ACAA87",
"!. c #A5A38B",
"~. c #B2B48A",
"^. c #ADA494",
"/. c #A2A19B",
"(. c #A9A29B",
"). c #ADA89F",
"_. c #B6A995",
"`. c #B9AA99",
"'. c #BABB95",
"]. c #9AA6A6",
"[. c #A3A4A4",
"{. c #ACABA4",
"}. c #AAA8A8",
"|. c #B1ABA6",
" X c #B2AEAA",
".X c #B9B6AB",
"XX c #B0B0B0",
"oX c #B4B3B3",
"OX c #BCB6B2",
"+X c #BAB9B8",
"@X c #C19C81",
"#X c #CAAF96",
"$X c #E0B59D",
"%X c #C8B8A6",
"&X c #D9BEA9",
"*X c #C3BDB3",
"=X c #C4BEBB",
"-X c #EABDA4",
";X c #BFC1AD",
":X c #C7C5A9",
">X c #D7C2AC",
",X c #C8C6B5",
"<X c #C5C3BC",
"1X c #CAC5BD",
"2X c #DCCAB5",
"3X c #D6C8B9",
"4X c #E4CCB5",
"5X c #EACAB1",
"6X c #BFBFC1",
"7X c #C8C9C6",
"8X c #D2CDC8",
"9X c #D4D2CE",
"0X c #DAD6C8",
"qX c #D3D3D3",
"wX c #DAD9D4",
"eX c #D7D8D9",
"rX c #E8D7C5",
"tX c #E5DCCE",
"yX c #F3D8C3",
"uX c #E1DDD3",
"iX c #FAE1CB",
"pX c #E8E3DC",
"aX c #FAE9D6",
"sX c #DEE2E5",
"dX c #E5E5E4",
"fX c #E2E6EA",
"gX c #E6E9EA",
"hX c #EBECEB",
"jX c #F5F1E8",
"kX c #EBEEF2",
"lX c #EEF0F4",
"zX c #F4F6F9",
"xX c #F7F7F8",
/* pixels */
"b b b b b b b b b b b b b b b b n e.e.A b b A n b b b b b b b b b b b b b b b b b b b b b b b b b b b b b b b b b b b b b b b F ",
"b b b b b b b b b b b b b b b b b n e.A A b x n b G ].P.l.v.v.g.b b g.h.l.r.b b b b b b b b b b b b b b b b b b b b b b b b G ^.",
"b b b b b b b b b b b b b b b b b b v A A n z b A t.oX[.}.[.}.T.v.L @.<.<.,.H.h.b b b b b b b b b b b b b b b b b b b b b b b F ",
"b b b b b b b b b b b b b b b b n e.n x A A G {.!.p.A.qXxXxXdX3.L H $.I.I.@.L @.<Xb b b b b b b b b b b b b b b b b b b b b b v ",
"b b b b b b b b b b b b b b b b b v A n x p.^.b.b.}.qXfXlXeX+X}.U.@.L ,.U.T.oX7XS./.b b b b b b b b b b b b b b b b b b b b b b ",
"b b b b b b b b b b b b b b b b b v x n l z F *XT.sXxXkXxXfX8X+X[.D.L @.T.7XsXdX=.<.'.b b b b b b b b b b b b b b b b b b b b b ",
"b b b b b b b b b b b b b b b b b b b b b b v ,.eXxXfXsXkXlXxX6X[.XXA.=.T.qXdXqX,.S.,Xb b b b b b b b b b b b b b b b b b b b b ",
"b b b b b b b b b b b b b b b b b b G ].P.b D S.eXfXfXfXxXkXeX+XXX[.[.{.[.}.qXeX,.D.'.b b b b b b b b b b b b b b b b b b b b b ",
"b b b b b b b b b b b b b b b b b b D b.P.b t.S.qXgXxXxXlXqX7XqXqXXX/.U.oXqXwXwX,.D.:Xb b b b b b b b b b b b b b b b b b b b b ",
"b b b S e.S b b b b b b b b b b b b b z x b p.D.7XxXxXkXlXqX+XpXwX{.F.L. XwXxX9XD.L.<Xb b b b b b b b b b b b b b b b b b b b b ",
"b b A S e.b b b b b b b b b b b b b b b b b (.qXgXkXxXhXhXlXdX<X Xz.E #.(.1XpXxX9X[.D.n b b b b b b b b b b b b b b b b b b b b ",
"b b A n x b b b b b b b b b b b b b b b b ;.|.uXeXdXhXhXhXjX9X(.x...H.H.w.[.1X9XxXOX,.1Xb b b b b b b b b b b b b b b b b b b b ",
"b b z x b b b b b b b b b b b b b b b b b k.L.OX7XqXeXgXhX7XY.x.o.| .X).` x.*XpXpX{.-.1Xb b b n e.S b b b b b b b b b b b b b b ",
"b b b b b b b b b b b b b b b b b b b b b :.L R L.+X9XOX/.{.H.P o.*XtXE...H.1XpXpX|.2.1Xb b b b n e.A A b b n e.S b b b b b b b ",
"b b b b b b b b b b b b b b b b b b b b b ;.:.x.%./.OXY.;...;.x.^.3XK.) V ` K.*XH.-.#.<Xb b b b b v A A b b S e.b b b b b b b b ",
"b b b b b b b b b b b b b b b b b b b b b |  X.XE z./.z.T j ;.*XtX3X) f M V ' w.` R ^ <Xb b b b b v z x b A A A b b b b b b b b ",
"b b b b b b b b b b b b b b b b b b b b b ../.Y.` F.L.^ B *.;XwX0X1X%.;.).%.u I |.Y.%.=Xb b b b b b b b b A n x b b b b b b b b ",
"b b b b b b b b b b b b b b b b b b b b b l.G.=.L P :.Y.*.1.7XuXuX8X%.x.<X..w E &.x.OXl.b b b b b b b b b z x b b b b b b b b b ",
"b b b b b b b b b b b b b b b b b b b b b b g. .B I w.<Xu.z.8XuXtX0X:.H..X:.E I ` (.:Xb b b b b b b b b b b b b b b b b b b b b ",
"b b b b b b b b b b b b b b b b b b b b b b b ).] :.(.0XK.K.0XpXaXrXc.^.8X(.w.` .X~.b b b b b b b b b b b b b b b b b b b b b b ",
"b b b b b b b b b b b b b b b b b b b b b b b b N.%.w.3X,X3XaXaXiXiX%X3XtXH.%. X:Xb b b b b b b b b b b b b b b b b b b b b b b ",
"b b b b b b b b b b b b b b b b b b b b b b b b b o.P H.tXjXaXaXiXaXaXrX^.E ` <Xb b b b b b b b b b b b b b b b b b b b b b b b ",
"b b b b b b b b b b b b b b b b b b b b b b b b g.u u M E.2X2X4X4X4X4XR.I e i R h.b b b b b b b b b b b b b b b S S b b b b b b ",
"b b b b b b b b b b b b b b b b b b b b b b b v.2.| T 5 V O.8.8.8.7.7.V f P ..2.] K.b b b b b b b b b b b b b b n e.S b b b b b ",
"b b b b b b b b b b b b b b b b b b b b b b p.J F.z.Q u M C _ _ _ _ C M e E 2.S.a @.:Xb b b b b b b b b b b b b b A A A b b b b ",
"S b b b n e.S b b b b b b b b b b b b b b b a.Y *.z.| V c.%X2X4X4X>X>Xc.N :.z.~ y $.<Xb b b b b b b b b b b b b b x A n x A S e.",
"e.S b b S e.b b b b b b b b b b b b b b b b 2.1.X.1.| u f O._.2X2X`.O.f w ;.-.! 1.,.1.b b b b b b b b b b b b b b G ].P.A A A b ",
"A A b A n x b b b b b b b b b b b b b b b k #.z.W { | N : 3 | v.c.8.3 : N ^ ^  .S.-.L F.b b b b b b b b b b b b G Y.b.W.A n x b ",
"z x b A n z b b b b b b b b b b b b b b J ~ #.X.*.{ T j N 5 $ $ + : 2 u N L  .-. . .^ y z.n b b b b b b b b b b G ].P.Z n x b b ",
"b b b z x b b b b b b b b b b b b b b r.k -.-.[ W { { T Q N 4 < - 3 | [ N W  .[  .-.2.p 3.0Xb b b b b b b b b b b Z x b b b b b ",
"b b b b b b b b b b b b b b b b b b b G B W #.X.W *.u.{ -.#.J j N u *.X.W 1.=.J  .-.|  .U.:Xb b b b b b b b b b b b b b b b b b ",
"b b b b b b b b b b b b b b b b b b b g.4 y t 5 t u.u.U u.1.Y =.@.W u.1.Y 2.1.y y 9 B {.0XD b b b b b b b b b b b b b b b b b b ",
"b b b b b b b b b b b b b b b b b b b g.* , * - t U U U W Y ! 3.>.~ ~ ! L ^ j 1 1 - 0  Xb b b b b b b b b b b b b b b b b b b b ",
"b b b b b b b b b b b b b b b b b b b a.+ + + $ 3 u j k U L ! G.I.U J L N h 2 $ - * 8  Xb b b b b b b b b b b b b b b b b b b b ",
"b b b b b b b b b b b b b b b b b b b p.h e 5 3 3 < t U X.[ ~ L.D.W  ...V 5 2 $ 1 # 7 oXb b b b b b b b b b b b b b b b b b b b ",
"b b b b b b b b b b b b b b b b b b b A &.J._.R.o.N t j W Y R L.u.T I O.0.R.o.2 - @ 8 oXb b b b b b b b b b b b b b b b b b b b ",
"b b b b b b b b b b b b b b b b b b b r.q.>X%X%X`.) u j [ ^ L :.0.V V ( c.4X`.I w X 7 }.b b b b b b b b b b b b b b b b b b b b ",
"b b b b b b b b b b b b b b b b b b b G 0.>X7._ R.( u T u.;.^ o.} ( _ C 7.#XyX2XN - L =Xb b b b b b b b b b b b b b b b b b b b ",
"b b b b b b b b b b b b b b b b b b b p._ &Xq.C / f w p Q M M | 8.n.#X$X$X5XyX2X) ^  X'.b b b b b b b b b b b b b b b b b b b b ",
"b b b b b b b b b b b b b b b b b b 4.C.c._.M._ f e f P | Q T ) 8.@X$X5X-X5X&X#Xx.K.uXb b b b b b b b b b b b b b b b b b b b b ",
"b b b b b b b b b b b b b b b b b S d.5.%X0.E.E.V e i  .F.*.U N C n.V.V.V.m.q.q.3X'.b b b b b b n e.S b b b b n S b b b b b b b ",
"b b b b b b b b b b b b b b b b b b D j.s.:XR.( h e i p B B j 3 s 6.m.m.M.7.q.>Xp.b b b b b b b b n e.A A b S S b b b b b b b b ",
"b b b b b b b b b b b b b b b b b b b x x 4.C.O.u q p B R J i N d g _ 9.q.g 0.%Xb b b b b b b S e.S v n x A n x b b b b b b b b ",
"b b b b b b b b b b b b b b b b b b b b b b x Q.w * i #.U.u.Y  .) > s g V > &.N.b b b b b b b n e.A t.].P.A n z b G {.!.b b b b ",
"b b b b b b b b b b b b b b b b b b b b b b b b L 4 y a L L a a N q , : > + ' ~.b b b b b b b b v t.Y.b.b.P.x b b D b.!.b b b b ",
"b b b b b b b b b b b b b b b b b b b b b b b b 9 1 t 4 4 8 7 7 6 , , + . . ] ~.b b b b b b b b v z F ].P.F {.!.b b z x b b b b ",
"b b b b b b b b b b b b b b b b b b b b b b b b y * * * 9 7 * % o o O . . + @.~.b b b b b b b b b b v Z F ^.b.!.b b b b b b b b ",
"b b b b b b b b b b b b b b b b b b b b b b b b N O * 9 8 ; 6 % o % %   &   ~ ~.b b b b b b b b b b b b G  X!.x b b b b b b b b ",
"b b b b b b b b b b b b b b b b b b b b b b b b B * * - 8 0 & O % % o o & o +.~.b b b b b b b b b b b b b Z x b b b b b b b b b ",
"b b b b b b b b b b b b b b b b b b b b b b b b X.# O * * 7 * X O * 6 6 8 O +.~.b b b b b b b b b b b b b b b b b b b b b b b b ",
"b b b b b b b b b b b b b b b b b b b b b b b b h.p * ; - 7 ; X 8 @.D.D.Z.0 +.~.b b b b b b b b b b b b b b b b b b b b b b b b ",
"b b b b b b b b b b b b b b b b b b b b b b b b b k.; L ~ ! J ; i D.XX+X+XL ~ .Xb b b b b b b b b b b b b b b b b b b b b b b b ",
"b b b b b b b b b b b b b b b b b b b b b b b b b h.y L.oX/.3.0 8 3.XX+X[.h ] ,Xb b b b b b b b b b b b b b b b b b b b b b b b ",
"b b b b b b b b b b b b b b b b b b b b b b b b b h.B oXqX7XT.0 X * 9 r q # ] %Xb b b b b b b b b b b b b b b b b b b b b b b b ",
"b b b b b b b b b b b b b b b b n S b b b b b b b y.y 2.L.G.$.7     X X + + h J.b b b b b b b b b b b b b b b b b b b b b b b b ",
"b b b b b b b b b b b b b b b b b n S b b b b b a.# - 0 y 9 X   X X X # 5 2 , h l.b b b b b A A b b b b b b b b b b b b b b b b ",
"b b b b b b b b b b b b b b b b b b A A b b b b p @ a U.+X3.0 X X   X r :.J.' I =Xb b b b b v e.S b b b b b b b b b b b b b b b ",
"b b b b b b b b b b b b b b b b b v A A b b b b B J 2.z.S.S. .4 X . . 9 ` ..N L OXb b b b b n e.A A b b b A b b b b b b b b b b ",
"b b b b b b b b b b b b b b b n S n c c b b b b a U.T.p   L U.a O 0 9 r r q r P 1Xb b b b b b v A A n S A b b b b b b b b b b b ",
"b b b b b b b b b b b b b b b b A A b b b b b b i 4 7 X   O 0 # a T.=X7X8X1X=X1Xl.b b b b b b v A A i.f.d.b b b b b b b b b b b ",
"b b b b b b b b b b b b b b b b c c b b b b b b i X O   X X     ! 7Xb b b b b b b b b b b b b b c m d.5.s.d.b b b b b b b b b b ",
"b b b b b b b b b b b b b b b b b b b b b b b b y *         X y <.;Xb b b b b b b b b b b b b b b b A B.d.A j.s.b b b b b A b b ",
"n S b b b b b b b b b b b b b b b b b b b b b b B X * # * ; 0 [.wXS b b b b b b b b b b b b b b b b b x x A 5.d.b b b b b n S n ",
"A A b b S e.S b b b b b b b b b b b b b b b b b v.$.@.@.@.@.<.9Xb b b b b b b b b b b b b b b b b b b b b b z x b b b b b b A i."
};
