/* XPM */
static char *d3c43981f4754d7dc85724b80f17a459jQQP0cerw7N6LYk2[] = {
/* columns rows colors chars-per-pixel */
"64 64 171 2 ",
"   c None",
".  c black",
"X  c #0B0B0B",
"o  c gray5",
"O  c #101010",
"+  c gray7",
"@  c gray9",
"#  c #181018",
"$  c #191019",
"%  c #1C121C",
"&  c #1B1B1B",
"*  c #24151D",
"=  c #25161E",
"-  c #241E1C",
";  c #2D1A1F",
":  c #341117",
">  c #3C131B",
",  c #381A18",
"<  c #1F1724",
"1  c #221722",
"2  c #221922",
"3  c #2A1C24",
"4  c #351D20",
"5  c #361E21",
"6  c #381E21",
"7  c #391F21",
"8  c #3A1F21",
"9  c #1F2239",
"0  c #202020",
"q  c #232323",
"w  c #252525",
"e  c #272727",
"r  c #2D2D2D",
"t  c #3A2021",
"y  c #3E2124",
"u  c #32212A",
"i  c #342B29",
"p  c #262334",
"a  c #343434",
"s  c #353535",
"d  c gray21",
"f  c #3A3A3A",
"g  c gray23",
"h  c gray24",
"j  c #40151D",
"k  c #401E1C",
"l  c #54141C",
"z  c #58181F",
"x  c #44201D",
"c  c #531B25",
"v  c #571C27",
"b  c #5A1A21",
"n  c #5C1C27",
"m  c #5E1C28",
"M  c #641D28",
"N  c #6B1D29",
"B  c #7C1B27",
"V  c #761C28",
"C  c #791D28",
"Z  c #7B1E2A",
"A  c #7C1D2A",
"S  c #402122",
"D  c #432223",
"F  c #442323",
"G  c #462424",
"H  c #472424",
"J  c #492727",
"K  c #4F2725",
"L  c #4A2927",
"P  c #442128",
"I  c #4F2928",
"U  c #512623",
"Y  c #532B20",
"T  c #522826",
"R  c #582A27",
"E  c #5A2B27",
"W  c #5B2F24",
"Q  c #552A2A",
"!  c #572F28",
"~  c #5C2B28",
"^  c #5D2C28",
"/  c #5F3225",
"(  c #4D2132",
")  c #4F3336",
"_  c #7E212C",
"`  c #7F222D",
"'  c #6F2F37",
"]  c #75453E",
"[  c #2A2F4E",
"{  c #392D4A",
"}  c #373B57",
"|  c #343958",
" . c #5A2C45",
".. c #473B46",
"X. c #443648",
"o. c #533E46",
"O. c #682B42",
"+. c #5C565C",
"@. c gray36",
"#. c #424B6B",
"$. c #424C6E",
"%. c #57607E",
"&. c #7A6C7F",
"*. c gray44",
"=. c gray49",
"-. c #830828",
";. c #8C1528",
":. c #811F2B",
">. c #841E2A",
",. c #891E2B",
"<. c #901A23",
"1. c #911F2C",
"2. c #941F2C",
"3. c #82212D",
"4. c #90202C",
"5. c #952A35",
"6. c #A1202D",
"7. c #A9232F",
"8. c #BC232F",
"9. c #B42334",
"0. c #BF2330",
"q. c #C22430",
"w. c #C42430",
"e. c #C62D38",
"r. c #844434",
"t. c #8A4836",
"y. c #8F503E",
"u. c #AC4F3E",
"i. c #B14F3E",
"p. c #A45C40",
"a. c #93795F",
"s. c #BD6C49",
"d. c #995E63",
"f. c #9A516A",
"g. c #A2576F",
"h. c #AA8C6E",
"j. c #CC946A",
"k. c #6C728B",
"l. c #DC7C83",
"z. c #76829C",
"x. c #838383",
"c. c #9A8794",
"v. c #A18895",
"b. c #AE8896",
"n. c #B7A89B",
"m. c #909CB3",
"M. c #9FA2AB",
"N. c #92A1B9",
"B. c #97A5BC",
"V. c #BAB4AE",
"C. c #C1B0B4",
"Z. c #F5C69A",
"A. c #A7B3C7",
"S. c #BAB7C5",
"D. c #B4BBCC",
"F. c #B2BDCF",
"G. c #B7C1D2",
"H. c #CBC9C7",
"J. c #C2C8D6",
"K. c #C4C8D6",
"L. c #C7CFDD",
"P. c #D2D1D6",
"I. c #D6DBE4",
"U. c #D8DEE6",
"Y. c #DADFE8",
"T. c #F1E6E9",
"R. c #E9ECF1",
"E. c #ECEEF3",
"W. c #EEF0F5",
"Q. c #FBFBFC",
"!. c #FDFDFE",
/* pixels */
"                                                                                                                                ",
"                                                                                                                                ",
"                                                                                                                                ",
"                                                                                                                                ",
"                                                                                                                                ",
"                                                                                                                                ",
"                                                                                                                                ",
"                                                                                                                                ",
"                                                                                                                                ",
"                                                                                                                                ",
"                                                                                                                                ",
"                                                                                                                                ",
"                                                                                                                                ",
"                                                                                                                                ",
"                                                                                                                                ",
"                                                                                                                                ",
"                                                                                                                                ",
"                                                              ^ ^ ^ x                                                           ",
"                                                          t H ^ ^ ^ ^ ^ x                                                       ",
"                                                        t H E ^ ^ ^ ^ ^ ^ x                                                     ",
"                                                      6 D K F ^ ~ E E E ^ ^ k                                                   ",
"                                                    5 5 6 5 F ~ K 6 6 F ^ ^ k                                                   ",
"                                                  $ $ * ; * F T 6 5 5 D E ^ x                                                   ",
"                                                      % % * D I u < * 6 J Q U ,                                                 ",
"                                                    $ $ % % 3 ..$.} 1 L ] p                                                     ",
"                                                        $ 2 +.M.%.#.X.y.p.Y                                                     ",
"                                                          o.C.T.U.z.| X.!                                                       ",
"                                                    s.u.1.;.-.f.F.N.z.| 9                                                       ",
"                                                    i.6.w.9.g.G.N.N.m.k.[  .<.                                                  ",
"                                                  d.w.w.e.l.E.F.N.m.&.( { O.q.7.z                                               ",
"                                                  4.0.e.l.Q.I.B.m.&.v M 2.8.7.' a                                               ",
"                                                  y 5.l.!.Y.A.D.&.v v v M :.' *.x.                                              ",
"                                                    =.!.R.L.J.c.v v v v c P @.H.V.                                              ",
"                                                    !.R.L.J.c.v v v v v >     n.Z.h.                                            ",
"                                                    W.L.K.v.m m m m n v j       j.a.                                            ",
"                                                    P.S.b.,.,.,.,.,.A n v >                                                     ",
"                                                      N ,.,.,.,.,.,.,.A n >                                                     ",
"                                                      ,.,.,.,.,.,.,.,.,.V :                                                     ",
"                                                      B ,.,.,.,.,.,.,.>.l                                                       ",
"                                                        3.,.,.,.,.>.C b o                                                       ",
"                                                        ) _ _ _ C b O O X                                                       ",
"                                                        r f h a q O X .                                                         ",
"                                                        e r f a & .                                                             ",
"                                                        q e e e &                                                               ",
"                                                          e e e @                                                               ",
"                                                          q e &                                                                 ",
"                                                            i -                                                                 ",
"                                                            t./                                                                 ",
"                                                            r.W                                                                 ",
"                                                            U ,                                                                 ",
"                                                                                                                                ",
"                                                                                                                                ",
"                                                                                                                                ",
"                                                                                                                                ",
"                                                                                                                                ",
"                                                                                                                                ",
"                                                                                                                                ",
"                                                                                                                                ",
"                                                                                                                                ",
"                                                                                                                                ",
"                                                                                                                                ",
"                                                                                                                                ",
"                                                                                                                                ",
"                                                                                                                                "
};
