/* XPM */
static char *c59b6b1d144f4a86cc537a5cb79a7c6fX6UIi37k7yKU8II8[] = {
/* columns rows colors chars-per-pixel */
"64 64 232 2 ",
"   c #040302",
".  c #090403",
"X  c #030904",
"o  c #0B0A05",
"O  c #070A09",
"+  c #0C0B0B",
"@  c #180A03",
"#  c #110D0C",
"$  c #0C110B",
"%  c #131001",
"&  c #15130D",
"*  c #0D1110",
"=  c #141312",
"-  c #151A17",
";  c #1A1C15",
":  c #1C1C1B",
">  c #23110F",
",  c #281C16",
"<  c #1C231A",
"1  c #28271B",
"2  c #352919",
"3  c #3B301C",
"4  c #241E22",
"5  c #192620",
"6  c #222322",
"7  c #232A25",
"8  c #2A2A24",
"9  c #2B2B2A",
"0  c #342D27",
"q  c #2C3226",
"w  c #2C312B",
"e  c #32332B",
"r  c #363629",
"t  c #2D3832",
"y  c #343531",
"u  c #3B3733",
"i  c #353B32",
"p  c #3B3B33",
"a  c #3C3C3A",
"s  c #4A2F1E",
"d  c #52261E",
"f  c #4F2D27",
"g  c #582C26",
"h  c #46382B",
"j  c #58322B",
"k  c #463D37",
"l  c #533A35",
"z  c #683C35",
"x  c #7A3433",
"c  c #3D423A",
"v  c #3C4439",
"b  c #666D17",
"n  c #676D18",
"m  c #696F18",
"M  c #6B7117",
"N  c #6C711A",
"B  c #72751B",
"V  c #75781E",
"C  c #43423C",
"Z  c #49443B",
"A  c #44493D",
"S  c #4A4A3D",
"D  c #554933",
"F  c #56443A",
"G  c #65433A",
"H  c #75423E",
"J  c #747720",
"K  c #797C22",
"L  c #7B7E29",
"P  c #767B30",
"I  c #3C4942",
"U  c #444342",
"Y  c #4C4644",
"T  c #444A43",
"R  c #4C4C44",
"E  c #4B4B4B",
"W  c #554B44",
"Q  c #5C4B43",
"!  c #534D4C",
"~  c #4C5145",
"^  c #4D554C",
"/  c #53534E",
"(  c #5B5349",
")  c #5B5449",
"_  c #53594D",
"`  c #545453",
"'  c #595854",
"]  c #5A5959",
"[  c #674A45",
"{  c #675849",
"}  c #77544E",
"|  c #695952",
" . c #635E5C",
".. c #5C6356",
"X. c #5D635B",
"o. c #787E41",
"O. c #6D6C52",
"+. c #63645E",
"@. c #696658",
"#. c #63695E",
"$. c #77645A",
"%. c #5F6561",
"&. c #636363",
"*. c #6A6561",
"=. c #646B63",
"-. c #6A6D65",
";. c #6C6C6B",
":. c #6B7365",
">. c #6D726C",
",. c #757469",
"<. c #73736C",
"1. c #76776D",
"2. c #747673",
"3. c #7B7573",
"4. c #757A72",
"5. c #7C7B75",
"6. c #7D7D7D",
"7. c #867E26",
"8. c #90783A",
"9. c #864946",
"0. c #914A4B",
"q. c #91514F",
"w. c #A25C5A",
"e. c #856A57",
"r. c #84715B",
"t. c #856D63",
"y. c #887367",
"u. c #857B76",
"i. c #927C75",
"p. c #7E8125",
"a. c #7E812F",
"s. c #7D8241",
"d. c #7A8274",
"f. c #7F807B",
"g. c #8C8628",
"h. c #918B2B",
"j. c #84863A",
"k. c #A78739",
"l. c #AA9635",
"z. c #B9963F",
"x. c #828643",
"c. c #898C46",
"v. c #8F914D",
"b. c #95985A",
"n. c #BD9842",
"m. c #8B826A",
"M. c #979965",
"N. c #88837D",
"B. c #98847C",
"V. c #9A977A",
"C. c #A28D6A",
"Z. c #9FA17A",
"A. c #A3A471",
"S. c #C2AF76",
"D. c #888784",
"F. c #8C8C8B",
"G. c #948B87",
"H. c #8D9684",
"J. c #8E938C",
"K. c #94928D",
"L. c #999A89",
"P. c #8F9190",
"I. c #939493",
"U. c #989793",
"Y. c #9B9B93",
"T. c #9C9C9A",
"R. c #A68E81",
"E. c #A9958C",
"W. c #B69D8F",
"Q. c #A49D9B",
"!. c #9EA088",
"~. c #9CA498",
"^. c #ADA28E",
"/. c #B6A78A",
"(. c #B6B788",
"). c #A4A29D",
"_. c #B9BA94",
"`. c #9CA5A7",
"'. c #A4A4A5",
"]. c #ABA5A3",
"[. c #AAA9A6",
"{. c #ABACAB",
"}. c #B0ADAA",
"|. c #ADB0AA",
" X c #B4B1A9",
".X c #AEAFB1",
"XX c #ADB2B2",
"oX c #B4B3B3",
"OX c #B9B7B5",
"+X c #BCBCBB",
"@X c #C3BCBB",
"#X c #D2BCB1",
"$X c #BFC4AF",
"%X c #C5C19C",
"&X c #CAC8A6",
"*X c #C5C2BF",
"=X c #D9CCB8",
"-X c #B9BEC1",
";X c #C5C4C3",
":X c #CAC8C3",
">X c #CCCCCB",
",X c #D4CDCB",
"<X c #D8D7CA",
"1X c #CDCED0",
"2X c #CCD0D1",
"3X c #D4D3D2",
"4X c #D8D8D6",
"5X c #D8D8D7",
"6X c #DDDDDC",
"7X c #E4DFCB",
"8X c #ECDED2",
"9X c #E2DDDB",
"0X c #E7E0CC",
"qX c #E4E3D6",
"wX c #E4E2DD",
"eX c #DFE3E2",
"rX c #E4E4E4",
"tX c #EBE6E4",
"yX c #EBEAE5",
"uX c #E5E9E9",
"iX c #EDECEB",
"pX c #F8EDE6",
"aX c #F3EEEC",
"sX c #EEF0EF",
"dX c #F4F1ED",
"fX c #FAF6EE",
"gX c #EFF1F0",
"hX c #F4F4F3",
"jX c #FAF7F6",
"kX c #FCFAF6",
"lX c #F7F9F9",
"zX c #FCFDFC",
/* pixels */
"B B B B B B B B B B B B B B B B B K p.K V V V K V B OX[.;XdXv.c.B B B B B B B B B B B B B B B B B B B B B B B B B B B B B B B P ",
"B B B B B B B B B B B B B B B B B B K K K V n K V -.%.&.D.3Xj.U ` ] &.A.B V B B B B B B B B B B B B B B B B B B B B B B B B B V.",
"B B B B B B B B B B B B B B B B B V N V K K m b.I.6XiXiXoX] E ! I.P.2.` ] I.&XB B B B B B B B B B B B B B B B B B B B B B B B n ",
"B B B B B B B B B B B B B B B B B K K N V K b.D.{.lXrXrXoX;.&.E ;.F.F.] ;.'.oXb.B B B B B B B B B B B B B B B B B B B B B B B B ",
"B B B B B B B B B B B B B B B B B m V K b L 2.uXuXzX6X+X{.{.D.` U 6.oX>X3X:XE '.L B B B B B B B B B B B B B B B B B B B B B B B ",
"B B B B B B B B B B B B B B B B B B m V J U.rXzXuXeXzXgX6X{.T.I.` 6.{.:XrX+XE {.<XB B B B B B B B B B B B B B B B B B B B B B B ",
"B B B B B B B B B B B B B B B B B B B s.&.`.zX6XzXrXzXzX5XT.OXU.D.I.'.>X6X;X! {.qXB B B B B B B B B B B B B B B B B B B B B B B ",
"B B B B B B B B B B B B B B B B B B B Y.&.'.hXuXuXzXsX6X;X*X[.'.oX{.{.+X3X>X/ }.yXB B B B B B B B B B B B B B B B B B B B B B B ",
"B B B V V V B B B B B B B B B B B B B e.&.U.iXkXgXzX6X*X+XiX1X[.'.'.+X3XrXoX! ].dXB B B B B B B B B B B B B B B B B B B B B B B ",
"B B V K p.K B B B B B B B B B B B B B P I..XyXlXzXrXrX3X5XhX3X:X'.oX>X5XiX3XF.].;XB B B B B B B B B B B B B B B B B B B B B B B ",
"B B K K K B B B B B B B B B B B B B V +.5XrXyXyXiXyXjXzXhXyXyX5XOX1X3XrXdXaXtXF.<.<XB B B B B B B B B B B B B B B B B B B B B B ",
"B B V V m B B B B B B B B B B B B B v.' 6X6X5XrXyXjXzXrX6XhXkX>X.X3XrXhXiX9XrXF.<.zXB B B B B B V V B B B B B B B B B B B B B B ",
"B B m m B B B B B B B B B B B B B B j./ D.Y.@XdXtXwXdX1X>XzXrX;X'.1XrXzXrX3XyXK.u.kXB B B B B B K p.V V B B B V V B B B B B B B ",
"B B B B B B B B B B B B B B B B B B K Z k *.].aXtX9X,X+X;XjXyX5X+X1XeXzXjXwX:XN.3.aXB B B B B B B K K K B B V p.K B B B B B B B ",
"B B B B B B B B B B B B B B B B B B j.@.*XG.| 9XaX,X[.9XhX6X5XrXyX6XiXyX6XK.p Y D.fXB B B B B B B m V V B V K p.B B B B B B B B ",
"B B B B B B B B B B B B B B B B B B a.! <XG.Y @X5XtX3X6XrX6X3X3XlXiX6XtXQ.+.K.+.*.yXB B B B B B B B m m B K K V B B B B B B B B ",
"B B B B B B B B B B B B B B B B B B c. .@X3.Y @X,XjXzXrX5X6XXX.XzXrX3XtX3.Y ,XU.5.fXB B B B B B B B B B B V V m B B B B B B B B ",
"B B B B B B B B B B B B B B B B B B V 9X .k  .5XhXzXhXuX2X{..X-XzXiX6X9X5.a ' U.dXb.B B B B B B B B B B B m m B B B B B B B B B ",
"B B B B B B B B B B B B B B B B B B B a.U.;.! ;X9XyXjXrX:X{.+X5XzXrX5X3X&.Y K.:Xc.B B B B B B B B B B B B B B B B B B B B B B B ",
"B B B B B B B B B B B B B B B B B B B B A.[.&.K.@XjXtX3X;XoX3XzXkXrX>XU.;.D.kXK B B B B B B B B B B B B B B B B B B B B B B B B ",
"B B B B B B B B B B B B B B B B B B B B B L OXk D.tX,X@X].].@XaXiXhXoXp T.kXK B B B B B B B B B B B B B B B B B B B B B B B B B ",
"B B B B B B B B B B B B B B B B B B B B B B V }.D.K.9XQ.3.,XQ.K.iX).5.oX5XK B B B B B B B B B B B B B B B B B B V V B B B B B B ",
"B B B B B B B B B B B B B B B B B B B B B B B _.5.e Q.<. .OXu.'  XT T OXB B B B B B B B B B B B B B B B B B B B V p.V B B B B B ",
"B B B B B B B B B B B B B B B B B B B B B Z.: e ; o C 5.N.u 3.K.e ; o i ; -._.B B B B B B B B B B B B B B B B B B p.p.V B B B B ",
"V B B B B V V B B B B B B B B B B B B B b.f.&.c i ; ; e T & e c < < 1 v #.1.D.B B B B B B B B B B B B B B B B B B V K K N V V V ",
"p.V B B V p.K B B B B B B B B B B B B B e _ J.4.' 8 $   ; & + o $ ; A -.H.4.< U.B B B B B B B B B B B B B B B B B m x.x.N K K K ",
"p.p.B V K K B B B B B B B B B B B B B B y c =.J.=.q w < 8 r e p 8 q A I.D.#.w ~.B B B B B B B B B B B B B B B B B s.Y.`.L K V B ",
"V V B K K b B B B B B B B B B B B B B M.4.` A ~.X.q #.1.5.<.1.<.4.~ p Y.-...4.>.!.B B B B B B B B B B B B B B B B `.C.H.L V m B ",
"m m B V V m B B B B B B B B B B B B j.e Y.d._ #._ v 1.D.Y.G.).L.K.~ c -.^ >.K.X.E (.B B B B B B B B B B B B B B B H.H.m V m B B ",
"B B B m m B B B B B B B B B B B B K T +._ =.d.~ ~ A R S R k Z Z T R c S >.4.+.-.^ a V B B B B B B B B B B B B B B n n B B B B B ",
"B B B B B B B B B B B B B B B B B O.R d.<.:._ ....~ <.,.u.N.u.u.5./ R -.X.X.2.=.%.7 |.B B B B B B B B B B B B B B B B B B B B B ",
"B B B B B B B B B B B B B B B B B M.-.#.#.R ^ L.-._  XR.i.B.B.G.B.+./ N.] T =.=.>.>.$XB B B B B B B B B B B B B B B B B B B B B ",
"B B B B B B B B B B B B B B B B B V u., 0 0 _ ~.#.~ E.} g g d z { ( ( U.+.7 w 9 ' uXV B B B B B B B B B B B B B B B B B B B B B ",
"B B B B B B B B B B B B B B B B B B j.> @ , C :.d.m.t.G z 9.9.H G F ( 5./ 6 : 8 ] yXB B B B B B B B B B B B B B B B B B B B B B ",
"B B B B B B B B B B B B B B B B B B c.@ @ , 1 r O.B.f z q.w.w.9.j h k p 0 1 & # C wXB B B B B B B B B B B B B B B B B B B B B B ",
"B B B B B B B B B B B B B B B B B B V , , @ % r @.E.d H 9.x x x j F W r 2 1 @ . ( yXB B B B B B B B B B B B B B B B B B B B B B ",
"B B B B B B B B B B B B B B B B V V V h $.l 2 r { R.j H q.0.0.9.f l h 2 % . @ 2 $.=XB B B B B B B B B B B B B B B B B B B B B B ",
"B B B B B B B B B B B B B B B B V V V l W.B.F 2 | B.[ H 9.q.9.H [ Q k h 2 2 D l B.&XB B B B B B B B B B B B B B B B B B B B B B ",
"B B B B B B B B B B B B B B B B V V B F E.W.i.h { y.} z g d g G | Q h 3 D r./.r.y.%XB B B B B B B B B B B B B B B B B B B B B B ",
"B B B B B B B B B B B B B B B B V V 7.E.} t.G.2 Q ,.| [ [ G F Q [ F F 2 s O./.$.t.=XB B B B B B B V V B B B B B V B B B B B B B ",
"B B B B B B B B B B B B B B B B B B k.k.i.y.$.0 S ) ) ) | { ) W W W Z 2 { m.W.e.t.7XB B B B B B B K p.V V B V V K B B B B B B B ",
"B B B B B B B B B B B B B B B B B B n k.S.i.0 0 r S S A S S R R C W h h V.=XW.y.i.8XB B B B B V V V K K V V K K B B B B B B B B ",
"B B B B B B B B B B B B B B B B B B B n n u.& p e i i q q q r e y C 0 1 F y.{ R.=X&XV B B B B V p.p.N x.o.K K b B B x.x.V B B B ",
"B B B B B B B B B B B B B B B B B B B B B <.o 8 q i v v A A T c p e e u { i.y.#XpXB V B B B B B K K x.Y.Y.x.J m B B ^. XJ B B B ",
"B B B B B B B B B B B B B B B B B B B B B 6.  e c ^ =.4.>.-.2.2.>.^ c p Q.pXpX0XB B B B B B B B m V H.C.C.H.o.x.V B 8.V.V B B B ",
"B B B B B B B B B B B B B B B B B B B B B V.+ a w p v T T c U R T I t 7 [.kXB B B B B B B B B B B m n H.H.o.^. XJ B n n B B B B ",
"B B B B B B B B B B B B B B B B B B V V B V.. 6 9 w 7 7 6 - ; 1 - 5 < 5 '.zXB B B B B B B B B B B B B b n }.C.L.V B B B B B B B ",
"B B B B B B B B B B B B B B B B B B B V V V.. 4 : 9 7 7 :       X X X - F.zXB B B B B B B B B B B B B B B V.L.m B B B B B B B B ",
"B B B B B B B B B B B B B B B B B B B B B V.# # = = 5 : +   . + O * X * I.zXB V B B B B B B B B B B B B B n n B B B B B B B B B ",
"B B B B B B B B B B B B B B B B B B B B B Z.Y + + ; : = . + 6 a y a a - P.hXB B B B B B B B B B B B B B B B B B B B B B B B B B ",
"B B B B B B B B B B B B B B B B B B B B B K  X= : 9 6 y 6 + E T.'.'.D.- P.zXV B B B B B B B B B B B B B B B B B B B B B B B B B ",
"B B B B B B B B B B B B B B B B B B B B B B B + a D.6.2.E + ] oX>X3X.X: P.zXB B B B B B B B B B B B B B B B B B B B B B B B B B ",
"B B B B B B B B B B B B B B B B B B B B B B B # &.3X+X{.<.+ y ;.D.F.;.= T.zXB B B B B B B B B B B B B B B B B B B B B B B B B B ",
"B B B B B B B B B B B B B B B B B V B B B B B :  .rXwX+X<..       O + * I.uXB B B B B B B B B B B B B B B B B B B B B B B B B B ",
"B B B B B B B B B B B B B B B B B K V B B B a.= 8 / R C 8   . o = * + + U F.L B B B B B B B V V B B B B B B B B B B B B B B B B ",
"B B B B B B B B B B B B B B B B B B K V B B . + k ' +.e   o = &   + + . + ` wXB B B B B B B V K V B B B B B B B B B B B B B B B ",
"B B B B B B B B B B B B B B B B B N K K B V   , *.6X:X<.  o 8 e = + . + + ] <XB B B B B B B M p.K V B B B V B B B B B B B B B B ",
"B B B B B B B B B B B B B B B B V N V V B K . # e 9 y : ; +   + + . * + + ` <XB B B B B B B B K K K B V V V B B B B B B B B B B ",
"B B B B B B B B B B B B B B B B K K N M B K . .   o   o #   u  .] ] %.` &.F.(.B B B B B B B B b K K V h.g.B B B B B B B B B B B ",
"B B B B B B B B B B B B B B B B V V B B B V o   # +   +   = F.zXzXkXkXkXzXqXK B B B B B B B B M V V g.z.z.g.B B B B B B B B B B ",
"B B B B B B B B B B B B B B B B M M B B B B               : F.yXV V B B B B B B B B B B B B B B M M l.k.k.l.7.7.B B B B B V B B ",
"B V B B B B B B B B B B B B B B B B B B B V . . o o   + 9 5.:X(.V V B B B B B B B B B B B B B B B B n l.l.m z.n.V B B B B V V V ",
"V K B B V V V B B B B B B B B B B B B B B L = & # # = ; ' kXM.B V B V B B B B B B B B B B B B B B B B n n B 8.k.V B B B B B K K ",
"K V B V K p.K B B B B B B B B B B B B B B B A.}.].{.[.'.+X(.B B V V V V B V B B B B B B B B B B B B B B B B n n B B B B B B V g."
};
