/* XPM */
static char *_e5728255a1b4a01ed02de736ab07e0cOaUJlAyjSJ1BOCwH[] = {
/* columns rows colors chars-per-pixel */
"64 64 226 2 ",
"   c #050404",
".  c #090706",
"X  c #0C0B05",
"o  c #0C0B0B",
"O  c #130C01",
"+  c #180F00",
"@  c #110D0A",
"#  c #0E130F",
"$  c #191207",
"%  c #14120D",
"&  c #141414",
"*  c #1A1613",
"=  c #161B15",
"-  c #1A1B14",
";  c #1C1C1B",
":  c #22180D",
">  c #201C15",
",  c #1F201C",
"<  c #23231C",
"1  c #2B271B",
"2  c #37291A",
"3  c #1F2522",
"4  c #232423",
"5  c #272924",
"6  c #2A2A24",
"7  c #2B2B2B",
"8  c #2D3126",
"9  c #2E322A",
"0  c #3B3327",
"q  c #33342E",
"w  c #303130",
"e  c #353533",
"r  c #353934",
"t  c #3B3C35",
"y  c #3C3D3B",
"u  c #463828",
"i  c #553D2D",
"p  c #423D35",
"a  c #3D423B",
"s  c #666D17",
"d  c #676D18",
"f  c #696F18",
"g  c #6B7117",
"h  c #6C711A",
"j  c #72751B",
"k  c #75781E",
"l  c #4C4433",
"z  c #44443B",
"x  c #484739",
"c  c #434A3E",
"v  c #564937",
"b  c #55443B",
"n  c #594D38",
"m  c #67513B",
"M  c #747820",
"N  c #797C22",
"B  c #7C7E2A",
"V  c #7A7E3D",
"C  c #3E4B41",
"Z  c #444643",
"A  c #444944",
"S  c #4B4C45",
"D  c #464C4A",
"F  c #4C4D4B",
"G  c #534B42",
"H  c #544B45",
"J  c #5A4C43",
"K  c #4C5245",
"L  c #495549",
"P  c #4C534C",
"I  c #5B5343",
"U  c #53544C",
"Y  c #57584A",
"T  c #4F5452",
"R  c #535453",
"E  c #585655",
"W  c #545C53",
"Q  c #5B5C54",
"!  c #565B5A",
"~  c #5B5C5B",
"^  c #644E40",
"/  c #655948",
"(  c #6B5C4C",
")  c #735C46",
"_  c #625B53",
"`  c #6A5B51",
"'  c #635F5B",
"]  c #735E51",
"[  c #5D6254",
"{  c #576158",
"}  c #5C635B",
"|  c #636449",
" . c #77644D",
".. c #787E41",
"X. c #696659",
"o. c #766959",
"O. c #76735C",
"+. c #5E5D60",
"@. c #646564",
"#. c #656C63",
"$. c #696865",
"%. c #6C6B64",
"&. c #6C6C6C",
"*. c #746E68",
"=. c #6D746A",
"-. c #72736C",
";. c #797769",
":. c #6F7472",
">. c #747473",
",. c #747A71",
"<. c #7C7B74",
"1. c #767779",
"2. c #7C7C7D",
"3. c #867E26",
"4. c #90783A",
"5. c #816855",
"6. c #84725C",
"7. c #867A69",
"8. c #857D76",
"9. c #977F72",
"0. c #7E8125",
"q. c #7E802E",
"w. c #7D8342",
"e. c #7C8377",
"r. c #8B8528",
"t. c #918B2B",
"y. c #848638",
"u. c #A78739",
"i. c #B48F3F",
"p. c #AA9635",
"a. c #BC9A3F",
"s. c #C3A53F",
"d. c #828543",
"f. c #888B46",
"g. c #91924D",
"h. c #8B8D53",
"j. c #979858",
"k. c #B89245",
"l. c #898968",
"z. c #989A65",
"x. c #868579",
"c. c #8B857D",
"v. c #948774",
"b. c #988676",
"n. c #99987A",
"m. c #A38D69",
"M. c #AC8C79",
"N. c #A89278",
"B. c #B3997B",
"V. c #9EA069",
"C. c #A8AA76",
"Z. c #AAAB76",
"A. c #7E7F81",
"S. c #817F80",
"D. c #828383",
"F. c #858B83",
"G. c #878A87",
"H. c #8B8D8C",
"J. c #938C83",
"K. c #968E88",
"L. c #8C9683",
"P. c #8D928E",
"I. c #999788",
"U. c #8E9092",
"Y. c #939494",
"T. c #959997",
"R. c #9C9D93",
"E. c #9C9C9C",
"W. c #A79886",
"Q. c #B39A88",
"!. c #A69D95",
"~. c #9DA39A",
"^. c #ACA48C",
"/. c #B9A288",
"(. c #B8B88D",
"). c #ABA794",
"_. c #A3A39D",
"`. c #B6A896",
"'. c #B9BA93",
"]. c #9D9FA4",
"[. c #9CA7A9",
"{. c #A3A3A3",
"}. c #AAABA8",
"|. c #AFACA8",
" X c #BDB6A7",
".X c #B3B2AA",
"XX c #B3B5B4",
"oX c #B7B9B6",
"OX c #BCBEBE",
"+X c #C9A98A",
"@X c #C9AA95",
"#X c #C9B39A",
"$X c #D7BA9C",
"%X c #C7BCAA",
"&X c #D7BAAC",
"*X c #C2BAB8",
"=X c #BFC099",
"-X c #BBC2BF",
";X c #C1C29B",
":X c #DEC49F",
">X c #D8C3AD",
",X c #C6C3B9",
"<X c #D8CAB6",
"1X c #D6D3BA",
"2X c #E6CBAD",
"3X c #E2CBB2",
"4X c #EDCBB6",
"5X c #E7D4B8",
"6X c #F3DAB6",
"7X c #BDBEC0",
"8X c #C3C4C2",
"9X c #C7C9C6",
"0X c #CACBC9",
"qX c #D8D3C6",
"wX c #D0D1CC",
"eX c #D4CFD1",
"rX c #D6D8D6",
"tX c #E7DDC8",
"yX c #F1DAC2",
"uX c #E4DEDE",
"iX c #F7E4C8",
"pX c #E4E2D6",
"aX c #EEE6D3",
"sX c #F8E8D6",
"dX c #E0DBE1",
"fX c #F1EBE3",
/* pixels */
"j j j j j j j j j j j j j j j j j N 0.N k j k N j j w.w.k j j j k k j j j j j j j j k j j j j j j j j j j j j j j j j j j j j V ",
"j j j j j j j j j j j j j j j j j j N N N k s k k k [.R.w.k j j k k j j j j j j j j j j j j j j j j j j j j j j j j j j j j j n.",
"j j j j j j j j j j j j j j j j j k h k N N f d.f.N _.8.].c.-.~ %.%.~ X.X._.B j j j j j j j j j j j j j j j j j j j j j j j j d ",
"j j j j j j j j j j j j j j j j j N N h k N d.^.^.C.1.+.E @.! ~ F E ! ! t E }.j j j j j j j j j j j j j j j j j j j j j j j j j ",
"j j j j j j j j j j j j j j j j j f k N s k n.m.`.U.8X2.+.U.Y.T.Y.Y.E.E.#.E A..Xj j j j j j j j j j j j j j j j j j j j j j j j ",
"j j j j j j j j j j j j j j j j j j f k f f d ).Q U.rX&.F E.{.{.{.}.7X0XOXOX{.>._.j j j j j j j j j j j j j j j j j j j j j j j ",
"j j j j j j j j j j j j j j j j j j j w.w.k j %.-..XrX&.S P._._.[.T.}.oX9X9XXXY.D.).j j k k j j j j j j j j j j j j j j j j j j ",
"j j j j j j j j j j j j j j j j j j j R.[.M j %.{.rXwX%.H <.H.E.T.T.T.~.oXoXOXrXH.! 9Xj j j j j j j j j j j j j j j j j j j j j ",
"j j j k k k j j j j j j j j j j j j j 4.L.k j %.,XfXqXX.1 X.!.|._.}._.XX9XwXrXrXP.D 0Xj j j j k j j j j j j j j j j j j j j j j ",
"j j k N 0.N j j j j j j j j j j j j j d d j j _  XqXc.J.J.8.%.x.!._.{._.oX-X9X-X[.P.T.q.j j j k j j j j j j j j j j j j j j j j ",
"j j N N N j j j j j j j j j j j j j j j j j j _ `.!.v  XpX,XJ.%.8.;.8.<.R.}.oXoX9X}.#.H.B j j j j j j j j j j j j j j j j j j j ",
"j j k k f j j j j j j j j j j j j j j j j j j Y K.x.v  XtXqX*XJ.J b J _ I.|.0X0X9XE.T D.q.j j j k k j j j j j j j j j j j j j j ",
"j j f f j j j j j j j j j j j j j j j j j j j G ` 7.I.%X%Xx.7.8.*.6.( J o.J.*X,X8XXX~ A.g.j j j N 0.k k j j j k k j j j j j j j ",
"j j j j j j j j j j j j j j j j j j j j j j j x u 7.1X1X^.l J o.b.Q.9.] b J c..X8XoX+.D.j.j j j j N N N j j k 0.N j j j j j j j ",
"j j j j j j j j j j j j j j j j j j j j j j j b 0 7.tX5XW./ I.K.^ M.@XQ.` b X.*X8XE.R S.j.j j j j f k k j k N 0.j j j j j j j j ",
"j j j j j j j j j j j j j j j j j j j j j j j v 2 7.1XtX^.o. X!.i M.4X&X] b G *XuX}.@.2.C.j j j j j f f j N N k j j j j j j j j ",
"j j j j j j j j j j j j j j j j j j j j j j j I / W.tXtX`.;.*X`.5.+X4XM.m J 8.*XdXXX~ D.C.j j j j j j j j k k f j j j j j j j j ",
"j j j j j j j j j j j j j j j j j j j j j j j X.).1XaXtX%Xx.,X1XN.$X+X) u ` |.eXeXT.! U.y.j j j j j j j j f f j j j j j j j j j ",
"j j j j j j j j j j j j j j j j j j j j j j j X.,XfXaXsX1X`.tXiX$X+XB.5.i ` *X*XE.1.H.7XN j j j j j j j j j j j j j j j j j j j ",
"j j j j j j j j j j j j j j j j j j j j j j j 8.!.<XsXsXiXiXiX5X2X@XB.6.( ` K.!.>.~ OXpXj j j j j j j j j j j j j j j j j j j j ",
"j j j j j j j j j j j j j j j j j j j j j j j y.8.b.aXiXsXiX6X6X5X3XN.m 7.;.Y c.@.F 9Xq.j j j j j j j j j j j j j j j j j j j j ",
"j j j j j j j j j j j j j j j j j j j j j j j j g.J.b.>XiX6X6X:X#XN. .u / / 0 c S U 8Xk k k j j j j j j j j j j k k j j j j j j ",
"j j j j j j j j j j j j j j j j j j j j j j j j j j.7.Q.B./.+XB.b.n v n l v [ U K [ R.C.k j j j j j j j j j j j k 0.k j j j j j ",
"j j j j j j j j j j j j j j j j j j j j j j j j j j B  .v  .m ) v l l ;.l.;.L.c.x.X.P F.y.k j j j j j j j j j j j 0.0.k j j j j ",
"k j j j j k k j j j j j j j j j j j j j j j j j j j j X./ ( u 2 l I ` O.O.*.;.X.Y K 9 ,.1Xj j j j j j j j j j j j k N N h k k k ",
"0.k j j k 0.N j j j j j j j j j j j j j j j j j j j Y _ *./ : $ p X.;._ X.[ K Y K c S ,.,Xj j j j j j j j j j j j f d.d.h N N N ",
"0.0.j k N N j j j j j j j j j j j j j j j j j j j j q U Q q @ * t %.<.Q ;.Q K e.e.=.-.} >.'.j j j j j j j j j j j w.R.[.B N k j ",
"k k j N N s j j j j j j j j j j j j j j j j j j j j 9 r r 4 6 4 6 z c z Y c Y T.~.~.T.<.-.x.).j j j j j j j j j j [.m.L.B k f j ",
"f f j k k f j j j j j j j j j j j j j j j j j j j j t q t Z y e z y t a 9 c =.L.F.G.F.P.<.t -.C.j j j j j j j j j L.L.f k f j j ",
"j j j f f j j j j j j j j j j j j j j j j j j j j U E y Z &.A P #.U K } t S =.#.#.#.! %.} y D.1Xj j j j j j j j j d d j j j j j ",
"j j j j j j j j j j j j j j j j j j j j j j j j h.7 z q F e.P } x.~ ! ,.} P P A A A a a E Y.9Xz.j j j j j j j j j j j j j j j j ",
"j j j j j j j j j j j j j j j j j j j j j j j j g.E q 9 P ,.L { F.E F { @.A 3 3 4 5 7 , E rXq.j j j j j j j j j j j j j j j j j ",
"j j j j j j j j j j j j j j j j j j j j j j j j j I.8 8 r L C #.G.! A D r 3 o # , < , ; Z 8Xj j j j j j j j j j j j j j j j j j ",
"j j j j j j j j j j j j j j j j j j j j j j j j j j 1 < K } L W 2.P P ! w = # X % < < 5 7 $.j.j j j j j j j j j j j j j j j j j ",
"j j j j j j j j j j j j j j j j j j j j j j j j j k O 1 S Q P ! ,.W P } A 5 = X X < > 1 - ; =.j.j j j j j j j j j j j j j j j j ",
"j j j j j j j j j j j j j j j j j j j j j j j j B 0 O 1 p Y z U =.L a W c r 6 O $ - $ - % @ $.(.j j j j j j j j j j j j j j j j ",
"j j j j j j j j j j j j j j j j j j j j j j j k ;./ 2 2 b *.H E ,.L { ,.K S I 1 + + + $ $ % $.C.j j j j j j j j j j j j j j j j ",
"j j j j j j j j j j j j j j j j j j j j j j j o.v.b.( i b o._ Q #.P { #.x x o.O.o./ ( ( I 0 -.C.j j j j j j j j j j j j j j j j ",
"j j j j j j j j j j j j j j j j j j j 3.3.j j / b.W.b.m u J G H #.W c c z l o.`.<X>X<X<X X` J.C.j j j j j j j j j j j j j j j j ",
"j j j j j j j j j j j j j j j j j j 3.i.k.3.j  .v.`.W.v u o.G Q =.W P [ | v l 6.N.#X3XyX>X/ c.C.j k k j j j j j k j j j j j j j ",
"j j j j j j j j j j j j j j j j j j u.u.u.u.r.b.7.o.O.i u X.S U } P P Q Q v u 6.N.$X3X5X%Xv ;.;Xj N 0.k k j k k N j j j j j j j ",
"j j j j j j j j j j j j j j j j j j d u.u.f s.k.O.n I u 0 Y S P T D F U p 0 v `.3X3X>XyX#X/ v.1Xk k N N k k M N j j j j j j j j ",
"j j j j j j j j j j j j j j j j j j j d d j p.p.^.`.W.Y z X.P { :.R R $.X.G u 6./.yXyX`.v.`.<X(.0.0.h d...N N s j j d.d.k j j j ",
"j j j j j j j j j j j j j j j j j j j j j j d d j B k X.a ,.L ! G.~ ~ 8.c.X.0 u  ./.Q.b.`.sXy.j N N d.R.R.f.M f j j ^..XM j j j ",
"j j j j j j j j j j j j j j j j j j j j j j j j k j j l.t =.T P &.R E &.-.U 1 : 2 v ( `.aXk j j f k L.m.m.L...d.k j 4.n.k j j j ",
"j j j j j j j j j j j j j j j j j j j j j j j j j j B p r Z r y A t a S S q %   O 0 W.qXk j j j j f d L.L...^..XM j d d j j j j ",
"j j j j j j j j j j j j j j j j j j j j j j j j j j < & 5 , ; 7 4 < 4 5 5 < % @ @ 1 c.y.j j j j j j j d d |.m.I.k j j j j j j j ",
"j j j j j j j j j j j j j j j j j j j j j j j j j j % o o o o . % = = = 4 4 ; ; % * 6 c.B j j j j j j j j n.I.f j j j j j j j j ",
"j j j j j j j j j j j j j j j j j j j j j j j j j k &   o o . . o & = & 4 ; 4 6 6 - % -.=Xk j j j j j j j d d j j j j j j j j j ",
"j j j j j j j j j j j j j j j j j j j j j j j j j j . o o o   o   . o & 4 4 4 4 4 4 & Z |.j k k j j j j j j j j j j j j j j j j ",
"j j j j j j j j j j j j j j j j j j j j j j j j j j 7 5 & . o & & 5 = o ; ; ; 5 4 ; & ; E (.j k j j j j j j j j j j j j j j j j ",
"j j j j j j j j j j j j j j j j j j j j j j j j j v.Y.2.Z & . . 5 2.:.& & & ; 4 5 4 & & y 9Xj k j j j j j j j j j j j j j j j j ",
"j j j j j j j j j j j j j j j j j j j j k M k B z ' uX9XH.y & 9 G.0Xf.$.; o & & & & ; q E >.y.k j j j j j j j j j j j j j j j j ",
"j j j j j j j j j j j j j j j j j k j j x * * * & R 0XeXOX>.; R rXN j y.S ; ; & & & ; F >.Z :.C.j j j j j j j j j j j j j j j j ",
"j j j j j j j j j j j j j j j j j N k l.> X % @ o q -.E.|.>.5 R qXj j j g.{.D.4 & & F >.E.Y.2.D.k j j j j j j j j j j j j j j j ",
"j j j j j j j j j j j j j j j j j j j.6 S > * @ * & & Z @.! @.E.'.j j j j k j z.y 5 >.H.&.D.! 7 2.B j j j j j j j j j j j j j j ",
"j j j j j j j j j j j j j j j j j h z.e $.t < * & & o & = t OXpXN j j j j j j j v.; >.&.4 7 ; & 5 2.y.j j k j j j j j j j j j j ",
"j j j j j j j j j j j j j j j j k h l.% U $.E @   o X . o y 8Xj j j j j j j j j O.7 t e ; & ; & & 2.'.k k k j j j j j j j j j j ",
"j j j j j j j j j j j j j j j j N N h.$.-.E p o . @ @ o 7 S.rXj j j j j j j j | o & ; ; ; ; & ; ~ XXC.t.r.j j j j j j j j j j j ",
"j j j j j j j j j j j j j j j j k k k '. XQ 5   . .   o ~ rXf.k j j j j j j h.5 7 ; ; & & & & R 8X1Xr.a.a.r.j j j j j j j j j j ",
"j j j j j j j j j j j j j j j j g g j j j V.>.; o @ o & $.pXk k j j j j j j E G.E.D.7 & & & F oX1Xg p.u.u.p.3.3.j j j j j k j j ",
"j k j j j j j j j j j j j j j j j j j j j j B J.2.D.S.S.|.;Xj j j j j j j j C.2.>.$.; . 4 @.OX;Xj j d p.p.f i.k.k j j j j k k k ",
"k N j j k k k j j j j j j j j j j j j j j j j M C.j.g.g.g.k j k j j j j j j j $.7 7 5 7 R 8Xj.j j j j d d j 4.u.k j j j j j N N ",
"N k j k N 0.N j j j j j j j j j j j j j j j j j j j j j j j j k j j j j j k j q.{.{.{.}.oXV.j j j j j j j j d d j j j j j j k r."
};
