/* XPM */
static char *_b128f1afdcb4bf2e13f4f86d69d25dcj1ogH3iwh2PSKakB[] = {
/* columns rows colors chars-per-pixel */
"64 64 175 2 ",
"   c None",
".  c #141314",
"X  c gray10",
"o  c #1B1B1B",
"O  c #1C1B1B",
"+  c gray11",
"@  c #1E1E1E",
"#  c gray12",
"$  c #281617",
"%  c #291618",
"&  c #291718",
"*  c #2B1B1E",
"=  c #2C1B1E",
"-  c #391C1F",
";  c #3A1C1F",
":  c #251A23",
">  c #371E20",
",  c #341F22",
"<  c #381E20",
"1  c #381F21",
"2  c #391F21",
"3  c #3A1F21",
"4  c #232323",
"5  c gray14",
"6  c #252525",
"7  c gray15",
"8  c #272727",
"9  c #282828",
"0  c #2A2A2A",
"q  c #2D2D2D",
"w  c #3A2021",
"e  c #392023",
"r  c #3C2122",
"t  c #3D2426",
"y  c #38252F",
"u  c gray21",
"i  c #373737",
"p  c gray23",
"a  c #3C3C3C",
"s  c gray24",
"d  c #40141C",
"f  c #5F151E",
"g  c #61161F",
"h  c #62161F",
"j  c #44201D",
"k  c #45211D",
"l  c #571C27",
"z  c #581C27",
"x  c #591C27",
"c  c #641D28",
"v  c #7A1D2A",
"b  c #7B1D2A",
"n  c #7D1E2A",
"m  c #422222",
"M  c #422223",
"N  c #432323",
"B  c #442323",
"V  c #412427",
"C  c #462424",
"Z  c #422528",
"A  c #422529",
"S  c #412F2A",
"D  c #522826",
"F  c #532826",
"G  c #532926",
"H  c #522D2A",
"J  c #5C2C28",
"K  c #5D2C28",
"L  c #5E2D28",
"P  c #43302B",
"I  c #5F352D",
"U  c #5F362D",
"Y  c #5F372E",
"T  c #4B2132",
"R  c #523437",
"E  c #513438",
"W  c #64282B",
"Q  c #653628",
"!  c #6F2334",
"~  c #6E2335",
"^  c #743331",
"/  c #694235",
"(  c #7E4032",
")  c #2B2F4D",
"_  c #322C41",
"`  c #313757",
"'  c #313951",
"]  c #3F3F58",
"[  c #744947",
"{  c #754D58",
"}  c #764D59",
"|  c #764E5A",
" . c #434D6F",
".. c #484F6C",
"X. c #565A74",
"o. c #565C76",
"O. c #736162",
"+. c gray49",
"@. c #861E2B",
"#. c #871E2B",
"$. c #861F2B",
"%. c #881E2B",
"&. c #891E2B",
"*. c #8B1E2B",
"=. c #97202D",
"-. c #99202C",
";. c #B2222E",
":. c #B3222F",
">. c #C22430",
",. c #C32430",
"<. c #C42430",
"1. c #874635",
"2. c #8A4836",
"3. c #8B4936",
"4. c #8A5036",
"5. c #95563D",
"6. c #98523B",
"7. c #9C5B40",
"8. c #9C5D44",
"9. c #955D4B",
"0. c #A15E44",
"q. c #9B6454",
"w. c #B96C48",
"e. c #A6714D",
"r. c #A7734E",
"t. c #B77C59",
"y. c #AB8D6F",
"u. c #A8907C",
"i. c #C0997A",
"p. c #D19E7A",
"a. c #E09967",
"s. c #E69C69",
"d. c #E69D6B",
"f. c #E5A575",
"g. c #EAA978",
"h. c #5B6685",
"j. c #6A7586",
"k. c #4D95C1",
"l. c gray56",
"z. c #988689",
"x. c #998689",
"c. c #A7868A",
"v. c #9096A0",
"b. c #B3AFB0",
"n. c #B2B2B2",
"m. c #B7B7B7",
"M. c #B7B7B8",
"N. c #B8B8B9",
"B. c gray73",
"V. c #EBB693",
"C. c #F1BD90",
"Z. c #C7BFBE",
"A. c #F5C99D",
"S. c #F6C99E",
"D. c #F6CA9F",
"F. c #E3C4A6",
"G. c #A2AFC4",
"H. c #B1BCCD",
"J. c #B2BCCD",
"K. c #B4BECE",
"L. c #B6BECF",
"P. c #B9C2D3",
"I. c #C3C3C3",
"U. c gray77",
"Y. c #C3CAD8",
"T. c #C4CBD9",
"R. c #C7CFDD",
"E. c #D0D6DF",
"W. c #D6DCE6",
"Q. c #D7DCE7",
"!. c gray89",
"~. c #E7E4E4",
"^. c #E7E7E7",
"/. c #E9E9E9",
"(. c #FDFDFD",
/* pixels */
"                                                                                                                                ",
"                                                                                                                                ",
"                                                                                                                                ",
"                                                                                                                                ",
"                                                                                                                                ",
"                                                                                                                                ",
"                                                                                                                                ",
"                                                                                                                                ",
"                                                                                                                                ",
"                                                                                                                                ",
"                                                                                                                                ",
"                                                                                                                                ",
"                                                                                                                                ",
"                                                                                                                                ",
"                                                                                                                                ",
"                                                                                                                                ",
"                                                                                                                                ",
"                                                                                                                                ",
"                                                                & 2 D L B                                                       ",
"                                                            & 2 2 2 2 D L L                                                     ",
"                                                          & 2 2 2 2 2 2 D L m                                                   ",
"                                                        & 2 2 2 2 D L L L L B 2                                                 ",
"                                                        & 2 2 D L L L L L L L m                                                 ",
"                                                    $ 2 2 2 2 2 2 2 D L L m D B                                                 ",
"                                                      $ 2 2 e e 2 2 D m D C D L m                                               ",
"                                                        & 2 ] ` y e t : > 7.Y 2                                                 ",
"                                                      $ > r _ ) 9.Y Z.k.u.s./                                                   ",
"                                                          4.6.H 8.Y i.A.A.A.                                                    ",
"                                                      '  .q.^ z.^.O.t.C.A.f.                                                    ",
"                                                      j.h.[ W z z.b.^.V.a.                                                      ",
"                                                      v.G...T n %.%.%.c.                                                        ",
"                                                    B.J.P.o.~ :.<.<.>.=.                                                        ",
"                                                  m.(.Q.T.X.~ :.<.>.=.E     e.s.                                                ",
"                                                  M.J.L.| l b :.>.-.R q 9 l.F.g.                                                ",
"                                                B.J.P.| l l l b $.$.V 9 l./.U.p.                                                ",
"                                              m.(.Q.Y.| l z z z l =   +.!.I.                                                    ",
"                                              B.J.L.  d z b %.%.c *                                                             ",
"                                            m.Q.R.  d b %.%.%.%.; o o                                                           ",
"                                            m.Q.Y.  g %.%.%.%.$.; o o                                                           ",
"                                            n.E.    f %.%.%.$.A + o o o                                                         ",
"                                                      g $.$.A 9 + o o o                                                         ",
"                                              j L   + 7 7 i s s 7 o o o                                                         ",
"                                            j ( 2.P 7 7 i s s s 7 o o o                                                         ",
"                                            Q 2.1.S 7 7 i s p 4 o o o                                                           ",
"                                            e.0.      o 7 7     . O                                                             ",
"                                            y.                  & 2                                                             ",
"                                                                $ 2 r                                                           ",
"                                                                  $ 5.w.                                                        ",
"                                                                                                                                ",
"                                                                                                                                ",
"                                                                                                                                ",
"                                                                                                                                ",
"                                                                                                                                ",
"                                                                                                                                ",
"                                                                                                                                ",
"                                                                                                                                ",
"                                                                                                                                ",
"                                                                                                                                ",
"                                                                                                                                ",
"                                                                                                                                ",
"                                                                                                                                ",
"                                                                                                                                ",
"                                                                                                                                ",
"                                                                                                                                "
};
