/* XPM */
static char *_75f6db7d5b14e93ca811c07b79710c37n5ubKjibV1qJxKH[] = {
/* columns rows colors chars-per-pixel */
"64 64 167 2 ",
"   c None",
".  c gray9",
"X  c #181818",
"o  c #1B1B1B",
"O  c #1D1B1B",
"+  c #1E1B1B",
"@  c #1E1B1C",
"#  c #1F1B1C",
"$  c gray11",
"%  c #1F1C1C",
"&  c #2F1A1B",
"*  c #311B1C",
"=  c #321B1D",
"-  c #371F1F",
";  c #371E20",
":  c #361E21",
">  c #391F21",
",  c #3A1F21",
"<  c #1A2031",
"1  c #202020",
"2  c gray13",
"3  c #242122",
"4  c #242222",
"5  c gray15",
"6  c #272727",
"7  c #2A2727",
"8  c #282828",
"9  c #2A2828",
"0  c #2A2A2A",
"q  c #2D2A2A",
"w  c #3E2122",
"e  c #3F2122",
"r  c #3E2222",
"t  c #3E2223",
"y  c #3E2323",
"u  c #372128",
"i  c #3A252C",
"p  c #343434",
"a  c gray22",
"s  c #393939",
"d  c #3A3A3A",
"f  c gray23",
"g  c #3C3939",
"h  c #3D3939",
"j  c #3C3C3C",
"k  c gray24",
"l  c #501C25",
"z  c #571C27",
"x  c #5B1B26",
"c  c #581D28",
"v  c #5A1F28",
"b  c #5C1D29",
"n  c #5E1C28",
"m  c #711923",
"M  c #771E29",
"N  c #791E29",
"B  c #7B1F2A",
"V  c #4B2A27",
"C  c #4C2A27",
"Z  c #4D2B27",
"A  c #4B2B28",
"S  c #572A27",
"D  c #582A27",
"F  c #5A212C",
"G  c #5B222D",
"H  c #5C2C28",
"J  c #5D2C28",
"K  c #50302C",
"L  c #4D3536",
"P  c #513B3D",
"I  c #602E29",
"U  c #602F29",
"Y  c #7E222D",
"T  c #64302A",
"R  c #773E2E",
"E  c #7A4131",
"W  c #7A453C",
"Q  c #2D2D48",
"!  c #2B304F",
"~  c #35314D",
"^  c #393249",
"/  c #2E3352",
"(  c #303553",
")  c #553E40",
"_  c #3E4667",
"`  c #424C6E",
"'  c #4B5575",
"]  c #505B7B",
"[  c #801E2A",
"{  c #821E2A",
"}  c #841D29",
"|  c #871E2B",
" . c #861F2C",
".. c #881E2B",
"X. c #891E2B",
"o. c #8B1E2B",
"O. c #901F2C",
"+. c #921F2C",
"@. c #80232E",
"#. c #B9232F",
"$. c #BB232F",
"%. c #BC232F",
"&. c #C22430",
"*. c #C42430",
"=. c #854335",
"-. c #894736",
";. c #8A4836",
":. c #92513B",
">. c #9F5D3E",
",. c #A35F3F",
"<. c #B36848",
"1. c #B96B48",
"2. c #BA6D4A",
"3. c #C1734D",
"4. c #C6865B",
"5. c #C3865C",
"6. c #C6885C",
"7. c #C48163",
"8. c #E69C69",
"9. c #E69D6B",
"0. c #E09D6D",
"q. c #E19E6E",
"w. c #DFA278",
"e. c #E1A173",
"r. c #E8A371",
"t. c #E4A67C",
"y. c #2B7CAB",
"u. c #959595",
"i. c gray61",
"p. c #9D9D9D",
"a. c #A4999B",
"s. c #AB9A9C",
"d. c #AD9A9C",
"f. c #AE9EA0",
"g. c #94A2B8",
"h. c #9BA9BF",
"j. c #AAB1BD",
"k. c #ABB2BE",
"l. c #ACB3BE",
"z. c gray73",
"x. c #CBA783",
"c. c #EDBE93",
"v. c #F3C296",
"b. c #F4C397",
"n. c #F4C497",
"m. c #F6CA9F",
"M. c #EBC7A3",
"N. c #9DAAC0",
"B. c #9DABC0",
"V. c #B6B5C3",
"C. c #B7B6C4",
"Z. c #BAC3D1",
"A. c #C5CEDC",
"S. c #C7CFDD",
"D. c #C8D0DE",
"F. c #C9D1DE",
"G. c #D2D2D2",
"H. c #D8D8D8",
"J. c #ECDCDE",
"K. c #E8EAEE",
"L. c #F7F0EA",
"P. c #F1F1F1",
"I. c #F0F1F3",
"U. c gray95",
"Y. c #F0F2F5",
"T. c #F6F6F6",
"R. c gray97",
/* pixels */
"                                                                                                                                ",
"                                                                                                                                ",
"                                                                                                                                ",
"                                                                                                                                ",
"                                                                                                                                ",
"                                                                                                                                ",
"                                                                                                                                ",
"                                                                                                                                ",
"                                                                                                                                ",
"                                                                                                                                ",
"                                                                                                                                ",
"                                                                                                                                ",
"                                                                                                                                ",
"                                                                                                                                ",
"                                                                                                                                ",
"                                                                                                                                ",
"                                                                                                                                ",
"                                                      e J S , ;                                                                 ",
"                                                    J J S , , , , ;                                                             ",
"                                                  , J J e e e , , , ;                                                           ",
"                                                , e J J J J J e e , , ;                                                         ",
"                                                , J D J J J D D S , , ;                                                         ",
"                                                e J , J D J , , , , , , , &                                                     ",
"                                              = D S Z S ; S , , u i , , &                                                       ",
"                                                = e 3.K < ) , A ! _ , ;                                                         ",
"                                                  - r.e.y.L.e 2.Q ^ V = &                                                       ",
"                                                    n.m.m.c.e 7.L =.1.                                                          ",
"                                                    6.b.v.t.P P.a.c <.` '                                                       ",
"                                                      4.w.J.f.s.n c W ] g.                                                      ",
"                                                        d.+.+.+.+.n / h.Z.                                                      ",
"                                                        @.%.*.*.&. .( S.N.R.                                                    ",
"                                                8.q.    g @.%.*.&. .~ C.D.Y.R.                                                  ",
"                                                8.M.z.f 8 g o.$.$.{ z F V.N.K.                                                  ",
"                                                5.p.P.z.f 3 N { { z z z F S.N.R.                                                ",
"                                                    p.H.u.  + z n n n z F k.D.Y.R.                                              ",
"                                                            + l o.o.| n x   k.N.P.                                              ",
"                                                          o o @ o.o.o.o.| x   S.D.R.                                            ",
"                                                          o o @ N o.o.o.o.|   k.D.R.                                            ",
"                                                        o o o o 7 N o.o.o.m     l.G.                                            ",
"                                                        o o o % 8 q Y N M                                                       ",
"                                                        o o o % j j j 8 6 6   T U                                               ",
"                                                        . o o % f j j j 6 6 8 ;.-.U                                             ",
"                                                          . o o o p f f 6 2 3 R ;.:.                                            ",
"                                                            % +     2 2 2       E q.                                            ",
"                                                            , ;                   x.                                            ",
"                                                          Z , &                                                                 ",
"                                                        ,.>.&                                                                   ",
"                                                                                                                                ",
"                                                                                                                                ",
"                                                                                                                                ",
"                                                                                                                                ",
"                                                                                                                                ",
"                                                                                                                                ",
"                                                                                                                                ",
"                                                                                                                                ",
"                                                                                                                                ",
"                                                                                                                                ",
"                                                                                                                                ",
"                                                                                                                                ",
"                                                                                                                                ",
"                                                                                                                                ",
"                                                                                                                                ",
"                                                                                                                                ",
"                                                                                                                                "
};
