/* XPM */
static char *_74484179933423ae8f87657ec368bd5omUGjbr6qx6AWJAU[] = {
/* columns rows colors chars-per-pixel */
"64 64 177 2 ",
"   c None",
".  c #161616",
"X  c #181818",
"o  c #1B1B1B",
"O  c #1D1A1A",
"+  c #1F1B1C",
"@  c #22151D",
"#  c #201B1C",
"$  c #2E191B",
"%  c #331C1D",
"&  c #351D1E",
"*  c #351D1F",
"=  c #381E1F",
"-  c #391E1F",
";  c #341F24",
":  c #391E20",
">  c #381E21",
",  c #381F21",
"<  c #391F21",
"1  c #3C1F22",
"2  c #202020",
"3  c #222222",
"4  c #232323",
"5  c gray15",
"6  c #272727",
"7  c #2D2627",
"8  c #282827",
"9  c gray16",
"0  c #302527",
"q  c #312627",
"w  c #322627",
"e  c #342527",
"r  c #3B2021",
"t  c #3C2022",
"y  c #3D2122",
"u  c #3D2C2A",
"i  c #22263F",
"p  c #393939",
"a  c #3A3A3A",
"s  c #3B3A3A",
"d  c gray23",
"f  c #3C3B3B",
"g  c gray24",
"h  c #3E3E3E",
"j  c #471720",
"k  c #4D1922",
"l  c #4E1923",
"z  c #511D27",
"x  c #561C27",
"c  c #571C27",
"v  c #551E27",
"b  c #571F26",
"n  c #5A1C27",
"m  c #5B1C27",
"M  c #5D1C27",
"N  c #6F1823",
"B  c #611C28",
"V  c #402122",
"C  c #4E2623",
"Z  c #472825",
"A  c #492826",
"S  c #4A2926",
"D  c #4D2D29",
"F  c #522723",
"G  c #522724",
"H  c #562925",
"J  c #562A27",
"K  c #592A27",
"L  c #592B27",
"P  c #5A2B27",
"I  c #5A242A",
"U  c #5B2B28",
"Y  c #5D2C28",
"T  c #43342D",
"R  c #5D2631",
"E  c #5E2832",
"W  c #5D2D36",
"Q  c #4B373A",
"!  c #403839",
"~  c #413839",
"^  c #46393B",
"/  c #503839",
"(  c #60242A",
")  c #61252C",
"_  c #66282C",
"`  c #632731",
"'  c #612C36",
"]  c #743E32",
"[  c #7D4233",
"{  c #252945",
"}  c #2C3150",
"|  c #3E4564",
" . c #747374",
".. c #777374",
"X. c #777777",
"o. c #831E2B",
"O. c #861D29",
"+. c #841E2B",
"@. c #881E2B",
"#. c #891E2B",
"$. c #891F2B",
"%. c #8C1E2B",
"&. c #8C1F2B",
"*. c #901F2C",
"=. c #A01D27",
"-. c #85222D",
";. c #8A202C",
":. c #8D242D",
">. c #8B282F",
",. c #932D31",
"<. c #912B34",
"1. c #99383B",
"2. c #AE262D",
"3. c #BE232F",
"4. c #C02430",
"5. c #C22430",
"6. c #C42430",
"7. c #814033",
"8. c #804332",
"9. c #854534",
"0. c #864535",
"q. c #8A4836",
"w. c #8A4937",
"e. c #884C3E",
"r. c #9F5C3E",
"t. c #965A48",
"y. c #A66042",
"u. c #A96241",
"i. c #AF6545",
"p. c #AF6645",
"a. c #B56746",
"s. c #BB6C48",
"d. c #BB7553",
"f. c #C07551",
"g. c #BF8D6A",
"h. c #C5825A",
"j. c #D0895E",
"k. c #D48D61",
"l. c #CE9269",
"z. c #D49061",
"x. c #D69162",
"c. c #D39164",
"v. c #DA986B",
"b. c #E29766",
"n. c #E29866",
"m. c #E69C69",
"M. c #E79F6D",
"N. c #E7A06D",
"B. c #E9A573",
"V. c #EAAA7D",
"C. c #1E73A8",
"Z. c #848484",
"A. c #898381",
"S. c #959595",
"D. c #9F9F9F",
"F. c #A09899",
"G. c gray65",
"H. c #AFA9AA",
"J. c #ACAAAB",
"K. c gray70",
"L. c #B6B2B2",
"P. c #B8B3B0",
"I. c #E2B68D",
"U. c #E0BA97",
"Y. c #EABE97",
"T. c #F0C49B",
"R. c #F3C69B",
"E. c #F4C599",
"W. c #F5C69B",
"Q. c #F6CA9F",
"!. c #E5C4A1",
"~. c #DAD5D6",
"^. c #E6E6E6",
"/. c #F1EBE8",
"(. c #F3EEEB",
"). c gray95",
"_. c #F6F6F6",
/* pixels */
"                                                                                                                                ",
"                                                                                                                                ",
"                                                                                                                                ",
"                                                                                                                                ",
"                                                                                                                                ",
"                                                                                                                                ",
"                                                                                                                                ",
"                                                                                                                                ",
"                                                                                                                                ",
"                                                                                                                                ",
"                                                                                                                                ",
"                                                                                                                                ",
"                                                                                                                                ",
"                                                                                                                                ",
"                                                                                                                                ",
"                                                                                                                                ",
"                                                                                                                                ",
"                                                      = H G & $                                                                 ",
"                                                    H U L r : : & $                                                             ",
"                                                  : Y L r : : : : : $                                                           ",
"                                                  t Y Y L L H : : : : $                                                         ",
"                                                = U Y Y Y Y Y L H : : : $                                                       ",
"                                                t L V Y Y L t t r : : : : $                                                     ",
"                                                U L t L V L : : : : : %   | i                                                   ",
"                                              & t S y.: @ r : : : : : : ; } {                                                   ",
"                                                  D n.g.C.~.Z y.: : %   p.]                                                     ",
"                                                    W.R.!.U.S p.: 1 n +.2.                                                      ",
"                                                    B.Q.W.c./ /.F.n %.4.4.=.                                                    ",
"                                                      N.V.(.H.H.` %.4.6.3.%.N                                                   ",
"                                                      t.P.H.E R M *.6.3.-.~ 7 4                                                 ",
"                                                    c q.e.R c c M *.3.-.~ 9 6 4                                                 ",
"                                                z.h.c ( q.0.7.c c B $.c 9 g ^.S.                                                ",
"                                              z.m.v...0 _ s.a.0.7.c n c W K._.D.                                                ",
"                                              m.b.d.Z...0 I T s.a.0.7.' L.).G.                                                  ",
"                                                  A.X.    z 8 u ,.s.f.Y.R.l.                                                    ",
"                                                            6 0 $.:.1.W.M.k.j                                                   ",
"                                                            d 0 $.$.;.<.>.) c j                                                 ",
"                                                          d g f Q $.$.$.o.c c l                                                 ",
"                                                          g g g ^ $.$.+.n c l                                                   ",
"                                                        d g g g d e n n c l                                                     ",
"                                                        g g g d 9 6 # # # + .   & $                                             ",
"                                                        g g g d 9 6 o X X X X O : : $                                           ",
"                                                        g g d 9 6   X X X X X + : Z r.                                          ",
"                                                          9 9 4       X X X X       u.                                          ",
"                                                          6 4                                                                   ",
"                                                          [ C                                                                   ",
"                                                        7.0.F                                                                   ",
"                                                      I.j.H                                                                     ",
"                                                                                                                                ",
"                                                                                                                                ",
"                                                                                                                                ",
"                                                                                                                                ",
"                                                                                                                                ",
"                                                                                                                                ",
"                                                                                                                                ",
"                                                                                                                                ",
"                                                                                                                                ",
"                                                                                                                                ",
"                                                                                                                                ",
"                                                                                                                                ",
"                                                                                                                                ",
"                                                                                                                                ",
"                                                                                                                                ",
"                                                                                                                                "
};
