/* XPM */
static char *b1bcd0ddd7c44bcf821102b4bdcdb6f7as1yQFHxRDsH1qO5[] = {
/* columns rows colors chars-per-pixel */
"64 64 230 2 ",
"   c #030403",
".  c #0A0504",
"X  c #060A06",
"o  c #0B0A04",
"O  c #070809",
"+  c #0B0C0B",
"@  c #160F07",
"#  c #120D0B",
"$  c #0D110F",
"%  c #14120C",
"&  c #1B1508",
"*  c #120F10",
"=  c #0D1212",
"-  c #0F181A",
";  c #131313",
":  c #161916",
">  c #191816",
",  c #151C1A",
"<  c #1C1B1B",
"1  c #23190D",
"2  c #221D15",
"3  c #21191C",
"4  c #15201C",
"5  c #1D221D",
"6  c #2E230F",
"7  c #23231E",
"8  c #2A251B",
"9  c #332518",
"0  c #231F20",
"q  c #1C2323",
"w  c #232322",
"e  c #252822",
"r  c #282926",
"t  c #2C2B2A",
"y  c #332B28",
"u  c #2A3225",
"i  c #2D312B",
"p  c #32332C",
"a  c #393628",
"s  c #3D342C",
"d  c #323030",
"f  c #343533",
"g  c #353933",
"h  c #3A3935",
"j  c #3B3C3B",
"k  c #402E18",
"l  c #443527",
"z  c #4B3B25",
"x  c #443B2B",
"c  c #513F2B",
"v  c #443A36",
"b  c #394234",
"n  c #3D423B",
"m  c #666D17",
"M  c #676D18",
"N  c #696F18",
"B  c #6B7117",
"V  c #6C711A",
"C  c #72751B",
"Z  c #75781E",
"A  c #4A412E",
"S  c #544028",
"D  c #42423A",
"F  c #494638",
"G  c #584738",
"H  c #685039",
"J  c #747720",
"K  c #757921",
"L  c #797C22",
"P  c #7B7E2A",
"I  c #7A7E3D",
"U  c #3F4A46",
"Y  c #454A44",
"T  c #484845",
"R  c #4B4D4A",
"E  c #544B46",
"W  c #4B5247",
"Q  c #4B5249",
"!  c #57574C",
"~  c #4E5552",
"^  c #545554",
"/  c #5D5457",
"(  c #555B54",
")  c #5A5A54",
"_  c #565B5A",
"`  c #5D5D5C",
"'  c #635544",
"]  c #6A544D",
"[  c #645B4B",
"{  c #695849",
"}  c #745C47",
"|  c #655D59",
" . c #5C6557",
".. c #5E635B",
"X. c #7C634C",
"o. c #787E41",
"O. c #696652",
"+. c #6B6355",
"@. c #63655B",
"#. c #686659",
"$. c #776958",
"%. c #74745A",
"&. c #665D60",
"*. c #5C6260",
"=. c #636464",
"-. c #6B6565",
";. c #666B63",
":. c #6A6B64",
">. c #6D6E6B",
",. c #756E69",
"<. c #6C7264",
"1. c #6C726C",
"2. c #797668",
"3. c #6A6E71",
"4. c #6D7773",
"5. c #747474",
"6. c #777A77",
"7. c #867E26",
"8. c #90783A",
"9. c #83634A",
"0. c #836A52",
"q. c #886E55",
"w. c #86745B",
"e. c #847965",
"r. c #877A68",
"t. c #8C786E",
"y. c #7E8125",
"u. c #7E812E",
"i. c #7F8231",
"p. c #7D8241",
"a. c #798277",
"s. c #8C8628",
"d. c #918B2B",
"f. c #828435",
"g. c #85883C",
"h. c #86893C",
"j. c #A78839",
"k. c #AA9635",
"l. c #B9963F",
"z. c #828543",
"x. c #888B46",
"c. c #8C8E4A",
"v. c #8E914C",
"b. c #898A55",
"n. c #959759",
"m. c #B99442",
"M. c #8C8A67",
"N. c #97836B",
"B. c #999B63",
"V. c #888378",
"C. c #998776",
"Z. c #9C9B7E",
"A. c #A48C6A",
"S. c #A78D75",
"D. c #AB947E",
"F. c #BA9679",
"G. c #A2A36A",
"H. c #A4A675",
"J. c #857F81",
"K. c #7F8481",
"L. c #828383",
"P. c #8B8585",
"I. c #868A86",
"U. c #8C8B8C",
"Y. c #938B89",
"T. c #8D9783",
"R. c #8E958C",
"E. c #9A9788",
"W. c #8F9594",
"Q. c #939392",
"!. c #999994",
"~. c #9C9C9C",
"^. c #A39787",
"/. c #B99D85",
"(. c #A29C96",
"). c #9EA09F",
"_. c #A8A48B",
"`. c #B6B689",
"'. c #ADA797",
"]. c #A4A39E",
"[. c #BAAA96",
"{. c #B7B798",
"}. c #9E9EA0",
"|. c #9DA6A9",
" X c #A4A4A4",
".X c #A9A8A6",
"XX c #ACACAB",
"oX c #B2AEA8",
"OX c #AEB1AC",
"+X c #B6B3AA",
"@X c #ACB1B3",
"#X c #B3B3B5",
"$X c #BAB9B7",
"%X c #C7A78B",
"&X c #C7BA86",
"*X c #C7AC93",
"=X c #CDB69C",
"-X c #D3B69A",
";X c #E0BE9B",
":X c #C4BBA9",
">X c #D5BDA3",
",X c #C2BBB7",
"<X c #BBC1BD",
"1X c #C1C29E",
"2X c #CBC6A8",
"3X c #CAC4B8",
"4X c #D9C9B3",
"5X c #D8CBB9",
"6X c #E4C3A4",
"7X c #E8C9AC",
"8X c #E4CEB5",
"9X c #EAD6BD",
"0X c #F8D8B9",
"qX c #BBBFC0",
"wX c #BDC2C2",
"eX c #C5C4C4",
"rX c #C9C9C8",
"tX c #D3CDC9",
"yX c #D5D2C8",
"uX c #CACED1",
"iX c #CFD2D2",
"pX c #D3D3D3",
"aX c #D5D9D3",
"sX c #E8DBC7",
"dX c #E9DCCE",
"fX c #EDE1CA",
"gX c #F7E4CB",
"hX c #F8EBD7",
"jX c #FFF1DA",
"kX c #ECE8E5",
/* pixels */
"C C C C C C C C C C C C C C C C C L y.L Z Z Z L C C p.p.Z C C C C C C C C C C C C C C C C C C C C C C C C C C C C C C C C C C I ",
"C C C C C C C C C C C C C C C C C C L L L Z m Z Z u.@X].b.i.h.f.u.P u.f.Z C C C C C C C C C C C C C C C C C C C C C C C C C C Z.",
"C C C C C C C C C C C C C C C C C Z V Z L L N z._.:.) ;.;.( ..=._ *.~ _ !.K C C C C C C C C C C C C C C C C C C C C C C C C C M ",
"C C C C C C C C C C C C C C C C C L L V Z L z.+X.XOX5.1.I.L.L.K.I.W.6.j h L.h.C C C C C C C C C C C C C C C C C C C C C C C C C ",
"C C C C C C C C C C C C C C C C C N Z L m Z _.` $XpX>.>.~.~. X}. XwXwXW.I.I.}.Z C C C C C C C C C C C C C C C C C C C C C C C C ",
"C C C C C C C C C C C C C C C C C C N Z N N =.>.rXrX| >.!.~. X}.XX#XwXuXiXXXU.|.u.C C C C C C C C C C C C C C C C C C C C C C C ",
"C C C C C C C C C C C C C C C C C C C p.p.K =.(.kXrX-.>.Y.~.!.U.Q.!. XOX$XqX#X3.L.v.C C C C C C C C C C C C C C C C C C C C C C ",
"C C C C C C C C C C C C C C C C C C C !.|.P >.,XkXeX) D -.(.(.]. X]..XeXrXpXuX_ =.pXC C C C C C C C C C C C C C C C C C C C C C ",
"C C C Z Z Z C C C C C C C C C C C C C 8.T.h.:.$X3X(.V.2.V.P.(.(.].].XX$XeXiXwXQ.L.XXZ C C C C C C C C C C C C C C C C C C C C C ",
"C C Z L y.L C C C C C C C C C C C C C M M v.:.,X2.#.:XdX(.| ,.^.Y.E.Y.!. XXX#XrX X5.$XC C C C C C C C C C C C C C C C C C C C C ",
"C C L L L C C C C C C C C C C C C C C C C v.#.'.+.! :XhXyX^.$.| +.[ $.(.3XtXeXeX~._ @XZ C C C C C C C C C C C C C C C C C C C C ",
"C C Z Z N C C C C C C C C C C C C C C C C c.E 2.$.V.3X+X'.^.2.' ' G { V.oX,XeXrXQ.=.$XZ C C C C Z Z C C C C C C C C C C C C C C ",
"C C N N C C C C C C C C C C C C C C C C C x.x G ^.3XsXe.x ' e.C.C.$.G G t.E.+XpX X` #XZ C C C C L y.Z Z C C C Z Z C C C C C C C ",
"C C C C C C C C C C C C C C C C C C C C C h.s x '.sX5X2.' r.$.$.D./.N.G G 2.$XtX!.^ #XZ C C C C C L L L C C Z y.L C C C C C C C ",
"C C C C C C C C C C C C C C C C C C C C C f.x A ^.dX5Xe.r.'.' ' D.>X*X} l ,.3XtXU.` $XZ C C C C C N Z Z C Z L y.C C C C C C C C ",
"C C C C C C C C C C C C C C C C C C C C C x.x A '.sX5XN.e.[.{ ' -X0X/.X.l ,.3XdX.X=.#XZ C C C C C C N N C L L Z C C C C C C C C ",
"C C C C C C C C C C C C C C C C C C C C C v.[ ^.5XfXsXC.r.4XS.N.6XF.9.H { ^.3XaX~.` #XZ C C C C C C C C C Z Z N C C C C C C C C ",
"C C C C C C C C C C C C C C C C C C C C C v.+.3XsXjXgX[.[.sX=X=X%XA.H z r.+X$XQ.5.U.pXC C C C C C C C C C N N C C C C C C C C C ",
"C C C C C C C C C C C C C C C C C C C C C v.+.5XhXgXhXhXgXgX9X7X%XF.0.G M.'.'.! >.eXn.C C C C C C C C C C C C C C C C C C C C C ",
"C C C C C C C C C C C C C C C C C C C C C P E.V.5XhXjXfXgXgX9X8X*Xt.0.$.$.V.T.W >.pXC C C C C C C C C C C C C C C C C C C C C C ",
"C C C C C C C C C C C C C C C C C C C C C C P C.E.:XfXsXsX9X8X>X/.} G $.F F  .b =.yXC C C Z C C C C C C C C C C C C C C C C C C ",
"C C C C C C C C C C C C C C C C C C C C C C C L 2.%.{.fX9X4X=XN.} z l A a u b 8 :.3XC C C C C C C C C C C C C C Z Z C C C C C C ",
"C C C C C C C C C C C C C C C C C C C C C C C C u._.r.e.e.w.w.} G [ +.[ 2.2.a.#.@.V.P C C C C C C C C C C C C C Z y.Z C C C C C ",
"C C C C C C C C C C C C C C C C C C C C C C C C C B.[ O.[ z z A E +.,.<.a.a.<. .W b $XC C C C C C C C C C C C C C y.y.Z C C C C ",
"Z C C C C Z Z C C C C C C C C C C C C C C C C C C W #.2.[ 1 6 F #.#.@.@.@.W b b u D OXC C C C C C C C C C C C C C Z L L V Z Z Z ",
"y.Z C C Z y.L C C C C C C C C C C C C C C C C C i.g @.#.s & 1 F 2.;.;.<.W W ;. .( ....n.C C C C C C C C C C C C C N z.z.V L L L ",
"y.y.C Z L L C C C C C C C C C C C C C C C C C C h.p T D 8 7 2 D ~ R Q ..n  .R.!.I.R.1.6.oXC C C C C C C C C C C C p.!.|.P L Z C ",
"Z Z C L L m C C C C C C C C C C C C C C C C C C P f t p p p i g i g f b Y <.R.!.!.R.R.1...{.C C C C C C C C C C C |.A.T.P Z N C ",
"N N C Z Z N C C C C C C C C C C C C C C C C C C 2.~ g R ~ Y ( ~ Q ( Q g ..4.1.6.1.:.a._ Y <XC C C C C C C C C C C T.T.N Z N C C ",
"C C C N N C C C C C C C C C C C C C C C C C C %.D T p ;.4.Q 1.4.( Q Y i R ( R R Q R Y ~ K.aXC C C C C C C C C C C M M C C C C C ",
"C C C C C C C C C C C C C C C C C C C C C C C 2.h i p 4.I._ a.a.Y i i e i f f i g g g 4.rXf.C C C C C C C C C C C C C C C C C C ",
"C C C C C C C C C C C C C C C C C C C C C C C B.! s s W ( Q 6.4.n 5 : 5 5 : > : : t 4.rXf.C C C C C C C C C C C C C C C C C C C ",
"C C C C C C C C C C C C C C C C C C C C C C C C [ x 9 F @.W Q U r , q 4 = X   O O e .Xh.C C C C C C C C C C C C C C C C C C C C ",
"C C C C C C C C C C C C C C C C C C C C C C C c.c k z +.+.D 7 r q , q , X   O @ . 2 .XC C C C C C C C C C C C C C C C C C C C C ",
"C C C C C C C C C C C C C C C C C C C C C C h.S } w.C.$.A y 8 7 q - = $ + % > @ . 8 .XZ C C C C C C C C C C C C C C C C C C C C ",
"C C C C C C C C C C C C C C C C C C C C C P G q.S./.*XC.' & 2 5 , - = $ X % 8 1 1 G t.G.C C C C C C C C C C C C C C C C C C C C ",
"C C C C C C C C C C C C C C C C C C C C C f.X.%X*XF.%X-X/.x & % ; , $ + # 2 y 1 l e.] V.f.C C C C C C C C C C C C C C C C C C C ",
"C C C C C C C C C C C C C C C C C C C C K N.S.6X7X;X6X0X4X^.a o : = + ; e s l 9 ' C.G w.2XC C C C C C C C C C C C C C C C C C C ",
"C C C C C C C C C C C C C C C C C C C 7.' X.%X6X0X0X0XgX9X[.x o o $ < t v v x G $.C.G r.`.C C C C C C C C C C C C C C C C C C C ",
"C C C C C C C C C C C C C C C C C C 7.m.+.w.%X6X0X0X0X0X8X^.x o X + e D E v s G $.t.] t.2XC C C C Z Z C C C C C Z C C C C C C C ",
"C C C C C C C C C C C C C C C C C C j.j.>Xt.0./.-X-X-XN.$.[ 8 @ p f g n F v v G ' ] ^.tXx.C C C C L y.Z Z C Z Z L C C C C C C C ",
"C C C C C C C C C C C C C C C C C C M j.j.n.N.q.X.0.X.G 6 9 F ) (  ...;.@.E s y E P.5XL C C C Z Z Z L L Z Z L L C C C C C C C C ",
"C C C C C C C C C C C C C C C C C C C M M C &X$.H G l 9 1 8 @.V.:.:.:.:.;.) h 2 E ,XP C C C Z Z y.y.V z.o.L L m C C z.z.Z C C C ",
"C C C C C C C C C C C C C C C C C C C C C C M H.3X^.l & 8 t Y Y Y D n n n n t % T rXC C C Z C C L L z.!.!.x.J N C C _.oXJ C C C ",
"C C C C C C C C C C C C C C C C C C C C C C C C C P y % 7 < q 5 7 7 5 > < 5 :   R 3XC C C C C C N Z T.A.A.T.o.z.Z C 8.Z.Z C C C ",
"C C C C C C C C C C C C C C C C C C C C C C C C K 7 ; # O   = , ; : = + + + + X R +XC C C C C C C N M T.T.o._.oXJ C M M C C C C ",
"C C C C C C C C C C C C C C C C C C C C C C C C x.+ > 7 q < =   O +         X = , ( h.C C C C C C C C M M oXA.E.Z C C C C C C C ",
"C C C C C C C C C C C C C C C C C C C C C C C C %.; r < 5 q , ; O + O O + + + , + 5 XXC C C C C C C C C C Z.E.N C C C C C C C C ",
"C C C C C C C C C C C C C C C C C C C C C C C c.< w w < : < < < = + + X ; + = : ; r ~.C C C C C C C C C C M M C C C C C C C C C ",
"C C C C C C C C C C C C C C C C C C C C C C C ! < 5 r r < : + < =   + + + $ : < + < j B.C C C C C C C C C C C C C C C C C C C C ",
"C C C C C C C C C C C C C C C C C C C C C C C O.: d w < : < < ; < ^ R < + + + + + ; + *.{.C C C C C C C C C C C C C C C C C C C ",
"C C C C C C C C C C C C C C C C C C C C C C C %.w w : w q < + : h OXH.^ :   + + ; +   ^ {.C C C C C C C C C C C C C C C C C C C ",
"C C C C C C C C C C C C C C C C C C C C C C c.=.h < 0 w < < ; j ).`.C c...;   + + +   0 ` u.C C C C C C C C C C C C C C C C C C ",
"C C C C C C C C C C C C C C C C Z Z L P L b.f 5.5.^ r < + < =..X{.C C C i.>.: + + + + + < ` f.C C C C C C C C C C C C C C C C C ",
"C C C C C C C C C C C C C C C C C M.> < >   f P.~.5.t : : h #XG.C C C C C f.R + +   + + ; : ^ n.C C C C C C C C C C C C C C C C ",
"C C C C C C C C C C C C C C C Z %.3 # > w > T #XXXU.5.f T ~.yXC C C C C C C c.j O + + + < ; r ^ f.C C C C C C C C C C C C C C C ",
"C C C C C C C C C C C C C C C n.h / d 3 r > j 5.XXeXQ.d ^ rXZ C C C C C Z Z Z ! # + *   + : + r XXZ C C C Z C C C C C C C C C C ",
"C C C C C C C C C C C C C C C x.v -.&.w 0 d < t P. XL.R 6.tXC C C C C C Z C b.O + + +   + + : ^ eXL C Z Z Z C C C C C C C C C C ",
"C C C C C C C C C C C C C C C h.3 d P.5.t w w w h f f L.iXv.C C C C C C C b.# .     ; +   ; T .X`.L Z d.s.C C C C C C C C C C C ",
"C C C C C C C C C C C C C C C c.P.J.6.R > ; > < < + : !.1XC C C C C C C L f T | T > + O > ) XX{.Z Z s.l.l.s.C C C C C C C C C C ",
"C C C C C C C C C C C C C C C Z `.n.E.d * O O + ; ; : !.h.C C C C C C C P -.,.P.| >   > ) #XH.C B B k.j.j.k.7.7.C C C C C Z C C ",
"C Z C C C C C C C C C C C C C C C C C Y.t * > + < ; <  XP C C C C C C C C E.E v y # * E .XH.C C C C M k.k.N l.m.Z C C C C Z Z Z ",
"Z L C C Z Z Z C C C C C C C C C C C C C _.Q.>.w +   ; !.Z Z Z C C C C C C C _.Y.!.Y.Y.+X2XZ C C C C C M M C 8.j.Z C C C C C L L ",
"L Z C Z L y.L C C C C C C C C C C C C C C Z C M.r w h XXZ Z Z C C C C C C Z C f.f.L f.L C Z C C C C C C C C M M C C C C C C Z s."
};
