/* XPM */
static char *_c5750442ea9412f8ad465e7b9f53a890Ot4ReIpvvOTUHSG[] = {
/* columns rows colors chars-per-pixel */
"64 64 105 2 ",
"   c None",
".  c black",
"X  c #010101",
"o  c #0B0B0B",
"O  c gray7",
"+  c #131313",
"@  c #181414",
"#  c #1E1C1B",
"$  c #1E1C1C",
"%  c #1B1622",
"&  c #261C26",
"*  c #371E20",
"=  c #381E21",
"-  c #391F21",
";  c #3A1F21",
":  c #3B1F22",
">  c #3C1F21",
",  c #3F1F22",
"<  c #252525",
"1  c gray15",
"2  c #272727",
"3  c #282828",
"4  c gray17",
"5  c #2F2C2A",
"6  c #2D2D2D",
"7  c #372227",
"8  c #3B2021",
"9  c #3A2022",
"0  c #3F2223",
"q  c #3F2323",
"w  c #3C3C3C",
"e  c #3D3C3C",
"r  c gray24",
"t  c #531B25",
"y  c #551C27",
"u  c #551D27",
"i  c #571C27",
"p  c #591C27",
"a  c #591E28",
"s  c #41292B",
"d  c #5B2B28",
"f  c #5D2C28",
"g  c #63312B",
"h  c #282D4A",
"j  c #2A2F4E",
"k  c #2E304D",
"l  c #414B6D",
"z  c #831D29",
"x  c #841E2A",
"c  c #841E2B",
"v  c #851E2B",
"b  c #861F2C",
"n  c #881E2B",
"m  c #891E2B",
"M  c #BE242F",
"N  c #C12430",
"B  c #C32430",
"V  c #844533",
"C  c #884635",
"Z  c #8A4635",
"A  c #884736",
"S  c #8A4636",
"D  c #8A4836",
"F  c #8C4A37",
"G  c #B76B48",
"H  c #BA6B48",
"J  c #BC6B49",
"K  c #B86C48",
"L  c #BD6C49",
"P  c #BF6F4A",
"I  c #C0714B",
"U  c #C1714B",
"Y  c #DB9564",
"T  c #DC9564",
"R  c #DC9565",
"E  c #E09666",
"W  c #E59B69",
"Q  c #E59C69",
"!  c #E69C69",
"~  c #E79E6B",
"^  c #E39D6C",
"/  c #E49D6C",
"(  c #E69E6C",
")  c #0B6DA9",
"_  c #0C6EAA",
"`  c #848484",
"'  c gray52",
"]  c #8A8684",
"[  c #898786",
"{  c #B0ADAE",
"}  c #B2AFAE",
"|  c #B2AFAF",
" . c #B4B1AF",
".. c #B7B7B7",
"X. c #EBC198",
"o. c #EFC29A",
"O. c #F4C79C",
"+. c #F5C89C",
"@. c #F5C89D",
"#. c #F5C99E",
"$. c #F6CA9F",
"%. c #F4F4F4",
"&. c #FDFAF8",
"*. c #FEFCFA",
"=. c gray99",
/* pixels */
"                                                                                                                                ",
"                                                                                                                                ",
"                                                                                                                                ",
"                                                                                                                                ",
"                                                                                                                                ",
"                                                                                                                                ",
"                                                                                                                                ",
"                                                                                                                                ",
"                                                                                                                                ",
"                                                                                                                                ",
"                                                                                                                                ",
"                                                                                                                                ",
"                                                                                                                                ",
"                                                                                                                                ",
"                                                                                                                                ",
"                                                                                                                                ",
"                                                                                                                                ",
"                                                                                                                                ",
"                                                            - 8 8 -                                                             ",
"                                                        - 8 8 f d - - -                                                         ",
"                                              j l     - 8 f f d - - - - -                                                       ",
"                                              h k F - - f f f 8 8 - - - - -                                                     ",
"                                                V J - 8 f f f f f 8 8 - - -                                                     ",
"                                                  n - f f d d f f f f 8 8 -                                                     ",
"                                                i v 8 f d - - f f f d d d - - *                                                 ",
"                                                i - d d - - 0 d d f - - - - ,                                                   ",
"                                              ' 4 i - - - - G 0 0 d - - - - M                                                   ",
"                                              ] ' 1 i - - & % I I 7 s - - , , v                                                 ",
"                                              @.] X i - - &._ ( ! ) &.8 * N b O                                                 ",
"                                            @.@.!   1 i - ^ @.@.@.@.( - O N w O                                                 ",
"                                            O.@.R     i - } ( ( ( ( } - @ v 6 o                                                 ",
"                                            Y R       t i C  . .} } C i v 1 ..=.                                                ",
"                                                        i i H P F a i i 5 5 *...                                                ",
"                                                        i i p K P F a i W ! @.%.                                                ",
"                                                      i i i n 1 K P D a ! @.X.                                                  ",
"                                                    i i p p n 1 1 n C C E o.                                                    ",
"                                                    i p n n v 1 1 n n n p i                                                     ",
"                                                    p n n n 4 4 1 v n n n i                                                     ",
"                                                    z n n b w w 4 1 v n n t                                                     ",
"                                                      z b w w w w 1 1 z z                                                       ",
"                                                        w w w w w O 1 X                                                         ",
"                                                        1 w w w 1 O O                                                           ",
"                                                        1 1 1 1 1 X                                                             ",
"                                                          1 1 1 X                                                               ",
"                                                            # $                                                                 ",
"                                                            g g                                                                 ",
"                                                            Y R                                                                 ",
"                                                                                                                                ",
"                                                                                                                                ",
"                                                                                                                                ",
"                                                                                                                                ",
"                                                                                                                                ",
"                                                                                                                                ",
"                                                                                                                                ",
"                                                                                                                                ",
"                                                                                                                                ",
"                                                                                                                                ",
"                                                                                                                                ",
"                                                                                                                                ",
"                                                                                                                                ",
"                                                                                                                                ",
"                                                                                                                                ",
"                                                                                                                                ",
"                                                                                                                                "
};
