/* XPM */
static char *_6dd17fec72241b3f318dddf44f44c7abTOlcOtWitw5enSa[] = {
/* columns rows colors chars-per-pixel */
"64 64 156 2 ",
"   c None",
".  c #2C160A",
"X  c #4D2712",
"o  c #4E2812",
"O  c #522B15",
"+  c #5A3117",
"@  c #57321A",
"#  c #5A351C",
"$  c #5D391F",
"%  c #603B1F",
"&  c #5E3B22",
"*  c #5A3D29",
"=  c #613E23",
"-  c #5E422D",
";  c #5F4530",
":  c #634226",
">  c #65452A",
",  c #68462A",
"<  c #67482C",
"1  c #6A4A2D",
"2  c #624631",
"3  c #654A34",
"4  c #6C4E32",
"5  c #654E3B",
"6  c #6A4F38",
"7  c #704F31",
"8  c #6E5234",
"9  c #66513E",
"0  c #6D523B",
"q  c #715536",
"w  c #765837",
"e  c #735739",
"r  c #755A3A",
"t  c #795D3E",
"y  c #7B603F",
"u  c #675340",
"i  c #695642",
"p  c #6C5945",
"a  c #6D5B48",
"s  c #715741",
"d  c #735A43",
"f  c #7A5E41",
"g  c #735E49",
"h  c #7A6040",
"j  c #7B6040",
"k  c #7A6140",
"l  c #7B6140",
"z  c #7B6041",
"x  c #7B6141",
"c  c #7C6140",
"v  c #7D6140",
"b  c #7C6141",
"n  c #7D6141",
"m  c #7D6240",
"M  c #7D6241",
"N  c #7D6341",
"B  c #7E6240",
"V  c #7E6340",
"C  c #7E6241",
"Z  c #7E6341",
"A  c #7C6042",
"S  c #7D6042",
"D  c #7E6242",
"F  c #7F6342",
"G  c #7E6343",
"H  c #7F6343",
"J  c #7F6443",
"K  c #7E6344",
"L  c #7F6444",
"P  c #7F6544",
"I  c #7F6445",
"U  c #7E6446",
"Y  c #7F6546",
"T  c #7C6241",
"R  c #75624D",
"E  c #766551",
"W  c #786751",
"Q  c #776855",
"!  c #7A6A55",
"~  c #7D6D5A",
"^  c #7E705D",
"/  c #806543",
"(  c #806544",
")  c #806445",
"_  c #806545",
"`  c #806645",
"'  c #816645",
"]  c #816646",
"[  c #806647",
"{  c #806747",
"}  c #816747",
"|  c #826746",
" . c #836847",
".. c #836947",
"X. c #826947",
"o. c #816648",
"O. c #816748",
"+. c #816749",
"@. c #826749",
"#. c #826849",
"$. c #836849",
"%. c #82694A",
"&. c #84694A",
"*. c #846A4A",
"=. c #856B4A",
"-. c #846B4B",
";. c #866B4B",
":. c #876C4B",
">. c #846B4C",
",. c #866D4C",
"<. c #876D4D",
"1. c #856C4E",
"2. c #876D4E",
"3. c #876E4E",
"4. c #876E4F",
"5. c #846B4A",
"6. c #886C4C",
"7. c #886F4E",
"8. c #886E4F",
"9. c #896E4F",
"0. c #886F4F",
"q. c #896F4F",
"w. c #8A714E",
"e. c #8A714F",
"r. c #8B714F",
"t. c #876E50",
"y. c #806F5A",
"u. c #897050",
"i. c #8A7050",
"p. c #8B7151",
"a. c #8B7152",
"s. c #8B7252",
"d. c #8D7353",
"f. c #8C7353",
"g. c #8B7355",
"h. c #8D7354",
"j. c #8D7454",
"k. c #8E7555",
"l. c #8F7755",
"z. c #8F7657",
"x. c #8F7656",
"c. c #82725D",
"v. c #907857",
"b. c #917858",
"n. c #927958",
"m. c #937B5B",
"M. c #947C5B",
"N. c #937B5C",
"B. c #957D5E",
"V. c #957E5E",
"C. c #837462",
"Z. c #877864",
"A. c #867865",
"S. c #897A66",
"D. c #877A68",
"F. c #897C6B",
/* pixels */
"                                                                                                                                ",
"                                                                                                                                ",
"                                                                                                                                ",
"                                                                                                                                ",
"                                                                                                                                ",
"                                                                                                                                ",
"                                                                                                                                ",
"                                                    t t t t t $ t t t t t                                                       ",
"                                            t t t = w.w.w.6.:.+ :.:.:.:.:.# 4 4 4                                               ",
"                                        t t x.v.b.% b.b.v.d.d.# x.h.d.d.i.# t t t 1 1                                           ",
"                                    q % i.b.M.V.V.% i.i.i.<.i.$ i.i.6.6.<.# +.+.+.+.r $ ,                                       ",
"                                  r *.$ x.i.N.x.x.% t t r r _ $ t t t t n $ n n <.>.L = q ,                                     ",
"                                w 6.x.% 6.r 6.J n = n n t r K = t t n n n : , q n f >.: f q ,                                   ",
"                              , *.x.6.= r n *.L n : n n n t K , t y n n y , q L j j j : #.f q #                                 ",
"                              q <.<.t = w <._ _ L , n n n n K , t n n n y , L j j j j , j _ f :                                 ",
"                            : #.#.r t : t *._ _ _ , n n n n K , y n n n y , n j j j j 1 t y _ f #                               ",
"                            q g.r r t , _ L L L _ , n n n j K , n n n n n 1 n j j j f 4 y y y <.:                               ",
"                          : _ +.r r r , K _ _ _ L , j j j j _ , n n n n n 1 j j j j j 4 y y t +.f @                             ",
"                          : t.r r r r 1 K L _ _ L , j j j j _ , / n n n J 1 j j j j j 8 y y t t g.@                             ",
"                          = L r r r r 1 n L L w L 1 j j j j _ , _ n n n J 1 j q j j j 8 t t t t #.O                             ",
"                          # 1 1 1 1 1 , q q q f w 1 f f f f L , ..n n n n 1 q f q 8 8 , 4 4 4 1 1 O                             ",
"                          # 6 6 0 0 0 e e e e S.f , f f f f L , ..n n n n , f A.e e 0 0 0 6 0 6 6 O                             ",
"                          @ R R ! ! ! c.c.c.c.! Z.d q f f f L , ..n n n q f A.! y.~ ! ! ! ! ! R R O                             ",
"                          @ d d R R R ! ! ! ! ! ! d 4 t t t J , #.n n n 7 g ! ! ! W R R R R R p p O                             ",
"                          @ > > 3 3 3 6 6 6 0 ! 0 = t t t t n , #.n n n n & 6 ! 6 6 3 3 3 3 3 > > O                             ",
"                          @ # # # $ $ @ & & & 0 = 8 t t t t n , #.n n n n 1 $ 6 $ $ $ $ $ $ $ $ $ O                             ",
"                          O 4 1 1 4 4 $ q q q & 4 8 t t t t n , *.n n n n 1 q $ q q q 4 8 8 4 4 4 O                             ",
"                          O e r r r r = f j j q 4 4 t t t t n , :.n n n n 1 j q f f f 8 e r e e e O                             ",
"                          O e e r r r , j f f f 1 4 t t t t K , <.n n n n 1 n t t t t 8 e e e e e O                             ",
"                          O e e e r r 1 j t t t 1 4 t t t t n , <.n n n n 1 n t t t t 8 e e e e e O                             ",
"                          O q e q q e 1 n t t t 8 4 t t t t n , <.n n n n 1 n t t t t 8 e e e e e O                             ",
"                          O q q q e e 1 j t t t r 4 r t t t n , <.n n n n 4 n t t t t 8 q q q q q O                             ",
"                          O q e e e e 1 j r r r r 4 r r r 1 q : w 4 y y y 8 n t t t t 4 q q q q q O                             ",
"                          O q e e e e 1 j r r r r 4 r r 1 s d d d s 4 y y 8 n t t t t 4 q q q q q O                             ",
"                          O q q q q e 1 j r r r r 4 r r $ c.c.c.c.c.$ t t 8 n t t t t 1 q q 8 8 8 O                             ",
"                          O q q q q q 4 f r e e e 4 r r $ R R 3 R R $ t t 8 j r r r r < 8 8 8 8 8 O                             ",
"                          O q q q q q 1 f q e e e 4 r r @ g g O R g @ r t 4 j r r r r , 8 8 8 8 8 O                             ",
"                          O q q q q q 1 f q q q e 4 r r O p p * p p O r r 4 j r r r r , 8 8 8 8 8 O                             ",
"                          O q q q q q 1 j q q 1 q 1 e r # : : : : - # r r 1 j 4 r r r , 8 8 8 8 8 o                             ",
"                          o , , , > > : 4 1 1 d 1 1 e e 4 # # O # # 4 r r 1 4 d 4 1 1 = , , : : : o                             ",
"                          o 3 3 6 6 6 0 0 0 0 Z.s , e e e 4 4 $ 8 4 r e r , d c.0 0 6 6 6 6 6 3 3 o                             ",
"                          o R R E E E ~ ~ ~ ~ E c.s 1 e e e e : r r e e 4 d c.R ! ! R R R R E g g o                             ",
"                          o i i g g g R R R E W W s , q e e e : e e e r , d R R R R a a a a a 0 0 o                             ",
"                          o - - 2 2 2 3 3 3 3 W 3 # e q e e e : e e e e q # 3 R 3 2 2 > > > > - - o                             ",
"                          o @ @ # # # O # $ $ 3 # : e q q q e : q q q q q : $ 2 # # # @ # # @ @ @ o                             ",
"                          o , , , 1 1 # 4 4 4 # 1 : q q q q q & q q q q 8 : 8 # 4 4 4 = < , , , , X                             ",
"                          o 8 8 8 8 8 & 8 8 8 4 q : q q q q q # q 8 8 8 8 = r 4 r r r = 4 4 4 4 4 X                             ",
"                          o 8 8 8 8 8 & 8 8 8 8 q = q q q q q @ 8 8 8 8 8 = r r r r r * 4 4 4 4 4 X                             ",
"                          o : , , , , & > > > > > & , , , : : O : : , , , & 1 1 1 1 1 $ : : = & & X                             ",
"                          o 2 3 3 3 3 6 3 3 3 3 6 3 3 3 3 3 3 o 5 5 3 3 3 3 6 3 3 3 3 2 2 2 2 - > X                             ",
"                          o ! ! ~ ~ ~ ~ ~ ~ ~ ^ c.c.c.c.C.D.D.o F.F.Z.C.C.C.~ ~ ~ ~ ~ ~ ~ ~ ~ ~ ~ X                             ",
"                          o E Q ! ! ! ! ! ! ! ! ~ ~ ~ ~ ~ C.A.o A.C.^ ^ ~ ~ ! ! ! ! ! ! E E E E E X                             ",
"                          o 9 9 9 9 u u u i p p p p p p a a E o E a a a a p p p p i i i 5 9 9 5 5 X                             ",
"                          o 9 9 9 9 u u u i p p p p p p a a E o E a a a p p p p p i i i 9 9 5 5 5 X                             ",
"                          o 5 5 5 u i i i i p p p p p p a a E o E a a a a p a p i i i i i i 9 5 5 X                             ",
"                          o * * * - - - - - - - - - - ; ; ; 3 o 3 ; ; ; ; ; ; ; - - - - - - - * * X                             ",
"                          . . . . . . . . . . . . . . . . . . . . . . . . . . . . . . . . . . . . .                             ",
"                                                                                                                                ",
"                                                                                                                                ",
"                                                                                                                                ",
"                                                                                                                                ",
"                                                                                                                                ",
"                                                                                                                                ",
"                                                                                                                                "
};
