/* XPM */
static char *_dca9f5a6c4a4b3d81783ae59b85bd1dCLixbCgCPVmSVyxK[] = {
/* columns rows colors chars-per-pixel */
"64 64 137 2 ",
"   c None",
".  c #371C0D",
"X  c #3E200F",
"o  c #3F2411",
"O  c #452411",
"+  c #482612",
"@  c #4C2A14",
"#  c #4D2D18",
"$  c #522C16",
"%  c #532E19",
"&  c #4F301A",
"*  c #563017",
"=  c #54321B",
"-  c #5A351B",
";  c #5D381E",
":  c #573620",
">  c #593721",
",  c #573820",
"<  c #5C3C24",
"1  c #5B3E2A",
"2  c #623D22",
"3  c #603F28",
"4  c #5F4027",
"5  c #5C412C",
"6  c #5C4533",
"7  c #5F4835",
"8  c #634226",
"9  c #694527",
"0  c #64442A",
"q  c #69462A",
"w  c #66492D",
"e  c #6A4B2E",
"r  c #654B34",
"t  c #6C4E31",
"y  c #634C39",
"u  c #704F32",
"i  c #6E5234",
"p  c #66513E",
"a  c #6B533D",
"s  c #715335",
"d  c #735639",
"f  c #755A3B",
"g  c #795C3E",
"h  c #675340",
"j  c #6A5543",
"k  c #6C5947",
"l  c #6E5C48",
"z  c #735C45",
"x  c #7B5F40",
"c  c #715E4A",
"v  c #7D6243",
"b  c #74614D",
"n  c #766452",
"m  c #7A6650",
"M  c #7C6A55",
"N  c #7D6C59",
"B  c #7E705E",
"V  c #816647",
"C  c #816748",
"Z  c #856B4F",
"A  c #846B4C",
"S  c #856C4C",
"D  c #866C4C",
"F  c #866D4D",
"G  c #876E4D",
"H  c #866E4E",
"J  c #876E4F",
"K  c #846A4B",
"L  c #886E4D",
"P  c #88704F",
"I  c #89704F",
"U  c #876E50",
"Y  c #896F50",
"T  c #806D59",
"R  c #806F5A",
"E  c #897051",
"W  c #8B7153",
"Q  c #8B7252",
"!  c #8A7352",
"~  c #8C7250",
"^  c #8C7353",
"/  c #8C7453",
"(  c #8B7254",
")  c #8C7354",
"_  c #8C7355",
"`  c #8B7456",
"'  c #8C7454",
"]  c #8C7455",
"[  c #8D7455",
"{  c #8E7554",
"}  c #8D7556",
"|  c #8D7557",
" . c #8E7657",
".. c #8B7151",
"X. c #82705C",
"o. c #8D7558",
"O. c #8E7558",
"+. c #8E7658",
"@. c #8F7758",
"#. c #8E7659",
"$. c #8F7659",
"%. c #8F7759",
"&. c #8F7858",
"*. c #907857",
"=. c #927957",
"-. c #907858",
";. c #907859",
":. c #917959",
">. c #927A59",
",. c #937B5A",
"<. c #937B5B",
"1. c #937C59",
"2. c #90785C",
"3. c #91795C",
"4. c #91795D",
"5. c #917A5D",
"6. c #917A5E",
"7. c #947C5C",
"8. c #947D5C",
"9. c #957D5C",
"0. c #947C5D",
"q. c #947D5D",
"w. c #957D5D",
"e. c #957E5D",
"r. c #967E5E",
"t. c #967F5E",
"y. c #877661",
"u. c #897763",
"i. c #98815F",
"p. c #99825F",
"a. c #978160",
"s. c #998260",
"d. c #998361",
"f. c #988262",
"g. c #998363",
"h. c #998364",
"j. c #9A8364",
/* pixels */
"                                                                                                                                ",
"                                                                                                                                ",
"                                                                                                                                ",
"                                                                                                                                ",
"                                                                                                                                ",
"                                  r t t ;                                           0 d d d                                     ",
"                                4 P v v ;                                           4 ^ F F s                                   ",
"                                r P C v ;                                           4 L P F g                                   ",
"                              4 ] F A s ;                                           4 x ] ^ W s                                 ",
"                              4 / F F s -                                           4 x *.] ^ s                                 ",
"                              r / F F s -                                           < x i.<.&.g                                 ",
"                            < ] ) W A i -                                           < v 1.<.<.o.s                               ",
"                            < o.) ^ s t -                                           < v v g.<.<.u                               ",
"                            < 3.o.] s i -                                           4 v v g.9.9.u                               ",
"                            < 3.o.] s i -                                           0 x v h.9.9.t                               ",
"                            r 3.o.] i t -                                           3 v v h.9.9.d                               ",
"                          < 3.o.] U i t -                                           1 v v 9.a.9.9.w                             ",
"                          > 3.o.] i i t -                                           4 v v v h.9.9.q                             ",
"                          > 3.o.` s t t *                                           < v v v g.9.<.q                             ",
"                          > 3.( W i w t *                                           < v x v g.<.] 9                             ",
"                          > 3.W W t > 0 *                                           < g d g i.*.] 8                             ",
"                          > A V v - y * $                                           > q R s ^ A V 2                             ",
"                          , w w 0 > 5 - $                                           > q z s t s t 2                             ",
"                          : M X.R j * w *                                           2 f 2 N u.u.y.2                             ",
"                          : z b b r - w $                                           * g q z m M M 2                             ",
"                          : a a a - w e $                                           * g v 8 z z z <                             ",
"                          = - - - w e e $                                           * g v g 9 2 2 -                             ",
"                          = s s i e e w %                                           * g V v A g g ;                             ",
"                          = v v v t w 0 >                                           < d v v W A K ;                             ",
"                          = v v v t w $ y %                                       * N 2 g v W K K ;                             ",
"                          = v v v w w $ 5 $                                       * c 2 f x W K V ;                             ",
"                          = v g f w 0 $ 5 $                                       % c 2 f g W v v -                             ",
"                          = v g f w 0 $ 5 $                                       $ z < f g Y v v -                             ",
"                          = v g f w 0 * 1 O                                       o a 2 d f F v x -                             ",
"                          = v g f 0 0 0 =                                           @ s f d F v g -                             ",
"                          = x g g 0 8 8 $                                           @ s d d A v g *                             ",
"                          & x g f 0 8 8 $                                           @ u s s K x g *                             ",
"                          & x f s 0 8 8 $                                           @ t t s K f f *                             ",
"                          & g f s 0 < 2 $                                           + q w e V f f *                             ",
"                          # g f s < = < $                                           + ; b < v f f *                             ",
"                          + s i i $ y % $                                           + < y 0 f t t %                             ",
"                          O 1 0 0 = 1 * $                                           O 0 - c 1 < > $                             ",
"                          O m N M h % - =                                           = 8 - y M N N *                             ",
"                          O j c c 5 * @ 7 %                                       O c * 8 - j c c *                             ",
"                          O y a a * ; $ 5 $                                       O y % q ; y a a %                             ",
"                          O % * * ; - = 5 $                                       O y > 8 0 - * * $                             ",
"                          O w w e < $ y 6 $                                       O y l % q d i t $                             ",
"                          O f s s < $ 5 1 O                                       . 6 j % q v f s $                             ",
"                          O f s s ; = 6 $                                           O p < 8 v f s $                             ",
"                          O i t t $ y 6 $                                           O p M * s t t $                             ",
"                          O = > : = 5 1 O                                           . y l 1 : : = $                             ",
"                          O c n n p 6 $                                               O j B b c c %                             ",
"                          O l k k 6 6 $                                               O j N j j j %                             ",
"                          O l k k 6 1 O                                               . y N j j j %                             ",
"                          O l k k 6 $                                                   O n j j j %                             ",
"                          O k k j 6 $                                                   O n j j j %                             ",
"                          O p y y 5 O                                                   . j y y y $                             ",
"                          . X X X X                                                       . X X X X                             ",
"                                                                                                                                ",
"                                                                                                                                ",
"                                                                                                                                ",
"                                                                                                                                ",
"                                                                                                                                ",
"                                                                                                                                "
};
