/* XPM */
static char *_fd4b09137b343e6a2ab308c83bd121dFVh16QYrNiJ46Axt[] = {
/* columns rows colors chars-per-pixel */
"64 64 141 2 ",
"   c #4B2E12",
".  c #522C16",
"X  c #532E19",
"o  c #4A3413",
"O  c #4E3D14",
"+  c #533316",
"@  c #55321A",
"#  c #5A351B",
"$  c #553A1C",
"%  c #5B3A1D",
"&  c #573520",
"*  c #593721",
"=  c #5D3A22",
"-  c #5A3E2A",
";  c #623D22",
":  c #5D411F",
">  c #575515",
",  c #545813",
"<  c #595B16",
"1  c #5A5918",
"2  c #5D6116",
"3  c #5F601A",
"4  c #606117",
"5  c #666C17",
"6  c #686F16",
"7  c #616219",
"8  c #666918",
"9  c #696E19",
"0  c #6B7117",
"q  c #6E721A",
"w  c #72751B",
"e  c #75781E",
"r  c #5D4322",
"t  c #5A412E",
"y  c #5C4533",
"u  c #5F4835",
"i  c #624426",
"p  c #694527",
"a  c #64442A",
"s  c #69462A",
"d  c #66492D",
"f  c #694B2E",
"g  c #634C37",
"h  c #6C4E31",
"j  c #634C39",
"k  c #704F32",
"l  c #6E5234",
"z  c #66513E",
"x  c #6B533D",
"c  c #715335",
"v  c #735639",
"b  c #755A3B",
"n  c #795C3E",
"m  c #737521",
"M  c #787121",
"N  c #767A21",
"B  c #797C22",
"V  c #72783D",
"C  c #797D3D",
"Z  c #675340",
"A  c #6A5643",
"S  c #6C5947",
"D  c #6E5C48",
"F  c #735C45",
"G  c #7B5F40",
"H  c #715E4A",
"J  c #7D6243",
"K  c #74614D",
"L  c #747D40",
"P  c #7A7E41",
"I  c #766452",
"U  c #7A6650",
"Y  c #7C6A55",
"T  c #7D6C59",
"R  c #7E705E",
"E  c #867E26",
"W  c #887F26",
"Q  c #907431",
"!  c #927B30",
"~  c #907A3F",
"^  c #816647",
"/  c #816748",
"(  c #856B4C",
")  c #886E4D",
"_  c #88704F",
"`  c #876E50",
"'  c #896F50",
"]  c #806E5A",
"[  c #8C7354",
"{  c #82705C",
"}  c #8E7659",
"|  c #917957",
" . c #927A5A",
".. c #91795D",
"X. c #947D5D",
"o. c #877661",
"O. c #897763",
"+. c #7F8226",
"@. c #7D8241",
"#. c #7E8445",
"$. c #7C8571",
"%. c #898326",
"&. c #8C8629",
"*. c #918B2B",
"=. c #A48B36",
"-. c #AC853D",
";. c #B38E3F",
":. c #A49133",
">. c #AA9635",
",. c #BB9A3E",
"<. c #C3A53F",
"1. c #838440",
"2. c #828643",
"3. c #858644",
"4. c #888946",
"5. c #838849",
"6. c #898A48",
"7. c #99825F",
"8. c #BD9842",
"9. c #978160",
"0. c #998363",
"q. c #998364",
"w. c #9C9B7E",
"e. c #9D9C7F",
"r. c #A78E67",
"t. c #A08C69",
"y. c #A68E68",
"u. c #C6A740",
"i. c #8B9681",
"p. c #8C9681",
"a. c #8D9785",
"s. c #9E9C81",
"d. c #9D9D92",
"f. c #9E9E95",
"g. c #ADA28E",
"h. c #AEA391",
"j. c #9BA6A8",
"k. c #9CA7AB",
"l. c #9CA8AC",
"z. c #B1AEA4",
"x. c #B3B0A8",
/* pixels */
"w w w w w w w w w w w w w w w w w B +.B e w e B w w @.@.e w w w w w w w w w w w w w w w w w w w w w w w w w w w w w w w w w w C ",
"w w w w w w w w w w w w w w w w w w B B B e 5 e e e j.f.#.e w w w w w w w w w w w w w w w w w w w w w w w w w w w w w w w w w w.",
"w w w w w w w w w w w w w w w w w e q e B B 9 1.4.B p.t.k.m w w w w w w w w w w w w w w w w w w w w w w w w w w w w w w w w w 5 ",
"w w w w w w w w w w w w w w w w w B B q e B 1.g.h.6.9 i.a.e w w w w w w w w w w w w w w w w w w w w w w w w w w w w w w w w w w ",
"w w w w w w w w w w w w w w w w w < 3 7 , q e.y.r.s.e C C e w w w w w w w w w w w w 7 2 2 2 q w w w w w w w w w w w w w w w w w ",
"w w w w w w w w w w w w w w w w 7 f h h % 2 5 w.s.9 1.g.h.3.e w w w w w w w w w w w d v v v 1 q w w w w w w w w w w w w w w w w ",
"w w w w w w w w w w w w w w w w i _ J J % 8 w 5 C 1.e.y.r.s.e w w w w w w w w w w w i [ ) ) c 8 w w w w w w w w w w w w w w w w ",
"w w w w w w w w w w w w w w w 7 h _ / J % 8 w 1.g.x.9 w.s.9 w w w w w w w w w w w w i ) _ ) n 1 q w w w w w w w w w w w w w w w ",
"w w w e e e w w w w w w w w w i [ ) ( c % 8 w z.y.s.e 5 5 w w w w w w w w w w w w w i G [ [ [ c 8 w w w w w w w w w w w w w w w ",
"w w e B +.B w w w w w w w w w i [ ) ) c # 8 w w.s.9 w w w w w w w w w w w w w w w w i G | [ [ c 8 w w w w w w w w w w w w w w w ",
"w w B B B w w w w w w w w w 7 f [ ) ) c # 8 w 5 5 w w w w w w w w w w w w w w w w w i G 7. . .n 1 q w w w w w w w w w w w w w w ",
"w w e e 9 w w w w w w w w w r [ [ [ ( l # 8 w w w w w w w w w w w w w w w w w w w w i J  . . .} c 8 w w w w w w w w w w w w w w ",
"w w 9 9 w w w w w w w w w w r } [ [ c h # 8 w w w w w w w w w w w w w w w w w w w w i J J 0. . .k m e e w w w e e w w w w w w w ",
"w w w w w w w w w w w w w w r ..} [ c l # 8 w w w w w w w w w w w w w w w w w w w w i J J 0.X.X.k 9 B B w w e +.B w w w w w w w ",
"w w w w w w w w w w w w w w r ..} [ c l # 8 w w w w w w w w w w w w w w w w w w w w i G J q.X.X.h 2 e e w e B +.w w w w w w w w ",
"w w w w w w w w w w w w w 7 f ..} [ l h # 8 w w w w w w w w w w w w w w w w w w w w i J J q.X.X.v 1 5 9 w B B e w w w w w w w w ",
"w w w w w w w w w w w w w r ..} [ ` l h # 8 w w w w w w w w w w w w w w w w w w w w i J J X.9.X.X.d 8 w w e e 9 w w w w w w w w ",
"w w w w w w w w w w w w w r ..} [ l h h # 8 w w w w w w w w w w w w w w w w w w w w i J J J q.X.X.s 8 w w 9 9 w w w w w w w w w ",
"w w w w w w w w w w w w w r ..} [ c h h @ 8 w w w w w w w w w w w w w w w w w w w w i J J J 0.X. .s 8 w w w w w w w w w w w w w ",
"w w w w w w w w w w w w w r ..[ [ l d h @ 8 w w w w w w w w w w w w w w w w w w w w i J G J 0. .[ p 8 w w w w w w w w w w w w w ",
"w w w w w w w w w w w w w r ..[ [ h * a + 8 w w w w w w w w w w w w w w w w w w w w i n v n 7.| [ a 8 w w w w w w w w w w w w w ",
"w w w w w w w w w w w w w r ( ^ J # j @ . 8 w w w w w w w w w w w w w w w w w w w w r s ] c [ ( ^ ; 8 w w w w w e e w w w w w w ",
"w w w w w w w w w w w w w % d d a * t # . 8 w w w w w w w w w w w w w w w w w w w w : s F c h c h ; 8 w w w w w e +.e w w w w w ",
"w w w w w w w w w w w w w % Y { ] A @ d + 8 w w w w w w w w w w w w w w w w w w w w i b ; T O.O.o.; 8 w w w w w w +.+.e w w w w ",
"e w w w w e e w w w w w w % F K K y # d . 8 w w w w w w w w w w w w w w w w w w w w $ n p F U Y Y ; 8 w w w w w w e B B q e e e ",
"+.e w w e +.B w w w w w w % x x x # d f . 8 w w w w w w w w w w w w w w w w w w w w $ n J a F F F = 8 w w w w w w 9 1.1.q B B B ",
"+.+.w e B B w w w w w w w % # # # d f f . 8 w w w w w w w w w w w w w w w w w w w w $ n J n p ; ; # 8 w w w w w w @.d.l.B B e w ",
"e e w B B 5 w w w w w w w % c c l f f d X 8 w w w w w w w w e e w w w w e e w w w w $ n J J ( n n % 8 w w w w w w j.t.a.B e 9 w ",
"9 9 w e e 9 w w w w w w w $ J J J h d a * > q w w w w w w w e +.e w w e B e w w w 4 i v J J [ ( ( % 8 w w w w w w p.a.9 e 9 w w ",
"w w w 9 9 w w w w w w w w $ J J J h d . g X 8 w w w w w w w w B +.e w B B w w w w $ T ; n J [ ( ( % 8 w w w w w w 5 5 w w w w w ",
"w w w w w w w w w w w w w $ J J J d d . t . 8 w w w w w w w w 5 N B w e e w w w w $ H ; b G [ ( ^ % 8 w w w w w w w w w w w w w ",
"w w w w w w w w w w w w w $ J n b d a . t . 8 w w w w w w w w 9 e e w 9 9 w w w w $ H ; b n [ J J # 8 w w w w w w w w w w w w w ",
"w w w w w w w w w w w w w $ J n b d a . t . 8 w w w w w w w w w 9 9 w w w w w w w + F = b n ' J J # 8 w w w w w w w w w w w w w ",
"w w w w w w w w w w w w w $ J n b d a @ - o 8 w w w w w w w w w w w w w w w w w w O x ; v b ) J G # 8 w w w w w w w w w w w w w ",
"w w w w w w w w w w w w w $ J n b a a a @ 8 w w w w w w w w w w w w w w w w w w w w + c b v ) J n # 8 w w w w w w w w w w w w w ",
"w w w w w w w w w w w w w $ G n b a i i . 8 w w w w w w w w w w w w w w w w w w w w + c v v ( J n @ 8 w w w w w w w w w w w w w ",
"w w w w w w w w w w w w w $ G n b a i i . 8 w w w w w w w w w w w w w w w w w w w w + k c c ( G n @ 8 w w w w w w w w w w w w w ",
"w w w w w w w w w w w w w $ G b c a i i . 8 w w w w w w w w w w w w w w w w w w w w + h h c ( b b @ 8 w w w w w w w w w w w w w ",
"w w w w w w w w w w w w w $ n b c a = ; . 8 w w w w w w w w w w w w w w w w w w w w o s d d ^ b v @ 8 w w w w w w w w w w w w w ",
"w w w w w w w w w w w w w + n v c = # = . M w %.%.w w w w w w w w w w w w w w w w w   % K = J b v @ 8 w w w w w e w w w w w w w ",
"w w w w w w w w w w w w w o c l l . g X . ! %.,.u.e w w w w w w w w w w w w w w w w   = j a b h h X m e e w e e B w w w w w w w ",
"w w w w w w w w w w w w w   - a a # - @ . 2 <.-.>.e w w w w w w w w w w w w w w w w   a # H - = * . 9 B e e B B w w w w w w w w ",
"w w w w w w w w w w w w w   U T Y Z X # @ > :.>.9 w w w w w w w w w w w w w w w w 4 $ a # j Y T T @ 2 1.L B B 5 w w 1.1.e w w w ",
"w w w w w w w w w w w w w   A H H t + . u X 2 5 w w w w w w w w w w w w w w w w w   H @ i # A H H @ V d.f.5.m 9 w w g.x.m w w w ",
"w w w w w w w w w w w w w   g x x @ % . t . 8 w w w w w w w w w w w w w w w w w w   j X s % g x x X $.t.t.a.P 1.e w ~ e.e w w w ",
"w w w w w w w w w w w w w   X @ @ % # @ t . 8 w w w w w w w w w w w w w w w w w w   j * a a # @ @ . 2 i.a.P g.x.m w 5 5 w w w w ",
"w w w w w w w w w w w w w   d d f = . g y . 8 w w w w w w w w w w w w w w w w w w   j D X s v l h . 8 5 5 z.y.s.e w w w w w w w ",
"w w w w w w w w w w w w w   b c c = . t - o 8 w w w w w w w w w w w w w w w w w w o y A X s J v c . 8 w w w.s.9 w w w w w w w w ",
"w w w w w w w w w w w w w   b c c % @ y . 8 w w w w w w w w w w w w w w w w w w w w   z - a J v c . 8 w w 5 5 w w w w w w w w w ",
"w w w w w w w w w w w w w   l h h . g y . 8 w w w w w w w w w w w w w w w w w w w w   z Y @ c h h . 8 w w w w w w w w w w w w w ",
"w w w w w w w w w w w w w   # * & @ t - o 8 w w w w w w w w w w w w w w w w w w w w o g D - & & # . 8 w w w w w w w w w w w w w ",
"w w w w w w w w w w w w w   H I I z y . 8 w w w w w w w w w w w w w w w w w w w w w w   A R K H H X 8 w w w w w w w w w w w w w ",
"w w w w w w w w w w w w w   D S S y y . 8 w w w w w w w w w w w w w w w w w w w w w w   A T A A A X 8 w w w w w w w w w w w w w ",
"w w w w w w w w w w w w w   D S S y - o 8 w w w w w w w w w w w w w w w w w w w w w w o g T A A A X 8 w w w w w w w w w w w w w ",
"w w w w w w w w w w w w w   D S S y . 8 w w w w w w w w w w w w w w w w w w w w w w w w   I A A A X 8 w w w w w w w w w w w w w ",
"w w w w w w w w w w w w w   S S A y . 8 w w w w w w w w w w w w w w w w w w w w w w w w   I A A A X 8 w w w w w w w w w w w w w ",
"w w w w w w w w w w w w w   z j j t o 9 w w w w w w w w w w w w w w w w w w w w w w w w o A j g g . 8 w w e w w w w w w w w w w ",
"w w w w w w w w w w w w w o o o o o 9 e w w w w w w w w w w w w w w w w w w w w w w w w w o o o o o 8 e e e w w w w w w w w w w ",
"w w w w w w w w w w w w w w w w B B q 0 w w w w w w w w w w w w w w w w w w w w w w w w w w w 6 N B e *.&.e w w w w w w w w w w ",
"w w w w w w w w w w w w w w w w e e w w w w w w w w w w w w w w w w w w w w w w w w w w w w w 0 e e &.,.,.%.w w w w w w w w w w ",
"w w w w w w w w w w w w w w w w 0 0 w w w w w w w w w w w w w w w w w w w w w w w w w w w w w w 0 0 >.-.-.>.W E w w w w w e w w ",
"w e w w w w w w w w w w w w w w w w w w w w w w w w w w w w w w w w w w w w w w w w w w w w w w w w 5 >.>.9 ;.8.e w w w w e e e ",
"e B w w e e e w w w w w w w w w w w w w w w w w w w w w w w w w w w w w w w w w w w w w w w w w w w w 5 5 w Q =.e w w w w w B B ",
"B e w e B +.B w w w w w w w w w w w w w w w w w w w w w w w w w w w w w w e w w w w w w w w w w w w w w w w 5 5 w w w w w w e &."
};
