/* XPM */
static char *e9bfe381e1c946bfa5d5e10fd04da4057BkT7vo1yN0WmNP6[] = {
/* columns rows colors chars-per-pixel */
"64 64 139 2 ",
"   c #4D2712",
".  c #4E2812",
"X  c #522B15",
"o  c #473E10",
"O  c #4A3F12",
"+  c #5A3117",
"@  c #57321A",
"#  c #5A351C",
"$  c #5D391F",
"%  c #603B1F",
"&  c #5E3B22",
"*  c #5A3D29",
"=  c #613E23",
"-  c #4C4012",
";  c #4C4813",
":  c #504515",
">  c #524D16",
",  c #555019",
"<  c #666D17",
"1  c #686F16",
"2  c #676D18",
"3  c #696F19",
"4  c #6B7117",
"5  c #6C711A",
"6  c #72751B",
"7  c #75781E",
"8  c #5E422D",
"9  c #5E582C",
"0  c #5F4530",
"q  c #634226",
"w  c #65452A",
"e  c #68462A",
"r  c #67482C",
"t  c #6A4A2D",
"y  c #624631",
"u  c #654A34",
"i  c #6C4E32",
"p  c #654E3B",
"a  c #6A4F38",
"s  c #704F31",
"d  c #6E5234",
"f  c #66513E",
"g  c #6D523B",
"h  c #715536",
"j  c #765837",
"k  c #735739",
"l  c #755A3A",
"z  c #795D3E",
"x  c #747720",
"c  c #797C22",
"v  c #7B603F",
"b  c #797D3D",
"n  c #675340",
"m  c #695642",
"M  c #6C5945",
"N  c #6D5B48",
"B  c #715741",
"V  c #735A43",
"C  c #7A5E41",
"Z  c #735E49",
"A  c #6C654F",
"S  c #7D6241",
"D  c #75624D",
"F  c #747D40",
"G  c #7A7E41",
"H  c #656351",
"J  c #6E6651",
"K  c #766551",
"L  c #786751",
"P  c #766856",
"I  c #7A6A55",
"U  c #7D6D5A",
"Y  c #7E705D",
"T  c #776E65",
"R  c #867E26",
"E  c #887F26",
"W  c #907431",
"Q  c #907A3F",
"!  c #806545",
"~  c #836947",
"^  c #816749",
"/  c #856B4B",
"(  c #886E4E",
")  c #8A714F",
"_  c #876E50",
"`  c #806F5A",
"'  c #8A7151",
"]  c #8D7353",
"[  c #8B7355",
"{  c #8D7354",
"}  c #8F7657",
"|  c #82725D",
" . c #907857",
".. c #917858",
"X. c #947C5B",
"o. c #937B5C",
"O. c #957E5E",
"+. c #837462",
"@. c #867865",
"#. c #897A66",
"$. c #877A68",
"%. c #897C6B",
"&. c #7F8226",
"*. c #7D8241",
"=. c #7E8445",
"-. c #8A8326",
";. c #8C8629",
":. c #918B2B",
">. c #A48B36",
",. c #AC853D",
"<. c #B38E3F",
"1. c #AA9635",
"2. c #BC9A3F",
"3. c #838540",
"4. c #828643",
"5. c #858644",
"6. c #888946",
"7. c #838849",
"8. c #898A48",
"9. c #BD9842",
"0. c #9C9B7E",
"q. c #9C9C7E",
"w. c #A78E67",
"e. c #A08C69",
"r. c #A68E68",
"t. c #8B9681",
"y. c #8C9681",
"u. c #8D9785",
"i. c #9E9C81",
"p. c #9C9C8F",
"a. c #9D9D92",
"s. c #9E9E95",
"d. c #ADA28E",
"f. c #AEA391",
"g. c #9BA6A8",
"h. c #9CA7AB",
"j. c #9CA8AC",
"k. c #B0AEA4",
"l. c #B3B0A8",
/* pixels */
"6 6 6 6 6 6 6 6 6 6 6 6 6 6 6 6 6 c &.c 7 6 7 c 6 6 *.*.7 6 6 6 6 6 6 6 6 6 6 6 6 6 6 6 6 6 6 6 6 6 6 6 6 6 6 6 6 6 6 6 6 6 6 b ",
"6 6 6 6 6 6 6 6 6 6 6 6 6 6 6 6 6 6 c c c 7 < 7 7 7 g.s.=.7 6 6 6 6 6 6 6 6 6 6 6 6 6 6 6 6 6 6 6 6 6 6 6 6 6 6 6 6 6 6 6 6 6 0.",
"6 6 6 6 6 6 6 6 6 6 6 6 6 6 6 6 6 7 5 7 c c 3 3.6.c y.e.h.x 6 6 6 6 6 6 6 6 6 6 6 6 6 6 6 6 6 6 6 6 6 6 6 6 6 6 6 6 6 6 6 6 6 2 ",
"6 6 6 6 6 6 6 6 6 6 6 6 6 6 6 6 6 c c 5 7 c 3.d.f.8.3 t.u.7 6 6 6 6 6 6 6 6 6 6 6 6 6 6 6 6 6 6 6 6 6 6 6 6 6 6 6 6 6 6 6 6 6 6 ",
"6 6 6 6 6 6 6 6 6 6 6 6 6 6 6 6 6 3 7 c < 7 q.r.w.i.7 b b 7 6 6 6 6 6 6 6 6 6 6 6 6 6 6 6 6 6 6 6 6 6 6 6 6 6 6 6 6 6 6 6 6 6 6 ",
"6 6 6 6 6 6 6 6 6 6 6 6 6 6 6 6 6 6 3 7 3 3 2 0.i.3 3.d.f.5.7 6 6 6 6 6 6 6 6 6 6 6 6 6 6 6 6 6 6 6 6 6 6 6 6 6 6 6 6 6 6 6 6 6 ",
"6 6 6 6 6 6 6 6 6 6 6 6 6 6 6 6 6 6 6 *.*.7 6 2 b 3.A V V J , > , , , , , 6 6 6 6 6 6 6 6 6 6 6 6 6 6 6 6 6 6 6 6 6 6 6 6 6 6 6 ",
"6 6 6 6 6 6 6 6 6 6 6 6 6 6 6 6 6 6 6 p.j.x > 9 P T l z z l z $ z z z z z > > > > 6 6 6 6 6 6 6 6 6 6 6 6 6 6 6 6 6 6 6 6 6 6 6 ",
"6 6 6 7 7 7 6 6 6 6 6 6 6 6 6 6 6 6 6 Q H , z z z = ) ) ) ( / + / / / / / # i i i > > 6 6 6 6 6 6 6 6 6 6 6 6 6 6 6 6 6 6 6 6 6 ",
"6 6 7 c &.c 6 6 6 6 6 6 6 6 6 6 6 6 > ; z z }  ...% .... .] ] # } { ] ] ' # z z z t t > > 6 6 6 6 6 6 6 6 6 6 6 6 6 6 6 6 6 6 6 ",
"6 6 c c c 6 6 6 6 6 6 6 6 6 6 6 6 > h % ' ..X.O.O.% ' ' ' ( ' $ ' ' ( ( ( # ^ ^ ^ ^ l $ e > 6 6 6 6 6 6 6 6 6 6 6 6 6 6 6 6 6 6 ",
"6 6 7 7 3 6 6 6 6 6 6 6 6 6 6 6 > l / $ } ' o.} } % z z l l ! $ z z z z S $ S S ( / S = h e > 6 7 7 6 6 6 6 6 6 6 6 6 6 6 6 6 6 ",
"6 6 3 3 6 6 6 6 6 6 6 6 6 6 6 > j ( } % ( l ( S S = S S z l S = z z S S S q e h S C / q C h e > c &.7 7 6 6 6 7 7 6 6 6 6 6 6 6 ",
"6 6 6 6 6 6 6 6 6 6 6 6 6 6 6 e / } ( = l S / S S q S S S z S e z v S S v e h S S S S q ^ C h # 6 c c c 6 6 7 &.c 6 6 6 6 6 6 6 ",
"6 6 6 6 6 6 6 6 6 6 6 6 6 6 > h ( ( z = j ( ! ! S e S S S S S e z S S S v e S S S S S e S ! C q > 3 7 7 6 7 c &.6 6 6 6 6 6 6 6 ",
"6 6 6 6 6 6 6 6 6 6 6 6 6 6 q ^ ^ l z q z / ! ! ! e S S S S S e v S S S v e S S S S S t z v ! C # 6 3 3 6 c c 7 6 6 6 6 6 6 6 6 ",
"6 6 6 6 6 6 6 6 6 6 6 6 6 > h [ l l z e ! S S S ! t S S S S S e S S S S S t S S S S C i v v v ( q > 6 6 6 7 7 3 6 6 6 6 6 6 6 6 ",
"6 6 6 6 6 6 6 6 6 6 6 6 6 q ! ^ l l l e S ! ! ! ! t S S S S ! e S S S S S t S S S S S i v v z ^ C @ 6 6 6 3 3 6 6 6 6 6 6 6 6 6 ",
"6 6 6 6 6 6 6 6 6 6 6 6 6 q _ l l l l t S S ! ! ! t S S S S ! e ! S S S S t S S S S C i v v z z [ @ 6 6 6 6 6 6 6 6 6 6 6 6 6 6 ",
"6 6 6 6 6 6 6 6 6 6 6 6 6 = S l l l l t S S S j ! t S S S S ! e ! S S S S t S h v S S d z z z z ^ X 6 6 6 6 6 6 6 6 6 6 6 6 6 6 ",
"6 6 6 6 6 6 6 6 6 6 6 6 6 # t t t t t e h h h C j t C S C C S e ~ S S S S t h C h d d e i i i t t X 6 6 6 6 6 6 6 6 6 6 6 6 6 6 ",
"6 6 6 6 6 6 6 6 6 6 6 6 6 # a a g g g k k k k #.C e C S C C S e ~ S S S S e C @.k k g g g a g a a X 6 6 6 6 6 6 7 7 6 6 6 6 6 6 ",
"6 6 6 6 6 6 6 6 6 6 6 6 6 @ D D I I I | | | | I @.V h C C C S e ~ S S S h C @.I ` U I L I I I D D X 6 6 6 6 6 6 7 &.7 6 6 6 6 6 ",
"6 6 6 6 6 6 6 6 6 6 6 6 6 @ V V D D D I I I I I I V i z z z S e ^ S S S s Z I I I L D Z D D D M M X 6 6 6 6 6 6 6 &.&.7 6 6 6 6 ",
"7 6 6 6 6 7 7 6 6 6 6 6 6 @ w w u u u a a a g I g = z z z z S e ^ S S S S & a I a a u u u u u w w X 6 6 6 6 6 6 6 7 c c 5 7 7 7 ",
"&.7 6 6 7 &.c 6 6 6 6 6 6 @ # # # # $ @ & & & g = d z z z z S e ~ S S S S t $ a $ $ $ $ $ $ $ $ $ X 6 6 6 6 6 6 6 3 3.3.5 c c c ",
"&.&.6 7 c c 6 6 6 6 6 6 6 X i t t i i $ h h h & i d z z z z S e / S S S S t h $ h h h i d d i i i X 6 6 6 6 6 6 6 *.a.j.c c 7 6 ",
"7 7 6 c c < 6 6 6 6 6 6 7 X k l l l l = C S S h i i z z z z S e / S S S S t S h C C C d k l k k k X 7 6 6 6 6 6 6 g.e.u.c 7 3 6 ",
"3 3 6 7 7 3 6 6 6 6 6 6 7 X k k l l l e S C C C t i z z z z S e ( S S S S t S z z z z d k k k k k X 7 6 6 6 6 6 6 y.u.3 7 3 6 6 ",
"6 6 6 3 3 6 6 6 6 6 6 6 7 X k k k l l t S z z z t i z z z z S e ( S S v S t S z z z z d k k k k k X 7 6 6 6 6 6 6 2 2 6 6 6 6 6 ",
"6 6 6 6 6 6 6 6 6 6 6 6 7 X h k h h k t S z z z d i z z z z S e ( S S S S t S z z z z d k k k k k X 7 6 6 6 6 6 6 6 6 6 6 6 6 6 ",
"6 6 6 6 6 6 6 6 6 6 6 6 6 X k h h k k t S z z z l i l z z z S e ( S S S S i S z z z z d h h h h h X 6 6 6 6 6 6 6 6 6 6 6 6 6 6 ",
"6 6 6 6 6 6 6 6 6 6 6 6 6 X h k k k k t S l l l l i l l l t h q j i v v v d S z z z z i h h h h h X 6 6 6 6 6 6 6 6 6 6 6 6 6 6 ",
"6 6 6 6 6 6 6 6 6 6 6 6 7 X h k k k k t S l l l l i l l t B V V V B i v v d S z z z z i h h h h h X 7 6 6 6 6 6 6 6 6 6 6 6 6 6 ",
"6 6 6 6 6 6 6 6 6 6 6 6 7 X h h h h k t S l l l l i l l # | | | | | # z z d S z z z z t h h d d d X 7 6 6 6 6 6 6 6 6 6 6 6 6 6 ",
"6 6 6 6 6 6 6 6 6 6 6 6 7 X h h h h h i C l k k k i l l # D D u D D # z z d S l l l l r d d d d d X 7 6 6 6 6 6 6 6 6 6 6 6 6 6 ",
"6 6 6 6 6 6 6 6 6 6 6 6 7 X h h h h h t C h k k k i l l @ Z Z X D Z @ l z i S l l l l e d d d d d X 7 6 6 6 6 6 6 6 6 6 6 6 6 6 ",
"6 6 6 6 6 6 6 6 6 6 6 6 6 X h h h h h t C h h h k i l l X M M * M M X l l i S l l l l e d d d d d X 6 6 6 6 6 6 6 6 6 6 6 6 6 6 ",
"6 6 6 6 6 6 6 6 6 6 6 6 6 . h h h h h t S h h t h t k l # q q q q 8 # l l t S i l l l e d d d d d . 6 6 6 6 6 6 6 6 6 6 6 6 6 6 ",
"6 6 6 6 6 6 6 6 6 6 6 6 6 . e e e w w q i t t V t t k k i # # X # # i l l t i V i t t = e e q q q . 7 6 6 6 6 6 7 6 6 6 6 6 6 6 ",
"6 6 6 6 6 6 6 6 6 6 6 6 6 . u u a a a g g g g @.B e k k k i i $ d i l k l e V | g g a a a a a u u . &.7 7 6 7 7 c 6 6 6 6 6 6 6 ",
"6 6 6 6 6 6 6 6 6 6 6 6 6 . D D K K K U U U U K | B t k k k k q l l k k i V | D I I D D D D K Z Z . c c 7 7 c c 6 6 6 6 6 6 6 6 ",
"6 6 6 6 6 6 6 6 6 6 6 6 6 . m m Z Z Z D D D K L L B e h k k k q k k k l e V D D D D N N N N N g g . 5 3.F c c < 6 6 3.3.7 6 6 6 ",
"6 6 6 6 6 6 6 6 6 6 6 6 6 . 8 8 y y y u u u u L u # k h k k k q k k k k h # u D u y y w w w w 8 8 . 3.a.s.7.x 3 6 6 d.l.x 6 6 6 ",
"6 6 6 6 6 6 6 6 6 6 6 6 6 . @ @ # # # X # $ $ u # q k h h h k q h h h h h q $ y # # # @ # # @ @ @ . y.e.e.u.G 3.7 6 Q q.7 6 6 6 ",
"6 6 6 6 6 6 6 6 6 6 6 6 6 . e e e t t # i i i # t q h h h h h & h h h h d q d # i i i = r e e e e   2 t.u.G d.l.x 6 2 2 6 6 6 6 ",
"6 6 6 6 6 6 6 6 6 6 6 6 6 . d d d d d & d d d i h q h h h h h # h d d d d = l i l l l = i i i i i   6 2 2 k.r.i.7 6 6 6 6 6 6 6 ",
"6 6 6 6 6 6 6 6 6 6 6 6 6 . d d d d d & d d d d h = h h h h h @ d d d d d = l l l l l * i i i i i   6 6 6 0.i.3 6 6 6 6 6 6 6 6 ",
"6 6 6 6 6 6 6 6 6 6 6 6 6 . q e e e e & w w w w w & e e e q q X q q e e e & t t t t t $ q q = & &   6 6 6 2 2 6 6 6 6 6 6 6 6 6 ",
"6 6 6 6 6 6 6 6 6 6 6 6 6 . y u u u u a u u u u a u u u u u u . p p u u u u a u u u u y y y y 8 w   6 6 6 6 6 6 6 6 6 6 6 6 6 6 ",
"6 6 6 6 6 6 6 6 6 6 6 6 6 . I I U U U U U U U Y | | | | +.$.$.. %.%.@.+.+.+.U U U U U U U U U U U   6 6 6 6 6 6 6 6 6 6 6 6 6 6 ",
"6 6 6 6 6 6 6 6 6 6 6 6 6 . K P I I I I I I I I U U U U U +.@.. @.+.Y Y U U I I I I I I K K K K K   6 6 6 6 6 6 6 6 6 6 6 6 6 6 ",
"6 6 6 6 6 6 6 6 6 6 6 6 6 . f f f f n n n m M M M M M M N N K . K N N N N M M M M m m m p f f p p   6 6 6 6 6 6 6 6 6 6 6 6 6 6 ",
"6 6 6 6 6 6 6 6 6 6 6 6 6 . f f f f n n n m M M M M M M N N K . K N N N M M M M M m m m f f p p p   6 6 6 6 6 6 6 6 6 6 6 6 6 6 ",
"6 6 6 6 6 6 6 6 6 6 6 6 6 . p p p n m m m m M M M M M M N N K . K N N N N M N M m m m m m m f p p   6 6 6 6 6 6 6 6 6 6 6 6 6 6 ",
"6 6 6 6 6 6 6 6 6 6 6 6 6 . * * * 8 8 8 8 8 8 8 8 8 8 0 0 0 u . u 0 0 0 0 0 0 0 8 8 8 8 8 8 8 * *   6 6 6 6 6 6 6 6 6 6 6 6 6 6 ",
"6 6 6 6 6 6 6 6 6 6 6 6 6 - - - - O - - - - - - - - - - - - - - - - - - - - - - - - - - - - o : ; - 6 6 6 7 6 6 6 6 6 6 6 6 6 6 ",
"6 6 6 6 6 6 6 6 6 6 6 6 6 6 6 6 7 5 7 7 6 6 6 6 6 6 6 6 6 6 6 6 6 6 6 6 6 6 6 6 6 6 6 6 6 6 6 c c c 6 7 7 7 6 6 6 6 6 6 6 6 6 6 ",
"6 6 6 6 6 6 6 6 6 6 6 6 6 6 6 6 c c 5 4 6 6 6 6 6 6 6 6 6 6 6 6 6 6 6 6 6 6 6 6 6 6 6 6 6 6 6 1 c c 7 :.;.7 6 6 6 6 6 6 6 6 6 6 ",
"6 6 6 6 6 6 6 6 6 6 6 6 6 6 6 6 7 7 6 6 6 6 6 6 6 6 6 6 6 6 6 6 6 6 6 6 6 6 6 6 6 6 6 6 6 6 6 4 7 7 ;.2.2.-.6 6 6 6 6 6 6 6 6 6 ",
"6 6 6 6 6 6 6 6 6 6 6 6 6 6 6 6 4 4 6 6 6 6 6 6 6 6 6 6 6 6 6 6 6 6 6 6 6 6 6 6 6 6 6 6 6 6 6 6 4 4 1.,.,.1.E R 6 6 6 6 6 7 6 6 ",
"6 7 6 6 6 6 6 6 6 6 6 6 6 6 6 6 6 6 6 6 6 6 6 6 6 6 6 6 6 6 6 6 6 6 6 6 6 6 6 6 6 6 6 6 6 6 6 6 6 6 2 1.1.3 <.9.7 6 6 6 6 7 7 7 ",
"7 c 6 6 7 7 7 6 6 6 6 6 6 6 6 6 6 6 6 6 6 6 6 6 6 6 6 6 6 6 6 6 6 6 6 6 6 6 6 6 6 6 6 6 6 6 6 6 6 6 6 2 2 6 W >.7 6 6 6 6 6 c c ",
"c 7 6 7 c &.c 6 6 6 6 6 6 6 6 6 6 6 6 6 6 6 6 6 6 6 6 6 6 6 6 6 6 6 6 6 6 7 6 6 6 6 6 6 6 6 6 6 6 6 6 6 6 6 2 2 6 6 6 6 6 6 7 ;."
};
