/* XPM */
static char *result[] = {
/* columns rows colors chars-per-pixel */
"64 64 142 2 ",
"   c #656C17",
".  c #676A19",
"X  c #666D18",
"o  c #666D19",
"O  c #676D19",
"+  c #676E18",
"@  c #676B1C",
"#  c #686E18",
"$  c #696F18",
"%  c #686F19",
"&  c #696F19",
"*  c #696C1A",
"=  c #696D1A",
"-  c #6A6D1A",
";  c #6A6E1A",
":  c #6B6E1A",
">  c #686E1F",
",  c #696E1F",
"<  c #6A6F1F",
"1  c #697017",
"2  c #6B7117",
"3  c #6B7118",
"4  c #6A701A",
"5  c #6C7219",
"6  c #6D7319",
"7  c #6F731A",
"8  c #6F731C",
"9  c #70731A",
"0  c #70731B",
"q  c #70741A",
"w  c #70741B",
"e  c #71741B",
"r  c #71751B",
"t  c #72751B",
"y  c #70741C",
"u  c #73761C",
"i  c #74771C",
"p  c #74771D",
"a  c #75781D",
"s  c #75781E",
"d  c #74781F",
"f  c #75781F",
"g  c #75791F",
"h  c #79791E",
"j  c #676D20",
"k  c #686D20",
"l  c #6A6F20",
"z  c #777321",
"x  c #777420",
"c  c #7A7521",
"v  c #787620",
"b  c #797720",
"n  c #757821",
"m  c #777A20",
"M  c #787B21",
"N  c #7F7B22",
"B  c #797C21",
"V  c #797C22",
"C  c #7A7E23",
"Z  c #7C7E22",
"A  c #7C7F23",
"S  c #7D7F23",
"D  c #7B7825",
"F  c #7C7F24",
"G  c #747930",
"H  c #737837",
"J  c #787D33",
"K  c #7C7E33",
"L  c #7D7F33",
"P  c #797E34",
"I  c #7A7E35",
"U  c #7D7F34",
"Y  c #707739",
"T  c #757938",
"R  c #807D21",
"E  c #A47A3C",
"W  c #A47B3C",
"Q  c #A77F3D",
"!  c #A87F3D",
"~  c #7E8023",
"^  c #7D8024",
"/  c #7E8124",
"(  c #7E8125",
")  c #7F8226",
"_  c #7E8035",
"`  c #7D8238",
"'  c #7E8339",
"]  c #7E833A",
"[  c #858226",
"{  c #828438",
"}  c #A9823D",
"|  c #AA833D",
" . c #AC8E3A",
".. c #AC9039",
"X. c #B39B37",
"o. c #B0923B",
"O. c #B5913F",
"+. c #B39A39",
"@. c #B39C38",
"#. c #B79E39",
"$. c #BC9D3D",
"%. c #BC9D3E",
"&. c #C1A43E",
"*. c #C1A53E",
"=. c #B89640",
"-. c #BB9642",
";. c #A28355",
":. c #A38455",
">. c #A08963",
",. c #A58B62",
"<. c #A18A65",
"1. c #A68C64",
"2. c #C4A440",
"3. c #C6A640",
"4. c #909B8B",
"5. c #929C8B",
"6. c #939B8F",
"7. c #939D8C",
"8. c #939D8D",
"9. c #949F93",
"0. c #9B9F96",
"q. c #96A094",
"w. c #9DA19D",
"e. c #A2A189",
"r. c #A3A288",
"t. c #A4A288",
"y. c #A4A388",
"u. c #A5A48A",
"i. c #A5A28C",
"p. c #A7A58F",
"a. c #ACA492",
"s. c #ACA592",
"d. c #ADA593",
"f. c #99A5A4",
"g. c #9AA5A4",
"h. c #9CA6A7",
"j. c #9CA6A8",
"k. c #9CA8AC",
"l. c #AEACA0",
"z. c #AFACA0",
"x. c #B2ADA3",
"c. c #B3AFA8",
/* pixels */
"t t t t t t t t t t t t t t t t p ( ^ m t u M m t t t t t t t t t t t t t t t t t t t t t t t t t t t t t t t t t t t t t t q G ",
"t t t t t t t t t t t t t t t t t s ( M m q & m t P f.5.t t t t t t t t t t t t t t t t t t t t t t t t t t t t t t t t t t L s.",
"t t t t t t t t t t t t t t t t t q 4 M M d + u M ] w.>.5.t t t t t t t t t t t t t t t t t t t t t t t t t t t t t t t t t y T ",
"t t t t t t t t t t t t t t t t p ^ d & M m K z.u.n Y j.9.t t t t t t t t t t t t t t t t t t t t t t t t t t t t t t t t t t 8 ",
"t t t t t t t t t t t t t t t t q 4 M d & { d.:.,.y.8 j , t t t t t t t t t t t t t t t t t t t t t t t t t t t t t t t t t t t ",
"t t t t t t t t t t t t t t t t t 7 & f   O T x.i.< L l.r.t t t t t t t t t t t t t t t t t t t t t t t t t t t t t t t t t t t ",
"t t t t t t t t t t t t t t t t t t r t e e 8 k < K d.:.,.t.t t t t t t t t t t t t t t t t t t t t t t t t t t t t t t t t t t ",
"t t t t t t t t t t t t t t t t t t P f.5.t t K l.e.T x.i.< t t t t t t t t t t t t t t t t t t t t t t t t t t t t t t t t t t ",
"t t t t t t t t t t t t t t t t t t D <.9.t L d.1.p.8 k < e t t t t t t t t t t t t t t t t t t t t t t t t t t t t t t t t t t ",
"t t u B ( A t t t t t t t t t t t t 0 @ , t _ c.i.< t e e t t t t t t t t t t t t t t t t t t t t t t t t t t t t t t t t t t t ",
"t u M V ^ u t t t t t t t t t t t t t e e t y k < e t t t t t t t t t t t t t t t t t t t t t t t t t t t t t t t t t t t t t t ",
"t u M g $ t t t t t t t t t t t t t t t t t t e e t t t t t t t t t t t t t t t t t t t t t t t t t t t t t t t t t t t t t t t ",
"t q X # r t t t t t t t t t t t t t t t t t t t t t t t t t t t t t t t t t t t t t t t t t t p ( A t t t t t t t t t t t t t t ",
"t t e r t t t t t t t t t t t t t t t t t t t t t t t t t t t t t t t t t t t t t t t t t t t t s ( M m t t p ( A t t t t t t t ",
"t t t t t t t t t t t t t t t t t t t t t t t t t t t t t t t t t t t t t t t t t t t t t t t t q 4 M m t u V ^ u t t t t t t t ",
"t t t t t t t t t t t t t t t t t t t t t t t t t t t t t t t t t t t t t t t t t t t t t t t t t 7 X # u M M m t t t t t t t t ",
"t t t t t t t t t t t t t t t t t t t t t t t t t t t t t t t t t t t t t t t t t t t t t t t t t t e r u M f # t t t t t t t t ",
"t t t t t t t t t t t t t t t t t t t t t t t t t t t t t t t t t t t t t t t t t t t t t t t t t t t t q X # r t t t t t t t t ",
"t t t t t t t t t t t t t t t t t t t t t t t t t t t t t t t t t t t t t t t t t t t t t t t t t t t t t e r t t t t t t t t t ",
"t t t t t t t t t t t t t t t t t t t t t t t t t t t t t t t t t t t t t t t t t t t t t t t t t t t t t t t t t t t t t t t t ",
"t t t t t t t t t t t t t t t t t t t t t t t t t t t t t t t t t t t t t t t t t t t t t t t t t t t t t t t t t t t t t t t t ",
"t t t t t t t t t t t t t t t t t t t t t t t t t t t t t t t t t t t t t t t t t t t t t t t t t t t t t t t t t t t t t t t t ",
"t t t t t t t t t t t t t t t t t t t t t t t t t t t t t t t t t t t t t t t t t t t t t t t t t t t t t t t u B A t t t t t t ",
"t t t t t t t t t t t t t t t t t t t t t t t t t t t t t t t t t t t t t t t t t t t t t t t t t t t t t t t t a ) A t t t t t ",
"t t t t t t t t t t t t t t t t t t t t t t t t t t t t t t t t t t t t t t t t t t t t t t t t t t t t t t t t u M M m t t t t ",
"A t t t p ( A t t t t t t t t t t t t t t t t t t t t t t t t t t t t t t t t t t t t t t t t t t t t t t t t t q & M f & M B ( ",
") A t u V ^ u t t t t t t t t t t t t t t t t t t t t t t t t t t t t t t t t t t t t t t t t t t t t t t t t t t J g.8.m M m u ",
"M m u M g $ t t t t t t t t t t t t t t t t t t t t t t t t t t t t t t t t t t t t t t t t t t t t t t t t t t P 0.<.q.M f # t ",
"X # u M f + t t t t t t t t t t t t t t t t t t t t t t t u B A t t t u M m t t t t t t t t t t t t t t t t t t I k.6.l f # r t ",
"e r q X # r t t t t t t t t t t t t t t t t t t t t t t t t a ) A t u M m t t t t t t t t t t t t t t t t t t t y j > e t r t t ",
"t t t e r t t t t t t t t t t t t t t t t t t t t t t t t t q 4 M m u M m t t t t t t t t t t t t t t t t t t t t e e t t t t t ",
"t t t t t t t t t t t t t t t t t t t t t t t t t t t t t t 9 % M m q X # t t t t t t t t t t t t t t t t t t t t t t t t t t t ",
"t t t t t t t t t t t t t t t t t t t t t t t t t t t t t t t 7 X # t e r t t t t t t t t t t t t t t t t t t t t t t t t t t t ",
"t t t t t t t t t t t t t t t t t t t t t t t t t t t t t t t t e r t t t t t t t t t t t t t t t t t t t t t t t t t t t t t t ",
"t t t t t t t t t t t t t t t t t t t t t t t t t t t t t t t t t t t t t t t t t t t t t t t t t t t t t t t t t t t t t t t t ",
"t t t t t t t t t t t t t t t t t t t t t t t t t t t t t t t t t t t t t t t t t t t t t t t t t t t t t t t t t t t t t t t t ",
"t t t t t t t t t t t t t t t t t t t t t t t t t t t t t t t t t t t t t t t t t t t t t t t t t t t t t t t t t t t t t t t t ",
"t t t t t t t t t t t t t t t t t t t t t t t t t t t t t t t t t t t t t t t t t t t t t t t t t t t t t t t t t t t t t t t t ",
"t t t t t t t t t t t t t t t t t t t t t t t t t t t t t t t t t t t t t t t t t t t t t t t t t t t t t t t t t t t t t t t t ",
"t t t t t t t t t t t t t t t t t t N =...t t t t t t t t t t t t t t t t t t t t t t t t t t t t t t t t t t t t t t t t t t t ",
"t t t t t t t t t t t t t t t t t N O.E Q ..R &.X.t t t t t t t t t t t t t t t t t t t t t t t p ( A t t t t p A t t t t t t t ",
"t t t t t t t t t t t t t t t t t 0 z -. .v $.| #.t t t t t t t t t t t t t t t t t t t t t t t t s ( M m u B F u t t t t t t t ",
"t t t t t t t t t t t t t t t t t t 0 * - R 3.+.: t t t t t t t t t t t t t t t t t t t t t u B ( C 4 f & M g $ t t t t t t t t ",
"t t t t t t t t t t t t t t t t t t t e e w = : e t t t t t t t t t t t t t t t t t t t t t t a ( M ` g.7.M f + t L z.t.t t t t ",
"t t t t t t t t t t t t t t t t t t t t t t e e t t t t t t t t t t t t t t t t t t t t t t t q 4 ' 0.;.>.4.# r t D 1.p.t t t t ",
"t t t t t t t t t t t t t t t t t t t t t t t t t t t t t t t t t t t t t t t t t t t t t t t t 7 o Y h.6.H l.t.t 0 @ < t t t t ",
"t t t t t t t t t t t t t t t t t t t t t t t t t t t t t t t t t t t t t t t t t t t t t t t t t e 8 j H a.1.p.t t e e t t t t ",
"t t t t t t t t t t t t t t t t t t t t t t t t t t t t t t t t t t t t t t t t t t t t t t t t t t t e U c.i.< t t t t t t t t ",
"t t t t t t t t t t t t t t t t t t t t t t t t t t t t t t t t t t t t t t t t t t t t t t t t t t t t y k < e t t t t t t t t ",
"t t t t t t t t t t t t t t t t t t t t t t t t t t t t t t t t t t t t t t t t t t t t t t t t t t t t t e e t t t t t t t t t ",
"t t t t t t t t t t t t t t t t t t t t t t t t t t t t t t t t t t t t t t t t t t t t t t t t t t t t t t t t t t t t t t t t ",
"t t t t t t t t t t t t t t t t t t t t t t t t t t t t t t t t t t t t t t t t t t t t t t t t t t t t t t t t t t t t t t t t ",
"t t t t t t t t t t t t t t t t t t t t t t t t t t t t t t t t t t t t t t t t t t t t t t t t t t t t t t t t t t t t t t t t ",
"t t t t t t t t t t t t t t t t t t t t t t t t t t t t t t t t t t t t t t t t t t t t t t t t t t t t t t t t t t t t t t t t ",
"t t t t t t t t t t t t t t t t p Z t t t t t t t t t t t t t t t t t t t t t t t t t t t t t t t t t t t t t t t t t t t t t t ",
"t t t t t t t t t t t t t t t t t a Z t t t t t t t t t t t t t t t t t t t t t t t t t t u M m t t t t t t t t t t t t t t t t ",
"t t t t t t t t t t t t t t t t t u M m t t t t t t t t t t t t t t t t t t t t t t t t t q 6 / Z t t t t t t t t t t t t t t t ",
"t t t t t t t t t t t t t t t t q 3 M m t t t t t t t t t t t t t t t t t t t t t t t t t t i ~ M m t t u m t t t t t t t t t t ",
"t t t t t t t t t t t t t t t p S d 1 2 t t t t t t t t t t t t t t t t t t t t t t t t t t q 5 M m p S m t t t t t t t t t t t ",
"t t t t t t t t t t t t t t t u M m r r t t t t t t t t t t t t t t t t t t t t t t t t t t q 3 M M [ *.@.t t t t t t t t t t t ",
"t t t t t t t t t t t t t t t q 1 2 t t t t t t t t t t t t t t t t t t t t t t t t t t t t t q 1 h %.W } X.t t t t t t t t t u ",
"t t t t t t t t t t t t t t t t r r t t t t t t t t t t t t t t t t t t t t t t t t t t t t t t r 9 b 2.+.x =...t t t t u m t u ",
"p Z t t t t t t t t t t t t t t t t t t t t t t t t t t t t t t t t t t t t t t t t t t t t t t t t 0 = : c ! o.t t t t t p S g ",
"M m t u B ~ Z t t t t t t t t t t t t t t t t t t t t t t t t t t t t t t t t t t t t t t t t t t t t e e 0 . ; t t t t t u M [ "
};
