/* XPM */
static char *_7521c71ccbb4dadc25e93474f18352f1fnuXWYlc51FvsMr[] = {
/* columns rows colors chars-per-pixel */
"64 64 235 2 ",
"   c #0B0704",
".  c #0D0905",
"X  c #0D0C0B",
"o  c #160C06",
"O  c #130D0C",
"+  c #0E100D",
"@  c #1A1406",
"#  c #16120E",
"$  c #1A140C",
"%  c #141413",
"&  c #1B1613",
"*  c #1C1915",
"=  c #161918",
"-  c #1E1D1B",
";  c #24180D",
":  c #241C0D",
">  c #261C14",
",  c #221D1B",
"<  c #1E221D",
"1  c #2C2515",
"2  c #23221D",
"3  c #2D241C",
"4  c #332916",
"5  c #352B1A",
"6  c #1D1E22",
"7  c #211F22",
"8  c #1F2022",
"9  c #242424",
"0  c #2B2523",
"q  c #262926",
"w  c #2C2C24",
"e  c #2C2C2A",
"r  c #322E21",
"t  c #322D2B",
"y  c #2F322C",
"u  c #33342C",
"i  c #393529",
"p  c #2E3030",
"a  c #343333",
"s  c #383835",
"d  c #3B3B34",
"f  c #3C3C3B",
"g  c #43371F",
"h  c #443929",
"j  c #523D2A",
"k  c #443D36",
"l  c #3C433D",
"z  c #666D17",
"x  c #676D18",
"c  c #696F18",
"v  c #6B7117",
"b  c #6C711A",
"n  c #72751B",
"m  c #75781E",
"M  c #58452D",
"N  c #474335",
"B  c #42433D",
"V  c #4A463A",
"C  c #4C493B",
"Z  c #524D37",
"A  c #564A38",
"S  c #664D30",
"D  c #695338",
"F  c #797C22",
"G  c #787B25",
"H  c #7A7E3D",
"J  c #3D3E40",
"K  c #413F41",
"L  c #3F4944",
"P  c #464747",
"I  c #444B44",
"U  c #4B4C44",
"Y  c #4B4C4A",
"T  c #504844",
"R  c #534F4D",
"E  c #475248",
"W  c #4D534B",
"Q  c #52534B",
"!  c #5A574A",
"~  c #4E5252",
"^  c #535353",
"/  c #5A5654",
"(  c #555C55",
")  c #5B5C54",
"_  c #535B5A",
"`  c #5C5C5A",
"'  c #635A4B",
"]  c #695948",
"[  c #745E4C",
"{  c #625D57",
"}  c #5C635A",
"|  c #5C645A",
" . c #6B6C4A",
".. c #787E41",
"X. c #63645C",
"o. c #696458",
"O. c #6A6B5E",
"+. c #786B58",
"@. c #767657",
"#. c #5E6462",
"$. c #626565",
"%. c #646B65",
"&. c #6A6A65",
"*. c #6B6B66",
"=. c #6C6D6A",
"-. c #786E67",
";. c #677368",
":. c #6D736B",
">. c #74776A",
",. c #73736C",
"<. c #7A736B",
"1. c #6F7173",
"2. c #747474",
"3. c #7B7674",
"4. c #7B7C74",
"5. c #787B79",
"6. c #877F26",
"7. c #90783A",
"8. c #85735D",
"9. c #877769",
"0. c #837C6C",
"q. c #857C74",
"w. c #927F71",
"e. c #7E8125",
"r. c #7D802D",
"t. c #7D8241",
"y. c #7F8060",
"u. c #77827B",
"i. c #7D827B",
"p. c #8C8628",
"a. c #918B2B",
"s. c #848638",
"d. c #A9873B",
"f. c #AA9635",
"g. c #B9963F",
"h. c #828543",
"j. c #888A45",
"k. c #8E9149",
"l. c #91934D",
"z. c #868759",
"x. c #979958",
"c. c #BD9842",
"v. c #8A886B",
"b. c #96856C",
"n. c #999968",
"m. c #838374",
"M. c #83847D",
"N. c #8A877A",
"B. c #968779",
"V. c #9A9978",
"C. c #A28D6A",
"Z. c #A28D79",
"A. c #AB9873",
"S. c #9FA164",
"D. c #ADAE7A",
"F. c #817F80",
"G. c #7E8581",
"H. c #848482",
"J. c #8B8C84",
"K. c #898A88",
"L. c #938C85",
"P. c #8D9783",
"I. c #8A928B",
"U. c #99978B",
"Y. c #949493",
"T. c #989795",
"R. c #9C9C94",
"E. c #9D9C9C",
"W. c #A89A8A",
"Q. c #B19B86",
"!. c #A29C99",
"~. c #AAA58A",
"^. c #B6AE8E",
"/. c #A8A49B",
"(. c #B8A997",
"). c #9E9EA0",
"_. c #9CA7AB",
"`. c #A4A4A4",
"'. c #A8A5A6",
"]. c #AAABA4",
"[. c #ACACAC",
"{. c #B1AEA9",
"}. c #B3B1AA",
"|. c #ACB0B0",
" X c #B3B3B2",
".X c #B8B5B5",
"XX c #BDBBB4",
"oX c #BDBCBB",
"OX c #C3A88C",
"+X c #C3AC97",
"@X c #C9B7A7",
"#X c #D0BDAC",
"$X c #C2BDB8",
"%X c #BDC0B9",
"&X c #C0C199",
"*X c #D5C2AD",
"=X c #CDC7B7",
"-X c #CDCDB0",
";X c #C3C1BD",
":X c #D8C8B8",
">X c #E0CDAF",
",X c #E1CDBA",
"<X c #EBD5BA",
"1X c #C1BFC2",
"2X c #C4C2C3",
"3X c #C9C5C3",
"4X c #CACCC4",
"5X c #CDCCCB",
"6X c #CECFCF",
"7X c #D1CCC8",
"8X c #DCD4C4",
"9X c #D3D3CD",
"0X c #D9D6C9",
"qX c #D5D4D4",
"wX c #D8D8D5",
"eX c #DCDCDB",
"rX c #E4D8C8",
"tX c #E3DED6",
"yX c #DEE3DF",
"uX c #E6E4CD",
"iX c #F7E5CC",
"pX c #E7E3DA",
"aX c #F6EAD5",
"sX c #FAF6DD",
"dX c #E3E3E3",
"fX c #E8E9E6",
"gX c #ECEDEA",
"hX c #F1EEEA",
"jX c #EDF0EE",
"kX c #F1F2EF",
"lX c #EEEEF1",
"zX c #EFF1F1",
"xX c #F3F4F4",
"cX c #F6F9F8",
"vX c #FCFCFC",
/* pixels */
"n n n n n n n n n n n n n n n n n F e.F m n m F n n t.t.m n n n m m m m n n n n n n n n n n n n n n n n n n n n n n n n n n n H ",
"n n n n n n n n n n n n n n n n n n F F F m z m m m |.H.N.{.k.G y.O.i.~.m n n n n n n n n n n n n n n n n n n n n n n n n n n V.",
"n n n n n n n n n n n n n n n n n m b m F F c h.j.F qXeX3XE.$.Y 2.I.5.#.=.l.n n n n n n n n n n n n n n n n n n n n n n n n n x ",
"n n n n n n n n n n n n n n n n n F F b m F h.~.(.dXvXdX5XY.=._ ^ 2.E.K.2.K.~.F n n n n n n n n n n n n n n n n n n n n n n n n ",
"n n n n n n n n n n n n n n n n n c m F z m V.A.xXzXeX5X2XoXT.=.f ^ `..X5XgX5.2.l.n n n n n n n n n n n n n n n n n n n n n n n ",
"n n n n n n n n n n n n n n n n n n c m c c x eXcXdXcXkXqX.X XK.1.$.Y.2XfX6XH.2.5Xn n n n n n n n n n n n n n n n n n n n n n n ",
"n n n n n n n n n n n n n n n n n n n t.t.s.wXcXgXfXcXvXkX2X'.[.Y.H.`.oXdXqXG.2.dXF n n n n n n n n n n n n n n n n n n n n n n ",
"n n n n n n n n n n n n n n n n n n n R._.B.wXzXeXgXcXcXwX2X[.'.'.[. X[.oXeXI.2.gXn n n n n n n n n n n n n n n n n n n n n n n ",
"n n n m m m n n n n n n n n n n n n n 7.P.v.qXxXgXvXxX5XoXqXeX;XT.Y.].9XcXwX4.&.wXn n n n n n n n n n n n n n n n n n n n n n n ",
"n n m F e.F n n n n n n n n n n n n n x x [.5XcXcXfXgXfXeX9X3XT.<.3.{.3XfXfXoX'.`.s.n n n n n n n n n n n n n n n n n n n n n n ",
"n n F F F n n n n n n n n n n n n n n m T.kXeXgXfXyXjXvXgX$XY.L.! ! /.3XfXhXxX;X,. Xm n n n n n n n n n n n n n n n n n n n n n ",
"n n m m c n n n n n n n n n n n n n n V.Y.eXpXeXeXcXxXfXoXE.N./ !./.&.U.;X9XwXoX2..XD.n n n n n m m n n n n n n n n n n n n n n ",
"n n c c n n n n n n n n n n n n n n n V.&.K.].4XwXwX4X4XR.=.o.B.$X$Xo.q.XXpXgXXXM.|.l.n n n n n F e.m m n n n m m n n n n n n n ",
"n n n n n n n n n n n n n n n n n n n n.P Q 4.%XwX].Y.Y.i.` -.:X8XW.' q.XXwXwX/.&.;Xs.n n n n n n F F F n n m e.F n n n n n n n ",
"n n n n n n n n n n n n n n n n n n n n.U.{.X.4.].L.&.R ` ].8X#X+.i i C <.R.&.B ` [.G n n n n n n c m m n m F e.n n n n n n n n ",
"n n n n n n n n n n n n n n n n n n n v.J.XXQ M.{.&.B Y Y.4XrX*X0.A -.{ ) O.,.M./ .Xr.n n n n n n n c c n F F m n n n n n n n n ",
"n n n n n n n n n n n n n n n n n n n n.L.].` ,.U./ U &.9XtX0X8X0.o.$XO.2 V ].{.,.oXG n n n n n n n n n n m m c n n n n n n n n ",
"n n n n n n n n n n n n n n n n n n n s.T./ B U :.].M.i.;X0XtX8X0.<.XX4.d Q ) 5.$XhXn n n n n n n n n n n c c n n n n n n n n n ",
"n n n n n n n n n n n n n n n n n n n n m Y.) X.U.4XU.4.7XuXpXrXB.N.=X/.) ` 4.5X-Xn n n n n n n n n n n n n n n n n n n n n n n ",
"n n n n n n n n n n n n n n n n n n n n n m ,.=./.4X/.m.uXsXaX8X/.U.wX=Xi.X.5Xx.n n n n n n n n n n n n n n n n n n n n n n n n ",
"n n n n n n n n n n n n n n n n n n n n n n s.L.o.=X8XrXuXaXaXaXrX8X0Xm.o.0X^.n n n n n n n n n n n n n n n n n n n n n n n n n ",
"n n n n n n n n n n n n n n n n n n n n n n n n.r 0.@XiXsXiXiXiXaX:X0.! V N.G n n n n n n n n n n n n n n n n n m m n n n n n n ",
"n n n n n n n n n n n n n n n n n n n n n n n  .i h 8.*X>X<X<X>X#XB.h 4 h N R.m n n n n n n n n n n n n n n n n m e.m n n n n n ",
"n n n n n n n n n n n n n n n n n n n n n n s.O.! 5 M D S D D D M M g Z +.N.! ,.G n n n n n n n n n n n n n n n n e.e.m n n n n ",
"m n n n n m m n n n n n n n n n n n n n n l./ L.-.A +.^.+XOXOXOX^.8.g ! m.>.C / 9Xn n n n n n n n n n n n n n n n m F F b m m m ",
"e.m n n m e.F n n n n n n n n n n m n n n @.Y N.0.] 9.:X<X<XiX<X<XQ.N ' N.>.U ` 6Xn n n n n n n n n n n n n n n n c h.h.b F F F ",
"e.e.n m F F n n n n n n n n n n n n n n n H.Q ,.<.h 1 A b.*X*XQ.D : 5 o.>.Q 4.i.X.n.n n n n n n n n n n n n n n n t.R._.G F m n ",
"m m n F F z n n n n n n n n n n n n n m ^ 2.i.) ! V 4 1 h A ] j : 1 C Q Q :.>.X.) 2.j.n n n n n n n n n n n n n n _.C.P.G m c n ",
"c c n m m c n n n n n n n n n n n n j.$.$.$.=.W Q Q d r ; @   @ r V B W | ;.| ( } d Y -Xn n n n n n n n n n n n n P.P.c m c n n ",
"n n n c c n n n n n n n n n n n n n O.1.G.:.( =.:.Q } O.w u r d } &.W | :.( :.M.M.Q &.pXn n n n n n n n n n n n n x x n n n n n ",
"n n n n n n n n n n n n n n n n n n ~./ Q P d ,.J.Q >.i.I W Q U :.i.( :.M.B U V R N.7X8Xn n n n n n n n n n n n n n n n n n n n ",
"n n n n n n n n n n n n n n n n n n n Y 9 e d &.J.} >.i.| ;.2.Q :.i.( %.5.d 3 3 k U.tXn n n n n n n n n n n n n n n n n n n n n ",
"n n n n n n n n n n n n n n n n n n n - q e q f / l I I E 5.I.( I I L E B e & & o , 3.s.n n n n n n n n n n n n n n n n n n n n ",
"n n n n n n n n n n n n n n n n n n @.= 2 - 0 9 d P } | | G.i.W ( | I l w < # > 0 O T tXn n n n n n n n n n n n n n n n n n n n ",
"n n n n n n n n n n n n n n n n n n Z 9 - # % 2 u l #.%._ u.I.` $.#.I d < # 2 $ > O R pXn n n n n n n n n n n n n n n n n n n n ",
"n n n n n n n n n n n n n n n n n n Z % * * # 0 d d Y ~ L u.K.~ E L l l q 2 # > $ # / wXn n n n n n n n n n n n n n n n n n n n ",
"n n n n n n n n n n n n n n n n n m T # $ > $ > d I %.:.W 2.G.W :.u.I d w . $ ; o 3 3.0Xn n n n n n n n n n n n n n n n n n n n ",
"n n n n n n n n n n n n n n n n n n 0.h > o . $ k Q :.K.( %.=.Y :.i.U u w @ . > h V L.:Xn n n n n n n n n n n n n n n n n n n n ",
"n n n n n n n n n n n n n n n n n n n.#X9.; > 3 w V U P W X.:.Q I W U d 5 : > A @XW.<.tXn n n n n n n n n n n n n n n n n n n n ",
"n n n n n n n n n n n n n n n n n n b.,X*X(.W.' i O.J.>.) M.M.X.:.i.&.V C W.@X@X:X9.q.pXn n n n n m m n n n n n m n n n n n n n ",
"n n n n n n n n n n n n n n n n n n A.*X*X,XrXo.i { 4.M.Q O.,.W 4.J.O.V ] *X:X#X,Xw.q.tXn n n n n F e.m m n m m F n n n n n n n ",
"n n n n n n n n n n n n n n n n n n v.@Xb.] (.+.5 d u w w u d w u u r 5 ' (.8.[ +XB.9.tXn n n m m m F F m m F F n n n n n n n n ",
"n n n n n n n n n n n n n n n n n n +.*XZ.j [ k r Q 4.:.B } $.U =.m.{ N N ] j +.#Xw.9.pXn n n m e.e.b h...F F z n n h.h.m n n n ",
"n n n n n n n n n n n n n n n n n n n.Q.Q.[ 1 3 N X.4.:.W } ` Y :.>.o.C : 5 [ B.@XB.B.pXn n n n F F h.R.R.j.G c n n ~.}.G n n n ",
"n n n n n n n n n n n n n n n n n n n.+.Z.(.5 @ u 2 < l e e y < u y w r 1 5 Z.rXrXB.-.0Xn n n n c m P.C.C.P...h.m n 7.V.m n n n ",
"n n n n n n n n n n n n n n n n n n n D.W.] : @ w y q = = % + 9 - * 0 1 ; : ] 9.9./.0XuXn n n n n c x P.P...~.}.G n x x n n n n ",
"n n n n n n n n n n n n n n n n m n n n s.i , # % 2 9 = = p d O - t w 2 $ > 3 k <.=Xj.n n n n n n n n z x {.C.U.m n n n n n n n ",
"n n n n n n n n n n n n n n n n m m m n n  .X , q 9 9 % e E. Xt O 9 , 2 * .   U ;XD.n n n n n n n n n n n V.U.c n n n n n n n n ",
"n n n n n n n n n n n n n n n n n n n n n ! * % % - q - q T.1Xa O q e e , = % k 7Xn n n n n n n n n n n n x x n n n n n n n n n ",
"n n n n n n n n n n n n n n n n n n n n n  .% * - q < = e E.|.a % 9 7 q % % % f 5Xn n n n n n n n n n n n n n n n n n n n n n n ",
"n n n n n n n n n n n n n n n n n n n n n @.% % X % - % q `.6Xa X 6 = 8 % X X ^ 5Xn n n n n n n n n n n n n n n n n n n n n n n ",
"n n n n n n n n n n n n n n n n n n n n n V.9 % * 2 - % q '.lXf   6 9 6 % 9 5.2X8Xn n n n n n n n n n n n n n n n n n n n n n n ",
"n n n n n n n n n n n n n n n n n n n n n n f 2 Y Y P a e ).xX~ e P Y P p a [.-Xn n n n n n n n n n n n n n n n n n n n n n n n ",
"n n n n n n n n n n n n n n n n n m m n n n z.` [.!.Y.=.e E.wXP ` T.`.|.H.J E.^.n n n n n n n n n n n n n n n n n n n n n n n n ",
"n n n n n n n n n n n n n n n n n F m n n n @.H.gX9XXX3.d `.3Xd $.1XwXwXE.f '.gXn n n n n n m m n n n n n n n n n n n n n n n n ",
"n n n n n n n n n n n n n n n n n n F m n n z.&.}.'.T.{ a E..Xk R K.'. XF.a 2.fXn n n n n n m F m n n n n n n n n n n n n n n n ",
"n n n n n n n n n n n n n n n n n b F F n G 2 e t - , # 0 !.$Xt . * , , , e - P x.n n n n n v e.F m n n n m n n n n n n n n n n ",
"n n n n n n n n n n n n n n n n m b m m m   . X O - 2 # 0 '..Xt O , * & O . O X R s.n n n n n F F F n m m m n n n n n n n n n n ",
"n n n n n n n n n n n n n n n n F F b G q X./ ` U 2   O 0 !.7Xu O * = d ` / ^ P K '.m n n n n z F F m a.p.n n n n n n n n n n n ",
"n n n n n n n n n n n n n n n n m m n V./.wXwXeX{.U   & d !.}.t # % 9 H.eXqXyX2X3. X&Xn n n n v m m p.g.g.p.n n n n n n n n n n ",
"n n n n n n n n n n n n n n n n v v n l.* d k d t *   O t /.;Xd X O O q K a a f a E.S.n n n n n v v f.d.d.f.6.6.n n n n n m n n ",
"n m n n n n n n n n n n n n n n n n n n / / / Q R / { { <.3XwX,.R R ^ ^ / / ^ Y 2.5Xs.n n n n n n n x f.f.c g.c.m n n n n m m m ",
"m F n n m m m n n n n n n n n n n n n n n n n n n n n n n n n n n n n n n n n n n n n n n n n n n n n x x n 7.d.m n n n n n F F ",
"F m n m F e.F n n n n n n n n n n n n n n n n n n n n n n n n n n n n n n m n n n n n n n n n n n n n n n n x x n n n n n n m p."
};
