/* XPM */
static char *result[] = {
/* columns rows colors chars-per-pixel */
"64 64 50 1 ",
"  c #3E200F",
". c #462411",
"X c #4D2A15",
"o c #502D19",
"O c #52321F",
"+ c #533624",
"@ c #563825",
"# c #5A3925",
"$ c #553A2A",
"% c #583D2C",
"& c #5A402E",
"* c #5D4332",
"= c #524338",
"- c #5B473A",
"; c #52493F",
": c #5D4A3E",
"> c #614430",
", c #634C3A",
"< c #554B42",
"1 c #5D4E42",
"2 c #5B5146",
"3 c #5D544B",
"4 c #5E5A52",
"5 c #625245",
"6 c #60554B",
"7 c #635A4F",
"8 c #6A594A",
"9 c #615750",
"0 c #645C54",
"q c #685D52",
"w c #665F58",
"e c #666057",
"r c #6A6157",
"t c #676159",
"y c #6B655D",
"u c #6D685F",
"i c #6F6A62",
"p c #736E66",
"a c #757166",
"s c #767469",
"d c #78766B",
"f c #7F7B72",
"g c #827F72",
"h c #828077",
"j c #868579",
"k c #88867B",
"l c #8E8C84",
"z c #908D86",
"x c #94928A",
"c c None",
/* pixels */
"$*>***>&>>*>&>&>c$&>&>&>>&>>&>>&>>&>&&>>*****>>>c&***>&>>*>&>>&>",
"djjjjjjjjjjjkjkk,hkjjkjjjjjjjjjjjjjjkkjjjjjjjjjj,hjjjjjjjjjjjjjj",
"djjjjjjjjjjjjjjj,jjkjjjjjjjjjjjjjjjjjjjjjjkkjjjj,hjjjjjjjjjjjjjj",
"djkjjjjjkjjkkkkk8jkkkkkkkkkkkkkkkkkjjkkkkkkkjjjk8jjjkkkjjkkkjkkk",
"fllllllllllllxxx8kxxxzxkzzllzlllllllllklkzzkkxxx8kxxxxkxzzlzkzzz",
"4iyiuyuuuuuuuuuu*yuuuuuuuuuuuuuuuuuuuuuuuuiuiuuu,ruuuuuuuuuyiiuu",
"wiuuuuuiuuuuuuuu*yuuuuuuuuyyuyuuuuuuuuuuuuuuuuuu,ruuuuuuuuuuuuuu",
"4iuuuuuuuyuuuuuu*yuuuuuuuuuuuuuyuuiuuuuiuuuuuuuy*ruuuuuuuuyuyyuu",
"4uuuuuuyuuuuyuuy,tuuyuuuuuyuuuyyuuuuyuyuuuuuuuuu>euuuuuyuuyuyuyy",
"4yuuuuyyuyyuuyyy*euuutyyyyyyyyyyuuuuyyuyuyyueuuu-eyyyyyyyryyyyyu",
"4uuyyyyyyyyyyyuy*ruuuuyyyyyyyyeyyytuyyyyyyyyuyyy*eyyyyyyyryyyyyy",
"4utyyyyyyyyyuyur&eyttytyyyeyyyyyyutyyyyyyyyyyyyu*ryyyyyyyyyyyyyy",
"4uytyyyyyyyyryyr&qeutytyrytyytyyyyyyyeyyyyyytuuy@eeuyyeeyeyetyty",
"4ttuyyeyyyeyyyyyOeytyytyytytyyryytyyyyyyttyyytey@euetyyyyyyyytut",
"4uytyeeyeyyeeyee&7tytytyttttyttytyyyeyeeyyttttyyOqeeytyeeeeyttey",
"3tttyeeyeeyeyyeyOetttetyttutttyttreeeyeytttytyet&eeyeyeyeyyeyyte",
"4ettttttttttttttOettteetwwytttttyeteeetttttetttwO7etyeyeeeeyeeey",
"2404700778q7e707O7777e7q09999q0900940w9409000094O7q7444e707q7007",
"XoooooooOooOoooo:OoOoooXoooooooooooooooooooooooo;OoooXo.oOoooooo",
";2222322222222223222222+<23<22222122123<22<2223<2222222+<2222222",
";322333:322222222322223+<2222222<<322<22131222<22222<23+:2256622",
";322:33322222622222332;&<222<22<322122223<<22222222222<+23222226",
";232:3:3235222233222222&<32<2222222222223<322<22<22<2<2$22222625",
";323322323223222:322222+<22222222<22<221223<22212222222$:2262222",
";3333233223233334333333$2222222322222322331332332322232$23235323",
"3eereertueeueetteeeeeee&3444999944999999993999993999934-eyeeyeey",
"3eeeeeeeeeeeeeeeeeeeee4$2366969339669999999999999999933$7eeeeeee",
";73572::53536633237--&&&%%%-----<--113096:236366699--%%$&&266666",
"4uuuuu2uuuuyuyyyuuuuuuuuiyiyyiiiiiipi-39-yiiiiyiiiyyiyyiyiyiyuyy",
"4ettte:eeeeetttteetteettwwttwwttewwtwi*-itwewwwtwwwwttwweeeteete",
"4eeett:eeeyetttteeeeetttttttwtttywttww-wttttwwttttwttttttttttttt",
"3eyett3eyeeytttteyyettttttttwetteewwyw-0ttttewtttttttttttttttttt",
"4w0iyw1wywywttttwyywwwwwwwwwtttttttttt-0wwwwwwtttttttttttttttttt",
"4wwwww1wwwwwttttwwwrywywywywtttttttttt*0ywwywytttttttttttttttttt",
"3wwwww-wwwwwttttrywwwwwwwwwwttwttetttt-0wwwwwywwttttwwwwtttwtttt",
"3ww000%0wwwwwwwwwwwwwwqwwwwwwwwwwww009*9wwwwwwwwwwwwwwwwwqwwqwww",
"=<1%%%$%*56666666666111111,6666611<-*$$$%69666666666::1111:66666",
"4iyyyyywwiwyttytuyyuiyr1yyyyyyyywywttiwityytttywuuuuyyy1wuyuuuyy",
"3wwwwwwwwwwwwwwwwwwwwww1wwwwwwwwwwwwwwwwwwwwwwwwwwwwwww10wwwww0w",
"3wwwwwwwwwwwwwwwwwwwwww19wwwwwwwwwwwwwwwwwwwwwwwwwwwwww10wwwwwww",
"3wwwwwwwwwwwwwwwwwwwwww50wwwwwwwwwwwwwwwwwwwwwwwwwwwwww50wwwwwww",
"3wwwwwwwwwwwwwwwwwwwwww20wwwwwwwwwwwwwwwwwwwwwwwwwwwwww50wwwwwww",
"4wwwwwwwwwwwwwwwwwwwwww10wwwwwwwwwwwwwwwwwwwwwwwwwwwwww10wwwwwww",
"3wwwwwwwwwwwwwwwwwwwwww$qwwwwwwwwwwwwwwwwwwwwwwwwwwwwww$0wwwwwww",
"2wwwww0ww0000w0w0www090$99ww000wwww9www9ww000wwwwww0090$9900000w",
"<661<1<1666665252512%%#%%%115616666111,1552352222251$$$$%$125151",
"0yyyiy1ippppppppppippipppppppppppppppp1riiiyiyyyyyyyiyyiiiitiiiy",
"3wwwww1wyiyyyyiyyiiyiiiiiyiyyyyyuiyiuu1w000wwwwwwwwwww0w00w00ww0",
"3wwwww2yyyiyiiyyyiyiiyyiyyyiyyiiiiiyyu10wwwwwwwwwwwwwwwwwwwwwwww",
"3wwwww6yyiyyyyyiiyiwwiyiyiyyiyyywiwiii60wwwwwwwwwwwwwwwwwwwwwwww",
"4wwwww5yyiyiyyyiyiuuiwiyiyiyiyiyiiyyyi60wwwwwwwwwwwwwwwwwwwwwwww",
"3wwwww%yiyiyyyyyuuuuiiiyyyiyyyyyitiyiy-0wwwwwwwwwwwwwwwwwwwwwwww",
"4wwwww%yiyyypiiyuuuuuuuuyiiiyyiiiiiwuu*0wtwwttetwwwwwwwwwwwwwwww",
"299009%wwrrwwwwwurrrtrrtwwwwrwrw0wwwrr%6799q9790w0999qq99q9q9qq9",
"O$$#############8&##############################9###############",
"ypdsssssddddpddd>issssssssssdsssadddsssssssdssss>pddddadsssssssa",
"yssssssspdssssss5assssssssssssssdassssssssssssss8assssssssssssss",
"ussssssspdddssss8assssssssssssssssddssssssssssss8asssssssssdssss",
"usdddddddfdddddd8adssdddddddsdddddddddddsddddddd8pdddddddfdddddd",
"shhhhhhhghghhhhg8fhhhhhhhhhhhhhhgggjjfjfhhhhhhhh8dhhhhhhgggghhhh",
"3teeeeeeettwwwww80eeeeeeeeeeeeeeeeeewwwweeeeeeee8eeeeeeeeeeewwww",
"3teeeeeeet0twwww50eeeeeeeeeeeeeeeee0wwwweeeeeeee,eeeeeeeeeetwwww",
"2747777777979999o6777777770777777707794077777777O277777777909099",
" ...........X..................................................."
};
