/* XPM */
static char *result[] = {
/* columns rows colors chars-per-pixel */
"64 64 87 1 ",
"  c #1F130F",
". c #1E1410",
"X c #21140F",
"o c #27180F",
"O c #241612",
"+ c #291712",
"@ c #261913",
"# c #2C1B15",
"$ c #2E1E18",
"% c #321D16",
"& c #391E16",
"* c #331E19",
"= c #391E19",
"- c #2F2017",
"; c #2E2019",
": c #352017",
"> c #3A2017",
", c #35211A",
"< c #3B241C",
"1 c #35281C",
"2 c #3E281E",
"3 c #362520",
"4 c #3C2621",
"5 c #3D2922",
"6 c #42251D",
"7 c #49271C",
"8 c #43291E",
"9 c #48291E",
"0 c #522C1D",
"q c #422621",
"w c #492722",
"e c #442B24",
"r c #4A2D25",
"t c #462E29",
"y c #4B2E29",
"u c #512E23",
"i c #502F28",
"p c #453126",
"a c #4C3126",
"s c #46312A",
"d c #4C322A",
"f c #4F382F",
"g c #523326",
"h c #5C3726",
"j c #53352C",
"k c #5A362C",
"l c #54392E",
"z c #5B392E",
"x c #4D3730",
"c c #4E3831",
"v c #543630",
"b c #593730",
"n c #553A32",
"m c #5B3C33",
"M c #573F38",
"N c #5A3E38",
"B c #623C2F",
"V c #623D33",
"C c #564037",
"Z c #5D4035",
"A c #5D4239",
"S c #634135",
"D c #6A4335",
"F c #64443A",
"G c #6A453A",
"H c #66493D",
"J c #6B4A3D",
"K c #754832",
"L c #71473D",
"P c #724A3D",
"I c #794D3F",
"U c #6C4D41",
"Y c #734E42",
"T c #794E41",
"R c #6E5143",
"E c #745144",
"W c #7A5246",
"Q c #735348",
"! c #7D5649",
"~ c #77594B",
"^ c #7B5B4C",
"/ c #7F6051",
"( c #82564A",
") c #885B4E",
"_ c #8C5D50",
"` c #8B6254",
"' c #86665B",
/* pixels */
"@.@+#@#+#-#:,$-##;@;;.@@-.@@O@XXOX  O@@@@@$,,;$@@@#@$@O$#O.#@.@.",
"X .@O o@o@@+#oO @#@O.O.o.-@@+#OO@OOOO$**$<,*,;,*##;;@@@$;#@@$..$",
"OO @@O+,>:%<,##:$+XX. @o@-@oo@OX+++#@@#%<86<*%>>&#,,$$@$#$#*;@;$",
"55sjrelNllnGDzfa><bMffdCAFFFSSSn2eenNFmJDVmVFVDVBwwede4ee4eesx5s",
"e5jridjmmzSLEP!S#>DSmMnlllCzmzmD%&lFbbmDVhBSIDLPTT><Vr9kkZdavnt5",
"xnFmVjkVlrFDGSGE6>!IJFJFSZFHRJEE6<VJFSUGJVUGPIITL(6<nZHUSnkjbbHl",
"nHFSBibmbjSYJFHF%%VmvxAnzzSllkdn%%jHFvmJYmmVLLPYJV*3FnNFnjmgVVJn",
"sjjdjiiwrwjlkls<==2t4eyjAdvdljNe%%=esdjFUDmVVzVJVk<=yeejlyewyyky",
"@++###+%%%*,#o#%,%%#+O##++%+%%++%$%#@#@###,,%#%:$,=@$oO$###,%@##",
"@+#%%#%$%#$=%%%#%%%##O@##+%%#%+++O%%$#*#%%%%%%%>>,,$,$+$+$+#++##",
"<%%$&%%=<===6>&>2&%,:$$%%6q<w<<<q66q<<<>2e9w9re>*,==2,,5<*=,=#,,",
"ejqwq<=%#2268we8e2645e5,%5tyjyjdrryrsssj<rwrwreaweqejslZle*,qkNv",
"sFmVVj=%qmmgjkVSVmjlAAH,$ynyenmlbmZJRFHU%9SFVVSkjgvmldfSby<=rDFj",
"zGP_)L&&kVTPDzGPPJLEZUR>$J^^/^UUHJZHRHFRjrdFVFldmmmFhllZmml*yVjN",
"tVTTTJ<=6VGFJFJDFFJHCFH,,CAFlkmdryjAZSFAe2edjsjnZddlfdhdjdt#xyqd",
"5eyuk6%%==mndjvnmbljldl$$,<,24<%4<,eeejp8perwhlvlnZCcspdddq$*e,3",
"333e3$#$<<*,<2,888e2>,,#$5<,$,2=,<,<262<<,,2<545<,,pe88822,$,33<",
"O@OOO. @,o@O@@###@.@@@@@@@@OOO@O@++%=%<<,=*,%#$,#@$%#%$++@@+#O@;",
"$$@@O@@$:$++#@@#;#@#%@$#*,$%#@@##;<<<>>2,,%->>;,%,$:=<%<$$+#$@;*",
"<<42e<2g0uaa962<ew5w9er5q262e2<$;,%629er==&<ee<>,>>>96&<6:%<>2,<",
"=43q*qqkVVVBDPVVLBWVVk2irzzlzBj,eyzjlkdlrrvraiaZmm%%mmklkdllnvjs",
"bjtbVdynBzkBKWSKSBDPJGDDZFHFRHMjssFJLGDFgV~PJ`E'JB#jGVSHFmmmFSNZ",
"NNtybytiSmZBzj4ylmVDLjjVZZPDHJFe2ejmkVJmeengzQRAzw+UJFLYSSzDSYGz",
"q<****%*gaaakzyrngkhrlykazGCaal6,<e84ywq<<6qdde322:8jjeqe5eenree",
"=<**,5>%5w<>2<*$,26u8qwyrwweerke4<q<6w6ry6ykVVx$a5%6r8ere4e9meee",
"#@O@#@@@#@+$$@O@=$&%%##$*2,=%#%#@##$##%&%#%#%#@@@$%%%@+@OO+@OOO#",
"$##$#$####$::@.#==%=#%$*><,:%#%%@@%+#%=%#%*,=%##$,*$:@@#O#+#$@#%",
"+@.####+++$##OO-==#%%%$$,,###@$$+O@$@,$=$@@%$@$@@@@@#X@@@OO.# O+",
"nnlMde;$psnnAv2pNVkdjrs<,jnEY~WFEFEJFedssesddMvdddjdny,##3sddjmF",
"tssde,$@edAdjde2jgJmrje=,sFHmmjamlHzjeeplmjynAjnjlCAnd*$3dvdpsdd",
"3svds;;;yMASFncvsdHFnrt,:jjlrdarljCmdtsesdeseersaCAZv:@$,CMnd55e",
"xxdse-;$dAZNMp35eddtssd*%s5esdee3s<e5,2edsrsepdsesrajq%*$3ejjsdp",
"$,3*$$#$,,,,<,$$@$$,;$,#;,$,e3q<535<,3,*,5335t5eeewrre<6<,*e<<,<",
"@@@#$@.#@OO+$+$$,$#$@##*;;#,$#%#;;>#-$,#$,,,,*,82%*=,=%=,#$2=@#@",
".$@*$O+,;@#%%$%*,*,*,;#$$#,#@$=%,,:$%<,@*#@$,#:<*%%,%%:$#@$,=+@@",
"$$,4$$*=8>77r<%<868925=8635<<q<,:8<8ekje4<6wa9dww=6r6q<rw<,<q233",
"nvNNN<ryjBVVVr6jgzGVjlyrreeewe6<6q<r9DzkyikYFBGVVmVmVmzFmr9gAZVA",
"UR`UmjjjFVGbmljgjFzZNijjirrskVeyiwmFSBzzjBbbBBPDVBVzDDSJLFDSSSSD",
"FJJVVmvgNVDJSVl9azGJJDFmlFNmUSnbr0HYJzDVlbjklVkkkjghzSzzVldgzZDn",
"vlHFdrdbmmFJSmrjBDPZmkjbmNAmdbyw4wmZSBVjew4jrlgjjjr9jmzlnj88jale",
",38e5,paajlzzrerraaaaedrre55eeyr34dglljs42ejewr264<>q=<q4<3<q6e4",
"+@:%#+%:#@%&<:%<><gr862=,3*22>,<=%2=>:,,$+$,%#>%=#%,<%&=%##*=+=$",
"+o#+++@#OoO#$#+#%%#%%%+#$*@@@*@@OoO@++@#@##:#+=%$@##=*##+@+$%+##",
"##@##@@oo#@##+o,#:%&&++O,#@#@#%@+@+#@@:###@:*+$$@+%O*###%+@%#%%$",
"sdjaaesjnmnnje2djiebmVv,bye543<3bjsdeees51ysvvnns2sjljjt5$3yw85e",
"eerer<46gdejde<sy<ejFkrejNAMee4rjSSRSlvs15tsaNHSghJRmmFv,<3eln5d",
"ddZmd9djZFZVme,pre**dee:tdxx4e<,elnlrdy2,*3taFFjycMSgZCf;,pdljee",
"CnCSndNNZNcMls,,5t**5<5,,<4qttd3sdMdBggltew53eep35pe4521@#pssjds",
"e<,2<%<<%><:<-@,,:$$,$$1,:<<>8,#2,p62>e,22<8>,35,#,1>-,-@,@5ea52",
",:,:%:#$$+o#+O@#<:@O$O@#:O#&##+#@oo@%$-$$$:>,$--#$,%$$++#;%,::>,",
"%%$#=&##%-@#-O@@$$@;*@+####&:$#++OO##+$=##%&:%O@,++$+#O,@@+@##,%",
"%%%>&+#%>:@$$$--,$;,<;:#%<>>8>%$#O#:%,<<,=:282,$21,>$%*=,;%,<<22",
"zVDFkmSJr>jjmlade<2epas<>jVFmmHGHndSVJYFneriVFjdjmlmSzlCmsw,nyed",
"rjzbkmVV7eglZZlHAesdmZndrkmzGVJGmNlzmmFFUjiDSSNmH^E!WE~YGmsrnd9d",
"gjjgkVSj6w8emsdvnrljljdse4jyVmmFmcelmFmVzazFVuvbGJIJBmmjljrqrrra",
"VVBVBVVF68djddlHm<sZajle6<qenljmmcjSJHmNs49ermNUFzndjhlmmml>jjjl",
"jijikbjl6erqescnc25pllMs6sdklmmVnclasjadwiqtjbyxmzlbvmvdmlr6jjaj",
"####=+O%%%O#*@@@##@-,#@@,=*=$%##@#$@+$&#++%#%%OO@@#O$+@++#+@#+%#",
"%#+%=#@*@@@$;,,,;@O#;@@@#<%&%+#@@#@#@%#+##+#%%+O+%%@$++#$%+%%###",
"#%++##@O#%#+@##$-@O@#@;@==###%#O+##@++@+####%#+@%%,$=#@%%%+@+o##",
"yrrww4ed85aae=45admZnn53wrmFVVzGGAnmVmVgiNBbi4*3ymFVVVVVk9rmmrys",
"kkrrrydmresjn>e2dnadvst,rllmllmVFJljjrre=rwdr#+$<rkjerjkj&>iVawy",
"dldmbNlje5ste34jjddsAs5sMjjlvmyqqssrjzmz=ebxt<t34erjiriwwqymxdee",
"*3,<<3,53,35e55xeep5s33,34ejmmr4,yvnFFJErNVAv3s32eljsre4%5tte5,5"
};
